<?xml version="1.0" encoding="UTF-8"?>
<svg width="147px" height="28px" viewBox="0 0 147 28" version="1.1" xmlns="http://www.w3.org/2000/svg" xmlns:xlink="http://www.w3.org/1999/xlink">
    <!-- Generator: Sketch 43.2 (39069) - http://www.bohemiancoding.com/sketch -->
    <title>anr_homepage_white</title>
    <desc>Created with Sketch.</desc>
    <defs></defs>
    <g id="Page-1" stroke="none" stroke-width="1" fill="none" fill-rule="evenodd">
        <g id="anr_homepage_white" transform="translate(0.500000, 0.000000)" fill="#FFFFFF">
            <path d="M11.8686534,6.24277949 C11.8686534,9.19713846 12.9806413,9.67421538 13.9401281,9.67421538 C15.0669425,9.67421538 16.0126618,9.1336 16.0126618,6.10062564 L16.0126618,1.3341641 C16.0126618,1.03190769 16.1235076,0.969087179 16.3180172,0.937497436 C16.72151,0.889753846 17.2640895,0.8736 17.541557,0.8736 C17.514022,1.50862564 17.4999016,2.44554872 17.4999016,3.76442051 L17.4999016,6.02057436 C17.4999016,10.4689846 15.4421943,11.1036513 13.7456184,11.1036513 C11.3959702,11.1036513 10.130422,9.7216 10.130422,6.30667692 L10.130422,3.04970256 C10.130422,1.98498462 10.1163016,1.3341641 10.0884136,1.00031795 C10.3386992,0.952215385 11.2985389,0.8736 11.5767124,0.8736 C11.8266449,0.8736 11.8686534,1.01647179 11.8686534,1.79472821 L11.8686534,6.24277949 Z" id="Fill-1"></path>
            <path d="M23.353618,6.57651795 C23.353618,5.65538974 22.9218842,5.13092821 22.3108204,5.13092821 C21.7682408,5.13092821 21.420171,5.41703077 21.1144625,5.71821026 L21.1144625,10.4692359 C21.1144625,10.7546205 21.0724541,10.8335949 20.7946336,10.8651846 C20.3219505,10.9445179 19.8905698,10.9613897 19.3903517,10.9613897 C19.4178866,10.1185179 19.4323601,9.1503641 19.4323601,8.06985128 L19.4323601,5.46369744 C19.4323601,4.98769744 19.3765842,4.75005641 19.1679541,4.60718462 L19.1679541,4.49554359 C19.3070408,4.09887692 19.779724,3.68497949 20.2107517,3.68497949 C20.7392107,3.68497949 20.9478408,4.25718462 21.0315047,4.75005641 C21.6012661,4.17713333 22.2684589,3.68497949 22.9638927,3.68497949 C24.7296589,3.68497949 25.0360734,5.35313333 25.0360734,6.59195385 L25.0360734,8.59359487 C25.0360734,9.41959487 25.0498408,10.2933385 25.0914963,10.8335949 C24.7720204,10.8651846 24.2153204,10.9613897 23.6310854,10.9613897 C23.4228083,10.9613897 23.353618,10.8651846 23.353618,10.6584154 L23.353618,6.57651795 Z" id="Fill-3"></path>
            <path d="M28.6226052,10.4838462 C28.6226052,10.7699487 28.5255269,10.85 28.2194654,10.8966667 C27.9409389,10.9444103 27.4407208,10.9612821 26.8981413,10.9612821 C26.9119088,10.3101026 26.9397967,9.38717949 26.9397967,8.46676923 L26.9397967,5.74969231 C26.9397967,4.78153846 26.9119088,4.28938462 26.8843739,3.97025641 C27.2038498,3.85969231 28.0803787,3.78035897 28.3723196,3.78035897 C28.5671823,3.78035897 28.6226052,3.85969231 28.6226052,4.78153846 L28.6226052,10.4838462 Z M27.8163257,0.349282051 C28.3444317,0.349282051 28.6646136,0.794410256 28.6646136,1.38205128 C28.6646136,1.98476923 28.2890088,2.46292308 27.7605498,2.46292308 C27.329522,2.46292308 26.8843739,2.16030769 26.8843739,1.4294359 C26.8843739,0.651179487 27.4544883,0.349282051 27.8022052,0.349282051 L27.8163257,0.349282051 Z" id="Fill-5"></path>
            <path d="M31.1950393,3.68508718 C31.3757814,3.68508718 31.4862742,3.82795897 31.5561706,4.05052308 C31.8763525,5.11524103 32.417873,6.89395897 32.9191501,8.7850359 C33.4751441,6.95713846 34.1148019,4.98780513 34.4625188,3.68508718 C34.8518911,3.68508718 35.1854875,3.76442051 35.5194369,3.93888205 C35.8110248,4.08175385 35.7418345,4.43175385 35.5469718,5.00467692 C34.9630899,6.6556 34.1702248,8.81662564 33.5859899,10.4837026 C33.503032,10.7382154 33.3780658,10.8337026 33.1694357,10.8968821 C32.8210128,10.9920103 32.3490357,11.0559077 32.0705092,11.0559077 C31.6115935,9.49939487 31.097608,8.00534359 30.4717176,6.13257436 C30.1931911,5.29006154 29.984914,4.65395897 29.7483959,4.08175385 C30.0685778,3.87570256 30.805314,3.68508718 31.1809188,3.68508718 L31.1950393,3.68508718 Z" id="Fill-7"></path>
            <path d="M39.2316057,4.7977641 C38.7165611,4.7977641 38.1605671,5.35309744 38.1047912,6.54489231 C38.6752587,6.59191795 39.7455912,6.57648205 40.0788346,6.54489231 C40.1769719,6.54489231 40.2602828,6.38586667 40.2602828,6.21140513 C40.2740502,5.43314872 39.9542213,4.7977641 39.2450201,4.7977641 L39.2316057,4.7977641 Z M41.5671334,9.2932 C41.5671334,9.9917641 41.0806828,10.6436615 40.8438117,10.7700205 C40.6358876,10.8813026 40.0375322,11.0561231 39.5507286,11.0561231 C37.5205563,11.0561231 36.4082153,9.78499487 36.4082153,7.44950769 C36.4082153,5.52755897 37.5067888,3.68494359 39.3841069,3.68494359 C41.1502261,3.68494359 41.8308334,5.14632821 41.8456599,6.41817436 C41.8456599,6.64109744 41.8308334,6.81484103 41.8036514,6.94191795 C41.761643,7.18027692 41.205649,7.4032 40.6358876,7.56150769 C40.2878177,7.65771282 38.8418804,7.67243077 38.0769033,7.64012308 C38.1464466,9.03940513 39.03639,9.62704615 39.9821093,9.62704615 C40.6496551,9.62704615 41.3030804,9.38725128 41.5399514,9.26125128 L41.5671334,9.2932 Z" id="Fill-9"></path>
            <path d="M42.8871866,4.51101538 C42.9987384,4.14557949 43.5268445,3.68501538 43.9024493,3.68501538 C44.5145722,3.68501538 44.7645047,4.35270769 44.7782722,5.33773333 C45.1817649,4.25722051 45.7656469,3.68501538 46.502736,3.68501538 C46.767142,3.68501538 47.0311951,3.82824615 47.1561613,3.95568205 C47.2260577,4.12978462 47.2122902,4.58963077 47.0728505,4.89224615 C47.0170746,5.22681026 46.7389011,5.6069641 46.530271,5.63927179 C46.2524505,5.51291282 46.0995963,5.48060513 45.8637842,5.48060513 C45.6406806,5.48060513 45.2375408,5.67122051 45.0144372,6.33747692 C44.9311264,6.59198974 44.889471,6.76645128 44.889471,7.11645128 L44.889471,10.4362462 C44.889471,10.690759 44.861936,10.8181949 44.5841155,10.8813744 C44.0976649,10.9445538 43.6655782,10.9614256 43.1653601,10.9614256 C43.1928951,10.1185538 43.2070155,9.1504 43.2070155,8.06988718 L43.2070155,5.38475897 C43.2070155,5.01932308 43.1237047,4.73322051 42.8871866,4.57491282 L42.8871866,4.51101538 Z" id="Fill-11"></path>
            <path d="M50.2287429,3.68508718 C50.7850899,3.68508718 51.3273164,3.84411282 51.785879,4.24185641 C51.7999995,4.65395897 51.6333778,5.27390769 51.1465742,5.22688205 C50.8680477,5.08365128 50.5203308,4.97236923 50.1870875,4.97236923 C49.7694742,4.97236923 49.4775333,5.22688205 49.4775333,5.6070359 C49.4775333,5.94052308 49.7006369,6.13257436 49.9918718,6.32211282 C50.2566308,6.49729231 50.8126248,6.78339487 51.1328067,6.97401026 C51.8275345,7.41842051 52.105708,8.02221538 52.105708,8.72113846 C52.105708,10.2930872 50.8825212,11.0559077 49.617326,11.0559077 C49.0743935,11.0559077 48.4908646,10.8814462 48.1152598,10.6114974 C47.9341646,10.4689846 47.8091983,10.2783692 47.8091983,10.0392923 C47.8233188,9.7061641 47.97582,9.35652308 48.1710357,9.18206154 C48.5741754,9.46708718 49.1725308,9.75318974 49.7278188,9.75318974 C50.2287429,9.75318974 50.5203308,9.48324103 50.5203308,9.08729231 C50.5203308,8.80047179 50.3819501,8.59370256 49.9784573,8.35606154 C49.6310935,8.13313846 49.2685501,7.94288205 48.9215393,7.71924103 C48.3517778,7.35488205 47.9482851,6.75108718 47.9482851,5.90965128 C47.9482851,4.49565128 49.0189706,3.68508718 50.2146224,3.68508718 L50.2287429,3.68508718 Z" id="Fill-13"></path>
            <path d="M55.0954023,10.4838462 C55.0954023,10.7699487 54.997971,10.85 54.6915565,10.8966667 C54.413736,10.9444103 53.9131649,10.9612821 53.3705854,10.9612821 C53.3847059,10.3101026 53.4125939,9.38717949 53.4125939,8.46676923 L53.4125939,5.74969231 C53.4125939,4.78153846 53.3847059,4.28938462 53.356818,3.97025641 C53.6766469,3.85969231 54.5531758,3.78035897 54.8447637,3.78035897 C55.0392734,3.78035897 55.0954023,3.85969231 55.0954023,4.78153846 L55.0954023,10.4838462 Z M54.2887698,0.349282051 C54.8168758,0.349282051 55.1367047,0.794410256 55.1367047,1.38205128 C55.1367047,1.98476923 54.7610999,2.46292308 54.2333469,2.46292308 C53.8016131,2.46292308 53.356818,2.16030769 53.356818,1.4294359 C53.356818,0.651179487 53.9269324,0.349282051 54.2746493,0.349282051 L54.2887698,0.349282051 Z" id="Fill-15"></path>
            <path d="M60.7398178,9.43567692 C60.8090082,9.81690769 60.7542913,10.3101385 60.5032998,10.5477795 C60.1700564,10.8812667 59.5858214,11.0560872 58.9740516,11.0560872 C57.5552961,11.0560872 57.0967335,10.0240359 57.0967335,8.92736923 L57.0967335,5.13085641 C56.5823949,5.13085641 56.3183419,4.8440359 56.3183419,4.68572821 C56.5124986,4.22480513 57.639313,3.08218974 57.8754781,2.85998462 C58.1119961,2.63706154 58.3760492,2.44536923 58.9182757,2.38254872 C58.8628528,2.85998462 58.8349648,3.43039487 58.8349648,3.87588205 L60.892672,3.87588205 C60.7260504,4.97218974 60.4203419,5.01921538 60.1421684,5.05080513 C59.8219865,5.08383077 59.3771913,5.11542051 58.7933094,5.11542051 C58.7375335,6.41813846 58.751654,7.95849744 58.8070769,8.62583077 C58.8769733,9.40480513 59.251872,9.69090769 59.7249082,9.69090769 C60.1421684,9.69090769 60.5315407,9.53044615 60.6985154,9.40480513 L60.7398178,9.43567692 Z" id="Fill-17"></path>
            <path d="M62.0880767,13.4545026 C62.50569,12.930759 63.3398575,11.6118872 63.854196,10.5001436 C63.7850057,10.3885026 63.6317984,10.0553744 63.5484876,9.80157949 C63.2844346,9.03947692 62.0750153,5.38475897 61.5458502,4.11398974 C61.9355755,3.89178462 62.6168888,3.68501538 62.9642527,3.68501538 C63.2145382,3.68501538 63.2844346,3.87563077 63.3818659,4.12942564 C63.7295828,5.16219487 64.3967755,7.3864 64.7296659,8.57891282 C65.230943,7.13188718 65.8289454,4.81327179 66.0096876,3.68501538 C66.2875081,3.70188718 66.6218105,3.74891282 66.9691743,3.85947692 C67.3027707,3.95568205 67.3447792,4.16245128 67.2607623,4.54332308 C66.899984,6.19424615 66.3295165,8.21275897 65.523237,10.1354256 C64.6332936,12.2472718 63.5347201,14.1064 63.2145382,14.1064 C62.7277346,14.1064 62.241284,13.756759 62.0880767,13.5184 L62.0880767,13.4545026 Z" id="Fill-19"></path>
            <path d="M72.9552702,8.69881026 C73.4039486,8.48916923 73.9031076,7.25393846 73.9031076,5.65722051 C73.8928702,4.74937436 73.6076365,4.34050256 73.2200293,4.34050256 C73.1278931,4.34050256 73.0159883,4.36455385 72.9242052,4.41157949 C72.6079064,4.57419487 71.9661305,5.55275897 71.9661305,7.41655385 C71.9661305,8.30214359 72.2820763,8.75624615 72.6693305,8.75624615 C72.7914727,8.75624615 72.8634871,8.73398974 72.9552702,8.69881026 M70.8142522,7.38209231 C70.8142522,5.85573333 71.5485172,4.73752821 72.3435004,4.25937436 C72.7508763,4.01455385 73.1995546,3.85122051 73.5970461,3.85122051 C74.5452365,3.85122051 75.0549859,4.56234872 75.0549859,5.69311795 C75.0549859,6.70614359 74.6980907,7.80137436 73.9641787,8.51214359 C73.5257377,8.94434872 72.8938461,9.25845128 72.2820763,9.25845128 C71.1506727,9.25845128 70.8142522,8.29065641 70.8142522,7.38209231" id="Fill-21"></path>
            <path d="M76.7074,4.05037949 C76.8906133,3.12925128 77.1359566,2.39443077 77.614641,1.83622564 C78.1452181,1.21771282 78.786641,0.891764103 79.1947229,0.891764103 C79.6426952,0.891764103 79.8979229,1.20658462 79.8883916,1.46253333 C79.8770952,1.7192 79.6843506,1.96402051 79.5519711,2.06884103 C79.4594819,2.12807179 79.3684048,2.13848205 79.2858,2.03402051 C79.0319843,1.69658462 78.8071157,1.49843077 78.6030747,1.49843077 C78.348553,1.48694359 78.113447,1.81253333 77.7982072,4.05037949 L78.9705602,4.05037949 L78.7463976,4.48078974 L77.7064241,4.58525128 C77.5330952,5.72750769 77.410247,6.62494359 77.145841,7.94166154 C76.7684711,9.88658462 76.3300301,10.6906872 75.6773108,11.3673538 C75.2388699,11.8214564 74.8413783,12.0192513 74.5455542,12.0192513 C74.2296084,12.0192513 73.8734193,11.7633026 73.8833036,11.4829436 C73.8833036,11.2503282 74.0456892,11.0173538 74.2094867,10.8780718 C74.2910325,10.8077128 74.3521036,10.7958667 74.423412,10.8540205 C74.6069783,11.0636615 74.9642265,11.2262769 75.1682675,11.2262769 C75.331359,11.2262769 75.4527952,11.1343795 75.534694,10.9592 C75.6165928,10.7958667 75.769094,10.3536103 76.0649181,8.36022564 C76.3099084,6.75309744 76.442288,5.72750769 76.6156169,4.58525128 L75.7895687,4.58525128 L75.7486193,4.45709744 L76.0850398,4.05037949 L76.7074,4.05037949 Z" id="Fill-23"></path>
            <path d="M89.2693337,9.30877949 C89.2280313,9.84867692 89.0472892,10.309959 88.8100651,10.5637538 C88.4627012,10.8182667 87.725612,11.1036513 86.7940133,11.1036513 C83.6239651,11.1036513 81.9132687,9.03954872 81.9132687,6.00442051 C81.9132687,2.71693333 84.0970012,0.698420513 86.8494361,0.698420513 C88.1711133,0.698420513 89.1867289,1.20672821 89.4087735,1.49354872 C89.4363084,2.03308718 89.1161265,2.57370256 88.6716843,2.49401026 C88.2544241,2.28688205 87.6006458,2.06467692 86.8353157,2.06467692 C85.1539193,2.06467692 83.7768193,3.31965128 83.7768193,5.86118974 C83.7768193,8.02221538 84.9862386,9.67421538 87.197506,9.67421538 C88.1291048,9.67421538 88.866547,9.40498462 89.2280313,9.27647179 L89.2693337,9.30877949 Z" id="Fill-25"></path>
            <path d="M91.8272943,8.81658974 C91.8272943,9.37192308 92.2021931,9.69105128 92.6476943,9.69105128 C93.0367136,9.69105128 93.2594642,9.51551282 93.4536208,9.2764359 C93.5235172,9.18202564 93.5655257,9.02192308 93.5655257,8.73653846 L93.5655257,7.60935897 C92.3554004,7.76838462 91.8272943,8.27669231 91.8272943,8.8004359 L91.8272943,8.81658974 Z M95.8869329,9.7215641 C95.9014064,10.5637179 95.5120341,11.0558718 94.718816,11.0558718 C94.1494076,11.0558718 93.7745088,10.7231026 93.5930606,10.1670513 C93.2312233,10.6114615 92.6194534,11.0558718 91.9522606,11.0558718 C91.0344293,11.0558718 90.2140293,10.2614615 90.2140293,9.08725641 C90.2140293,7.44925641 91.8823642,7.0055641 92.8697389,6.75105128 C93.1207305,6.68787179 93.4253799,6.64084615 93.5930606,6.59202564 L93.5930606,6.32207692 C93.5930606,5.65510256 93.1895678,5.11520513 92.4948401,5.11520513 C91.994269,5.11520513 91.5074654,5.369 91.201404,5.57541026 C90.6178751,5.76602564 90.4223064,5.19382051 90.4223064,4.71853846 C91.0206618,4.22494872 92.0080365,3.68505128 92.9399883,3.68505128 C94.19071,3.68505128 95.2056196,4.63776923 95.2056196,6.36982051 C95.2056196,7.021 95.1505498,8.22823077 95.1505498,9.261 C95.1505498,9.46705128 95.3175245,9.69105128 95.6511208,9.69105128 C95.7199582,9.69105128 95.8180955,9.67417949 95.8869329,9.65874359 L95.8869329,9.7215641 Z" id="Fill-27"></path>
            <path d="M97.1789923,2.06478462 C97.1789923,1.12822051 97.1528694,0.698169231 97.1239224,0.380835897 C97.4024489,0.237605128 98.3054537,0.0954512821 98.5981007,0.0954512821 C98.8067308,0.0954512821 98.8628598,0.174425641 98.8628598,1.12822051 L98.8628598,8.76827179 C98.8628598,9.5479641 98.8903947,10.403759 98.9179296,10.8654 C98.6263417,10.9443744 97.5690706,10.9921179 97.374914,10.9921179 C97.2354742,10.9921179 97.1789923,10.9443744 97.1789923,10.7867846 L97.1789923,2.06478462 Z" id="Fill-29"></path>
            <path d="M102.421786,10.4838462 C102.421786,10.7699487 102.324708,10.85 102.018293,10.8966667 C101.740473,10.9444103 101.239902,10.9612821 100.696616,10.9612821 C100.71109,10.3101026 100.739331,9.38717949 100.739331,8.46676923 L100.739331,5.74969231 C100.739331,4.78153846 100.71109,4.28938462 100.682849,3.97025641 C101.002678,3.85969231 101.879207,3.78035897 102.170794,3.78035897 C102.365304,3.78035897 102.421786,3.85969231 102.421786,4.78153846 L102.421786,10.4838462 Z M101.615153,0.349282051 C102.14326,0.349282051 102.463088,0.794410256 102.463088,1.38205128 C102.463088,1.98476923 102.08819,2.46292308 101.559378,2.46292308 C101.12835,2.46292308 100.682849,2.16030769 100.682849,1.4294359 C100.682849,0.651179487 101.252963,0.349282051 101.601386,0.349282051 L101.615153,0.349282051 Z" id="Fill-31"></path>
            <path d="M107.163303,0 C107.553028,0 107.927221,0.142871795 108.122436,0.365435897 C108.205747,0.762102564 107.913453,1.46030769 107.538201,1.4294359 C107.427356,1.38205128 107.274148,1.35046154 107.163303,1.35046154 C106.481283,1.35046154 106.13392,2.08025641 106.175222,3.87584615 C106.369732,3.87584615 107.50996,3.892 107.84391,3.84425641 C107.802607,4.368 107.59433,4.7334359 107.413588,4.87630769 C107.232846,5.03533333 106.746042,5.09779487 106.13392,5.09779487 C106.13392,6.43353846 106.188989,9.96082051 106.188989,10.8338462 C105.743841,10.9121026 104.840483,10.9612821 104.645974,10.9612821 C104.506887,10.9612821 104.423223,10.9296923 104.423223,10.6906154 C104.465232,8.97507692 104.451464,7.05312821 104.451464,5.09779487 C103.908885,5.05076923 103.644832,4.87630769 103.644832,4.52702564 C103.880644,4.21041026 104.1041,4.11420513 104.451464,3.87584615 C104.451464,2.2554359 104.854251,1.35046154 105.425071,0.730512821 C106.0086,0.127076923 106.620723,0 107.148829,0 L107.163303,0 Z" id="Fill-33"></path>
            <path d="M111.014029,4.86087179 C110.166094,4.86087179 109.706825,5.86133333 109.706825,7.22794872 C109.706825,9.03969231 110.374724,9.88005128 111.167236,9.88005128 C112.028938,9.88005128 112.459966,8.91117949 112.459966,7.4494359 C112.459966,6.10041026 112.043412,4.86087179 111.027796,4.86087179 L111.014029,4.86087179 Z M111.167236,3.68523077 C113.169167,3.68523077 114.226438,5.30528205 114.226438,7.27497436 C114.226438,9.49953846 112.961243,11.0560513 111.014029,11.0560513 C109.220021,11.0560513 107.941059,9.69087179 107.941059,7.43471795 C107.941059,5.27369231 109.290271,3.68523077 111.153468,3.68523077 L111.167236,3.68523077 Z" id="Fill-35"></path>
            <path d="M115.40737,4.51101538 C115.518215,4.14557949 116.047027,3.68501538 116.422279,3.68501538 C117.034402,3.68501538 117.283982,4.35270769 117.297749,5.33773333 C117.701948,4.25722051 118.28583,3.68501538 119.022919,3.68501538 C119.286266,3.68501538 119.551025,3.82824615 119.676697,3.95568205 C119.745535,4.12978462 119.731767,4.58963077 119.592327,4.89224615 C119.537257,5.22681026 119.258731,5.6069641 119.050454,5.63927179 C118.771927,5.51291282 118.619073,5.48060513 118.383261,5.48060513 C118.161217,5.48060513 117.757018,5.67122051 117.534973,6.33747692 C117.450956,6.59198974 117.409654,6.76645128 117.409654,7.11645128 L117.409654,10.4362462 C117.409654,10.690759 117.382119,10.8181949 117.103592,10.8813744 C116.616789,10.9445538 116.186467,10.9614256 115.684484,10.9614256 C115.713431,10.1185538 115.727198,9.1504 115.727198,8.06988718 L115.727198,5.38475897 C115.727198,5.01932308 115.643182,4.73322051 115.40737,4.57491282 L115.40737,4.51101538 Z" id="Fill-37"></path>
            <path d="M124.861491,6.57651795 C124.861491,5.65538974 124.431169,5.13092821 123.819047,5.13092821 C123.276467,5.13092821 122.929456,5.41703077 122.622689,5.71821026 L122.622689,10.4692359 C122.622689,10.7546205 122.581386,10.8335949 122.303566,10.8651846 C121.83053,10.9445179 121.400208,10.9613897 120.898931,10.9613897 C120.926819,10.1185179 120.940586,9.1503641 120.940586,8.06985128 L120.940586,5.46369744 C120.940586,4.98769744 120.884457,4.75005641 120.676533,4.60718462 L120.676533,4.49554359 C120.81562,4.09887692 121.288656,3.68497949 121.719684,3.68497949 C122.248496,3.68497949 122.456773,4.25718462 122.539378,4.75005641 C123.110198,4.17713333 123.777744,3.68497949 124.473178,3.68497949 C126.237532,3.68497949 126.545359,5.35313333 126.545359,6.59195385 L126.545359,8.59359487 C126.545359,9.41959487 126.55842,10.2933385 126.600428,10.8335949 C126.279893,10.8651846 125.724606,10.9613897 125.140018,10.9613897 C124.931034,10.9613897 124.861491,10.8651846 124.861491,10.6584154 L124.861491,6.57651795 Z" id="Fill-39"></path>
            <path d="M130.144952,10.4838462 C130.144952,10.7699487 130.047873,10.85 129.741459,10.8966667 C129.463639,10.9444103 128.963067,10.9612821 128.421194,10.9612821 C128.434255,10.3101026 128.462496,9.38717949 128.462496,8.46676923 L128.462496,5.74969231 C128.462496,4.78153846 128.434255,4.28938462 128.40672,3.97025641 C128.726549,3.85969231 129.602372,3.78035897 129.894666,3.78035897 C130.089882,3.78035897 130.144952,3.85969231 130.144952,4.78153846 L130.144952,10.4838462 Z M129.339025,0.349282051 C129.867131,0.349282051 130.186254,0.794410256 130.186254,1.38205128 C130.186254,1.98476923 129.812061,2.46292308 129.283955,2.46292308 C128.852222,2.46292308 128.40672,2.16030769 128.40672,1.4294359 C128.40672,0.651179487 128.976835,0.349282051 129.325258,0.349282051 L129.339025,0.349282051 Z" id="Fill-41"></path>
            <path d="M133.135211,8.81658974 C133.135211,9.37192308 133.51011,9.69105128 133.954905,9.69105128 C134.34463,9.69105128 134.566675,9.51551282 134.761537,9.2764359 C134.831434,9.18202564 134.872736,9.02192308 134.872736,8.73653846 L134.872736,7.60935897 C133.663317,7.76838462 133.135211,8.27669231 133.135211,8.8004359 L133.135211,8.81658974 Z M137.19485,9.7215641 C137.208617,10.5637179 136.819951,11.0558718 136.026733,11.0558718 C135.457324,11.0558718 135.081719,10.7231026 134.900271,10.1670513 C134.53914,10.6114615 133.92737,11.0558718 133.259471,11.0558718 C132.342346,11.0558718 131.521946,10.2614615 131.521946,9.08725641 C131.521946,7.44925641 133.190281,7.0055641 134.177656,6.75105128 C134.427941,6.68787179 134.733297,6.64084615 134.900271,6.59202564 L134.900271,6.32207692 C134.900271,5.65510256 134.497484,5.11520513 133.802051,5.11520513 C133.30148,5.11520513 132.815382,5.369 132.509321,5.57541026 C131.92438,5.76602564 131.730223,5.19382051 131.730223,4.71853846 C132.328578,4.22494872 133.314541,3.68505128 134.246493,3.68505128 C135.498627,3.68505128 136.513536,4.63776923 136.513536,6.36982051 C136.513536,7.021 136.458466,8.22823077 136.458466,9.261 C136.458466,9.46705128 136.625441,9.69105128 136.957625,9.69105128 C137.027875,9.69105128 137.125306,9.67417949 137.19485,9.65874359 L137.19485,9.7215641 Z" id="Fill-43"></path>
            <path d="M12.9764758,19.5549846 L12.9485878,19.5549846 C12.6764155,20.3996513 12.4236589,21.2532923 12.161018,22.0760615 L13.7174481,22.0760615 L12.9764758,19.5549846 Z M13.8205276,25.0469333 L13.8205276,24.6958564 C14.3825228,24.5971385 14.4386517,24.4765231 14.3076842,24.015959 C14.2046047,23.6544718 14.0453963,23.1389846 13.8766565,22.6130872 L12.0113408,22.6130872 C11.8891987,23.0190872 11.7578782,23.4354974 11.6456204,23.8734462 C11.4864119,24.4661128 11.5330095,24.5971385 12.2174999,24.6958564 L12.2174999,25.0469333 L10.1453192,25.0469333 L10.1453192,24.6958564 C10.754971,24.5971385 10.8764071,24.4987795 11.19553,23.5557538 L13.1169746,17.8889846 L13.5299987,17.7561641 C14.1297661,19.6648308 14.7203553,21.6370359 15.3296541,23.5227282 C15.6388927,24.4883692 15.7610348,24.6075487 16.3608023,24.6958564 L16.3608023,25.0469333 L13.8205276,25.0469333 Z" id="Fill-45"></path>
            <path d="M18.6595108,20.4646615 C18.340741,20.4646615 18.0315024,20.9036872 18.0315024,21.7253795 C18.0315024,22.5147641 18.2937904,23.1275333 18.7629434,23.1390205 C19.1470205,23.1275333 19.4001301,22.6899436 19.4001301,21.8675333 C19.4001301,21.1004051 19.1470205,20.4646615 18.6690422,20.4646615 L18.6595108,20.4646615 Z M18.781653,25.2436872 C18.3312096,25.2436872 18.1250506,25.2989692 17.9750205,25.4748667 C17.8062807,25.6608154 17.6844916,25.8690205 17.6844916,26.1321487 C17.6844916,26.6907128 18.1811795,27.1850205 18.9037952,27.1850205 C19.6811277,27.1850205 20.1125084,26.701841 20.1125084,26.0883538 C20.1125084,25.7049692 19.9158807,25.4526103 19.6246458,25.3535333 C19.3810675,25.2666615 19.1561988,25.2436872 18.7911843,25.2436872 L18.781653,25.2436872 Z M21.0779964,20.3225077 C21.0126892,20.5088154 20.8344181,20.8379949 20.6748566,20.9467641 L20.1411024,20.9036872 C20.2904265,21.1334308 20.393859,21.4180974 20.393859,21.7903538 C20.393859,22.9534308 19.5310976,23.5227641 18.6595108,23.5227641 C18.4999494,23.5227641 18.340741,23.4904564 18.1907108,23.4682 C18.106341,23.5554308 18.0124398,23.6983026 18.0124398,23.8300462 C18.0124398,24.0159949 18.1720012,24.2464564 18.6033819,24.2464564 C18.9221518,24.2464564 19.2126807,24.223841 19.512388,24.223841 C20.1033301,24.223841 20.918788,24.4331231 20.918788,25.5516872 C20.918788,26.7571231 19.7280783,27.7766103 18.4812398,27.7766103 C17.3283024,27.7766103 16.7751325,27.0536359 16.7751325,26.4387128 C16.7751325,26.1859949 16.8686807,26.0007641 17.0377735,25.8359949 C17.2534639,25.6170205 17.5439928,25.3969692 17.7688614,25.2113795 C17.403141,25.0577385 17.1973349,24.8384051 17.0748398,24.5971744 C16.9816446,24.4331231 16.934341,24.1915333 16.9534036,24.0608667 C17.3939627,23.8630718 17.6943759,23.566559 17.8631157,23.3583538 C17.347012,23.1390205 16.9721133,22.6016359 16.9721133,21.900559 C16.9721133,20.6617385 17.9379542,20.0924051 18.7347024,20.0924051 L18.7442337,20.0924051 C19.1004229,20.0924051 19.3810675,20.1792769 19.7093687,20.3770718 C20.1877,20.3551744 20.6748566,20.2891231 21.0313988,20.234559 L21.0779964,20.3225077 Z" id="Fill-47"></path>
            <path d="M23.1411047,21.2534359 C23.4602276,20.607641 23.8446577,20.0925128 24.2290878,20.0925128 C24.584924,20.0925128 24.8288553,20.3875897 24.8288553,20.7275385 C24.8288553,21.0455897 24.6505842,21.3306154 24.4257155,21.4293333 C24.3035734,21.4842564 24.2096722,21.4627179 24.1538963,21.3955897 C23.9943348,21.2430256 23.882077,21.1658462 23.7320469,21.1658462 C23.5258878,21.1658462 23.3006661,21.3747692 23.1227481,21.8787692 L23.1227481,23.9066154 C23.1227481,24.5969231 23.1696987,24.6525641 23.8916083,24.7175385 L23.8916083,25.0467179 L21.4731228,25.0467179 L21.4731228,24.7175385 C22.00723,24.6525641 22.0915999,24.5969231 22.0915999,23.9066154 L22.0915999,21.5492308 C22.0915999,20.9364615 22.035471,20.8919487 21.5567866,20.7817436 L21.5567866,20.4970769 C22.0820686,20.4105641 22.5886408,20.2788205 23.1227481,20.0706154 L23.1227481,21.2534359 L23.1411047,21.2534359 Z" id="Fill-49"></path>
            <path d="M25.7021718,18.611959 C25.7021718,18.2181641 25.9828164,17.9105231 26.3022923,17.9105231 C26.6390658,17.9105231 26.9017067,18.2181641 26.9017067,18.611959 C26.9017067,18.9842154 26.6390658,19.3029846 26.292761,19.3029846 C25.9828164,19.3029846 25.7021718,18.9842154 25.7021718,18.611959 L25.7021718,18.611959 Z M25.2333718,25.0469333 L25.2333718,24.7177538 C25.79572,24.6412923 25.8518489,24.5971385 25.8518489,23.8300103 L25.8518489,21.6262667 C25.8518489,20.9248308 25.79572,20.8803179 25.3078573,20.7938051 L25.3078573,20.4865231 C25.8426706,20.4107795 26.4046658,20.2675487 26.8833501,20.081241 L26.8833501,23.8300103 C26.8833501,24.5745231 26.9299477,24.6412923 27.5106525,24.7177538 L27.5106525,25.0469333 L25.2333718,25.0469333 Z" id="Fill-51"></path>
            <path d="M31.6363043,24.0158513 C31.214808,24.6961077 30.5959778,25.1789282 30.0332766,25.1789282 C28.7871441,25.1789282 28.0553501,24.0488769 28.0553501,22.8664154 C28.0553501,22.0440051 28.3928296,21.2869282 29.0021284,20.7499026 C29.5644766,20.2559538 30.1649501,20.0922615 30.5207863,20.0922615 L30.5299646,20.0922615 C30.8773284,20.0922615 31.18692,20.2128769 31.3457754,20.3665179 C31.4767429,20.4864154 31.5145152,20.5973385 31.5145152,20.7384154 C31.5053369,21.023441 31.2804682,21.2984154 31.1399694,21.2984154 C31.0831345,21.2984154 31.0270055,21.2646718 30.9429887,21.1770821 C30.5959778,20.8145179 30.2867393,20.6511846 29.9958573,20.6511846 C29.5365887,20.6511846 29.076967,21.1336462 29.076967,22.3056974 C29.076967,23.7857487 29.9676164,24.2689282 30.4177067,24.2689282 C30.8120212,24.2689282 31.0930188,24.1468769 31.4675646,23.7645692 L31.6363043,24.0158513 Z" id="Fill-53"></path>
            <path d="M36.8596118,24.7835897 C36.6153275,24.8281026 36.3530395,24.8823077 36.0625106,24.9594872 C35.7910443,25.0255385 35.5093407,25.1131282 35.2657624,25.1791795 L35.2004552,25.101641 L35.2004552,24.4009231 C35.0126528,24.5649744 34.871801,24.7175385 34.6465793,24.8711795 C34.37476,25.0686154 34.140713,25.1791795 33.8685407,25.1791795 C33.1374528,25.1791795 32.6594745,24.6414359 32.6594745,23.5892821 L32.6594745,21.3747692 C32.6594745,20.8381026 32.5941672,20.7817436 32.3594142,20.705641 L32.1250142,20.6399487 L32.1250142,20.3330256 C32.3505889,20.3226154 32.6128769,20.3007179 32.9129371,20.2676923 C33.203113,20.2346667 33.5031733,20.1793846 33.7188636,20.1470769 C33.700507,20.5634872 33.6909757,21.1005128 33.6909757,21.7800513 L33.6909757,23.3254359 C33.6909757,24.1367179 34.0471648,24.3887179 34.403001,24.3887179 C34.6843516,24.3887179 34.9466395,24.290359 35.2004552,24.0049744 L35.2004552,21.3747692 C35.2004552,20.8381026 35.1340889,20.7720513 34.8619166,20.705641 L34.5533841,20.6399487 L34.5533841,20.3330256 C34.8248504,20.3226154 35.1531516,20.3007179 35.4528588,20.2562051 C35.7628034,20.2346667 36.043448,20.1793846 36.2308973,20.1470769 L36.2308973,23.7425641 C36.2308973,24.3122564 36.2870263,24.4009231 36.6336841,24.444359 L36.8596118,24.4658974 L36.8596118,24.7835897 Z" id="Fill-55"></path>
            <path d="M37.2638106,25.0468615 L37.2638106,24.7176821 C37.8353371,24.6308103 37.891466,24.5748103 37.891466,23.8629641 L37.891466,18.7870667 C37.891466,18.096759 37.8448684,18.0640923 37.3012299,17.9973231 L37.3012299,17.6918359 C37.8166275,17.6261436 38.4725239,17.4613744 38.9226142,17.3073744 L38.9226142,23.8629641 C38.9226142,24.5970667 38.9886275,24.6523487 39.5696853,24.7176821 L39.5696853,25.0468615 L37.2638106,25.0468615 Z" id="Fill-57"></path>
            <path d="M41.9515635,25.0468615 C41.792002,25.1344513 41.6419719,25.1789641 41.5671334,25.1789641 C40.8925273,25.1789641 40.5077442,24.7722462 40.5077442,23.8195282 L40.5077442,20.7165538 L39.8987984,20.7165538 L39.8518478,20.5844513 L40.1137828,20.2236821 L40.5077442,20.2236821 L40.5077442,19.4235282 L41.4079249,18.6118872 L41.5297141,18.6664513 L41.5297141,20.2236821 L42.5043804,20.2236821 C42.6074599,20.3328103 42.5891033,20.6286051 42.4486045,20.7165538 L41.5297141,20.7165538 L41.5297141,23.4576821 C41.5297141,24.3235282 41.8671936,24.4441436 42.0737057,24.4441436 C42.260802,24.4441436 42.4298948,24.3773744 42.5795719,24.3019897 L42.6731201,24.6412205 L41.9515635,25.0468615 Z" id="Fill-59"></path>
            <path d="M47.7174858,24.7835897 C47.4735545,24.8281026 47.2112665,24.8823077 46.9210906,24.9594872 C46.6489183,25.0255385 46.3675677,25.1131282 46.1236364,25.1791795 L46.0579761,25.101641 L46.0579761,24.4009231 C45.8712328,24.5649744 45.730734,24.7175385 45.5051593,24.8711795 C45.232987,25.0686154 44.999293,25.1791795 44.7271207,25.1791795 C43.9960328,25.1791795 43.5180545,24.6414359 43.5180545,23.5892821 L43.5180545,21.3747692 C43.5180545,20.8381026 43.4520412,20.7817436 43.2176412,20.705641 L42.9832412,20.6399487 L42.9832412,20.3330256 C43.2088159,20.3226154 43.4711039,20.3007179 43.7711641,20.2676923 C44.061693,20.2346667 44.3617533,20.1793846 44.5774436,20.1470769 C44.558381,20.5634872 44.5495557,21.1005128 44.5495557,21.7800513 L44.5495557,23.3254359 C44.5495557,24.1367179 44.9053918,24.3887179 45.261581,24.3887179 C45.5429316,24.3887179 45.8055725,24.290359 46.0579761,24.0049744 L46.0579761,21.3747692 C46.0579761,20.8381026 45.9926689,20.7720513 45.7208496,20.705641 L45.4116111,20.6399487 L45.4116111,20.3330256 C45.6837834,20.3226154 46.0113786,20.3007179 46.3114388,20.2562051 C46.6206773,20.2346667 46.902028,20.1793846 47.0891243,20.1470769 L47.0891243,23.7425641 C47.0891243,24.3122564 47.1459593,24.4009231 47.4926171,24.444359 L47.7174858,24.4658974 L47.7174858,24.7835897 Z" id="Fill-61"></path>
            <path d="M49.8841678,21.2534359 C50.2029377,20.607641 50.5877208,20.0925128 50.972151,20.0925128 C51.3279871,20.0925128 51.5719184,20.3875897 51.5719184,20.7275385 C51.5719184,21.0455897 51.3932943,21.3306154 51.1691317,21.4293333 C51.0466365,21.4842564 50.9534413,21.4627179 50.8969594,21.3955897 C50.737398,21.2430256 50.6254931,21.1658462 50.475463,21.1658462 C50.268598,21.1658462 50.0437293,21.3747692 49.8658112,21.8787692 L49.8658112,23.9066154 C49.8658112,24.5969231 49.9131148,24.6525641 50.6346714,24.7175385 L50.6346714,25.0467179 L48.2158329,25.0467179 L48.2158329,24.7175385 C48.7502931,24.6525641 48.834663,24.5969231 48.834663,23.9066154 L48.834663,21.5492308 C48.834663,20.9364615 48.7781811,20.8919487 48.2998498,20.7817436 L48.2998498,20.4970769 C48.8254847,20.4105641 49.331704,20.2788205 49.8658112,20.0706154 L49.8658112,21.2534359 L49.8841678,21.2534359 Z" id="Fill-63"></path>
            <path d="M53.7854099,20.5200513 C53.4101581,20.5200513 53.0543219,21.0125641 52.969599,21.8787692 C53.4006267,21.8787692 53.8136508,21.867641 54.2446786,21.8464615 C54.3947087,21.8464615 54.4508376,21.8137949 54.4600159,21.6368205 C54.4600159,21.0674872 54.2072593,20.5200513 53.7945882,20.5200513 L53.7854099,20.5200513 Z M55.4449195,24.0272308 C54.872687,24.9594872 54.16984,25.1791795 53.8136508,25.1791795 C52.6042316,25.1791795 51.9197412,24.0929231 51.9197412,22.8325641 C51.9197412,22.0316923 52.1915605,21.3417436 52.5855219,20.8804615 C52.9886617,20.3875897 53.5044123,20.0925128 53.9912159,20.0925128 L54.0011002,20.0925128 C54.8352677,20.0925128 55.4819858,20.9364615 55.4819858,21.8137949 C55.4819858,22.0316923 55.4258569,22.1637949 55.2288761,22.1975385 C55.0601364,22.2291282 53.907199,22.3289231 52.9226484,22.371641 C52.9508894,23.6653846 53.5693665,24.2688205 54.2355002,24.2688205 C54.6008677,24.2688205 54.9567039,24.1148205 55.2853581,23.7644615 L55.4449195,24.0272308 Z" id="Fill-65"></path>
            <path d="M60.4522895,22.4159026 C60.2644871,22.5365179 60.0110245,22.690159 59.8147498,22.8100564 C59.4956269,22.9863128 59.3268871,23.1948769 59.3268871,23.5782615 C59.3268871,24.1698513 59.6830763,24.4110821 59.9270076,24.4110821 C60.0953943,24.4110821 60.2831967,24.3120051 60.4522895,24.1590821 L60.4522895,22.4159026 Z M61.2395064,25.1789282 C61.023816,25.1789282 60.8363666,25.0794923 60.7145775,24.9595949 C60.5927883,24.8160051 60.5271281,24.6734923 60.4805305,24.5205692 C60.114104,24.8059538 59.673898,25.1789282 59.4585606,25.1789282 C58.70841,25.1789282 58.23961,24.4764154 58.23961,23.7972359 C58.23961,23.2375949 58.47401,22.9418 58.970698,22.7332359 C59.5245739,22.5034923 60.2362461,22.2288769 60.4522895,22.0109795 L60.4522895,21.7360051 C60.4522895,21.0126718 60.1896486,20.6077487 59.7956871,20.6077487 C59.6551883,20.6077487 59.5333992,20.673441 59.4486763,20.8051846 C59.3364184,20.9577487 59.2524016,21.2101077 59.17721,21.5493385 C59.1210811,21.8020564 58.9989389,21.8788769 58.8206678,21.8788769 C58.6053305,21.8788769 58.3052702,21.6369282 58.3052702,21.3522615 C58.3052702,21.1770821 58.4178811,21.0352872 58.6236871,20.8705179 C58.94281,20.5973385 59.5891751,20.2128769 60.1236353,20.0922615 C60.4709992,20.0922615 60.7519967,20.1902615 60.9860437,20.3995436 C61.3616486,20.7384154 61.4551967,21.2101077 61.4551967,21.8020564 L61.4551967,23.698159 C61.4551967,24.2035949 61.6055799,24.3450308 61.7640823,24.3450308 C61.8773992,24.3450308 61.989657,24.3019538 62.0835582,24.2466718 L62.1862847,24.5747744 L61.2395064,25.1789282 Z" id="Fill-67"></path>
            <path d="M65.1967714,25.0468615 L65.1967714,24.7176821 C65.6468618,24.6523487 65.7029907,24.5970667 65.7029907,23.8195282 L65.7029907,21.9772718 C65.7029907,21.1993744 65.4124618,20.8705538 64.9810811,20.8705538 C64.6901992,20.8705538 64.4190859,21.0457333 64.1659763,21.2869641 L64.1659763,23.9064 C64.1659763,24.6074769 64.2221052,24.6523487 64.6623112,24.7176821 L64.6623112,25.0468615 L62.487404,25.0468615 L62.487404,24.7176821 C63.0875245,24.6308103 63.134122,24.5970667 63.134122,23.8733744 L63.134122,21.6039385 C63.134122,20.9251179 63.0875245,20.8920923 62.6095461,20.7815282 L62.6095461,20.4864513 C63.1062341,20.4107077 63.659051,20.2559897 64.1659763,20.0585538 L64.1659763,20.8920923 C64.3530727,20.7384513 64.540522,20.574041 64.7653907,20.4107077 C65.03721,20.2014256 65.243722,20.0922974 65.5155413,20.0922974 C66.2656919,20.0922974 66.7249606,20.7276821 66.7249606,21.8135795 L66.7249606,23.8959897 C66.7249606,24.6074769 66.7807365,24.6412205 67.2968401,24.7176821 L67.2968401,25.0468615 L65.1967714,25.0468615 Z" id="Fill-69"></path>
            <path d="M70.8604614,21.1005846 C70.6825434,20.7164821 70.3824831,20.5305333 70.0728916,20.5305333 C69.7724783,20.5305333 69.0325651,20.8704821 69.0325651,22.5034564 C69.0325651,23.8413538 69.7071711,24.4006359 70.2045651,24.4006359 C70.4290807,24.4006359 70.6451241,24.3119692 70.8604614,24.146841 L70.8604614,21.1005846 Z M72.5570373,24.7614051 C72.341347,24.8059179 71.5258892,24.9373026 70.8604614,25.1896615 L70.8604614,24.5205333 L70.2882289,24.9373026 C70.0072313,25.1343795 69.8286072,25.1788923 69.7255277,25.1788923 C68.9386639,25.1788923 67.8700964,24.4006359 67.8700964,22.7988923 C67.8700964,21.2983795 68.9947928,20.0922256 70.3824831,20.0922256 C70.4756783,20.0922256 70.6451241,20.1134051 70.8604614,20.1694051 L70.8604614,18.7647385 C70.8604614,18.1304308 70.8043325,18.0866359 70.1946807,18.0094564 L70.1946807,17.6917641 C70.7573819,17.6149436 71.4605819,17.4613026 71.8909036,17.3076615 L71.8909036,23.7088923 C71.8909036,24.3119692 71.9477386,24.3572 72.3229904,24.4110462 L72.5570373,24.4440718 L72.5570373,24.7614051 Z" id="Fill-71"></path>
            <path d="M81.6519692,18.2722615 C81.1457499,18.3060051 80.9395908,18.4589282 80.8922872,18.952159 C80.855927,19.2806205 80.8185077,19.7964667 80.8185077,20.7814923 L80.8185077,25.1566718 L80.4238402,25.1566718 L76.4863439,19.5879026 L76.4683402,19.5879026 L76.4683402,22.1639026 C76.4683402,23.1392359 76.5057595,23.6324667 76.5332945,23.9620051 C76.579892,24.4764154 76.7588692,24.6523128 77.4338282,24.6961077 L77.4338282,25.0468256 L75.1646667,25.0468256 L75.1646667,24.6961077 C75.6899487,24.6523128 75.9148173,24.4882615 75.962474,23.9939538 C75.9896559,23.6324667 76.0373125,23.1392359 76.0373125,22.1639026 L76.0373125,19.8294923 C76.0373125,19.0835436 76.0270752,18.9302615 75.8495101,18.6786205 C75.6617077,18.4040051 75.46508,18.3156974 75.0425246,18.2722615 L75.0425246,17.9219026 L76.6554366,17.9219026 L80.358886,22.9744667 L80.386068,22.9744667 L80.386068,20.7814923 C80.386068,19.7964667 80.3398234,19.2806205 80.3211137,18.9636462 C80.2642788,18.4915949 80.0676511,18.3156974 79.392692,18.2722615 L79.392692,17.9219026 L81.6519692,17.9219026 L81.6519692,18.2722615 Z" id="Fill-73"></path>
            <path d="M84.231993,22.4159026 C84.0448966,22.5365179 83.791787,22.690159 83.5948063,22.8100564 C83.2749773,22.9863128 83.1065906,23.1948769 83.1065906,23.5782615 C83.1065906,24.1698513 83.4638388,24.4110821 83.7070641,24.4110821 C83.8758039,24.4110821 84.0643123,24.3120051 84.231993,24.1590821 L84.231993,22.4159026 Z M85.0199159,25.1789282 C84.8042255,25.1789282 84.6167761,25.0794923 84.494634,24.9595949 C84.3731978,24.8160051 84.3071846,24.6734923 84.259881,24.5205692 C83.8941605,24.8059538 83.4543075,25.1789282 83.2389701,25.1789282 C82.4888195,25.1789282 82.0196665,24.4764154 82.0196665,23.7972359 C82.0196665,23.2375949 82.2540665,22.9418 82.7518135,22.7332359 C83.3039243,22.5034923 84.0163027,22.2288769 84.231993,22.0109795 L84.231993,21.7360051 C84.231993,21.0126718 83.969352,20.6077487 83.5757436,20.6077487 C83.4348918,20.6077487 83.3127496,20.673441 83.2287328,20.8051846 C83.1164749,20.9577487 83.0328111,21.2101077 82.9579725,21.5493385 C82.9007846,21.8020564 82.7786424,21.8788769 82.6014304,21.8788769 C82.385387,21.8788769 82.0860328,21.6369282 82.0860328,21.3522615 C82.0860328,21.1770821 82.1979376,21.0352872 82.4033906,20.8705179 C82.7235725,20.5973385 83.3688786,20.2128769 83.9036918,20.0922615 C84.2510557,20.0922615 84.5320533,20.1902615 84.7664533,20.3995436 C85.140646,20.7384154 85.2359593,21.2101077 85.2359593,21.8020564 L85.2359593,23.698159 C85.2359593,24.2035949 85.3849304,24.3450308 85.5444918,24.3450308 C85.6571027,24.3450308 85.7693605,24.3019538 85.8639677,24.2466718 L85.9666942,24.5747744 L85.0199159,25.1789282 Z" id="Fill-75"></path>
            <path d="M88.1982246,25.0468615 C88.0393692,25.1344513 87.888986,25.1789641 87.8141475,25.1789641 C87.1388354,25.1789641 86.7547583,24.7722462 86.7547583,23.8195282 L86.7547583,20.7165538 L86.1454595,20.7165538 L86.0992149,20.5844513 L86.3611499,20.2236821 L86.7547583,20.2236821 L86.7547583,19.4235282 L87.655292,18.6118872 L87.7774342,18.6664513 L87.7774342,20.2236821 L88.7513945,20.2236821 C88.854121,20.3328103 88.8357643,20.6286051 88.6956186,20.7165538 L87.7774342,20.7165538 L87.7774342,23.4576821 C87.7774342,24.3235282 88.1138547,24.4441436 88.3207198,24.4441436 C88.5081692,24.4441436 88.6765559,24.3773744 88.826586,24.3019897 L88.9197812,24.6412205 L88.1982246,25.0468615 Z" id="Fill-77"></path>
            <path d="M93.9653471,24.7835897 C93.7207098,24.8281026 93.4580688,24.8823077 93.1671869,24.9594872 C92.8964266,25.0255385 92.614723,25.1131282 92.3707917,25.1791795 L92.3061905,25.101641 L92.3061905,24.4009231 C92.1180351,24.5649744 91.9775363,24.7175385 91.7519616,24.8711795 C91.4804953,25.0686154 91.2460953,25.1791795 90.97357,25.1791795 C90.2435411,25.1791795 89.7645037,24.6414359 89.7645037,23.5892821 L89.7645037,21.3747692 C89.7645037,20.8381026 89.6988435,20.7817436 89.4651495,20.705641 L89.2307495,20.6399487 L89.2307495,20.3330256 C89.4556182,20.3226154 89.7179061,20.3007179 90.0179664,20.2676923 C90.3088483,20.2346667 90.6089086,20.1793846 90.8249519,20.1470769 C90.8051833,20.5634872 90.7956519,21.1005128 90.7956519,21.7800513 L90.7956519,23.3254359 C90.7956519,24.1367179 91.1525471,24.3887179 91.5083833,24.3887179 C91.7893808,24.3887179 92.0516688,24.290359 92.3061905,24.0049744 L92.3061905,21.3747692 C92.3061905,20.8381026 92.2398242,20.7720513 91.9672989,20.705641 L91.6587664,20.6399487 L91.6587664,20.3330256 C91.9298796,20.3226154 92.2588869,20.3007179 92.5585941,20.2562051 C92.8678327,20.2346667 93.1491833,20.1793846 93.3362796,20.1470769 L93.3362796,23.7425641 C93.3362796,24.3122564 93.3931146,24.4009231 93.7394194,24.444359 L93.9653471,24.4658974 L93.9653471,24.7835897 Z" id="Fill-79"></path>
            <path d="M96.1310054,21.2534359 C96.4494223,20.607641 96.8342054,20.0925128 97.2189886,20.0925128 C97.5758837,20.0925128 97.81805,20.3875897 97.81805,20.7275385 C97.81805,21.0455897 97.6404849,21.3306154 97.4163223,21.4293333 C97.2941801,21.4842564 97.1995729,21.4627179 97.143797,21.3955897 C96.9842355,21.2430256 96.8723307,21.1658462 96.7219476,21.1658462 C96.5157886,21.1658462 96.2909199,21.3747692 96.1130018,21.8787692 L96.1130018,23.9066154 C96.1130018,24.5969231 96.1606584,24.6525641 96.880803,24.7175385 L96.880803,25.0467179 L94.4626705,25.0467179 L94.4626705,24.7175385 C94.9967777,24.6525641 95.0807946,24.5969231 95.0807946,23.9066154 L95.0807946,21.5492308 C95.0807946,20.9364615 95.0253717,20.8919487 94.5466873,20.7817436 L94.5466873,20.4970769 C95.0726753,20.4105641 95.5781886,20.2788205 96.1130018,20.0706154 L96.1130018,21.2534359 L96.1310054,21.2534359 Z" id="Fill-81"></path>
            <path d="M100.51951,22.4159026 C100.332767,22.5365179 100.079657,22.690159 99.8823233,22.8100564 C99.5639064,22.9863128 99.3948136,23.1948769 99.3948136,23.5782615 C99.3948136,24.1698513 99.7510028,24.4110821 99.9949341,24.4110821 C100.163321,24.4110821 100.350417,24.3120051 100.51951,24.1590821 L100.51951,22.4159026 Z M101.306727,25.1789282 C101.091743,25.1789282 100.904646,25.0794923 100.782857,24.9595949 C100.660715,24.8160051 100.594702,24.6734923 100.547751,24.5205692 C100.182383,24.8059538 99.7418245,25.1789282 99.5261341,25.1789282 C98.7766895,25.1789282 98.3075365,24.4764154 98.3075365,23.7972359 C98.3075365,23.2375949 98.5419365,22.9418 99.0386245,22.7332359 C99.5914413,22.5034923 100.30382,22.2288769 100.51951,22.0109795 L100.51951,21.7360051 C100.51951,21.0126718 100.257222,20.6077487 99.8632606,20.6077487 C99.7234678,20.6077487 99.6013257,20.673441 99.5166028,20.8051846 C99.404698,20.9577487 99.319269,21.2101077 99.2447835,21.5493385 C99.1883016,21.8020564 99.0661594,21.8788769 98.8885943,21.8788769 C98.67361,21.8788769 98.3728437,21.6369282 98.3728437,21.3522615 C98.3728437,21.1770821 98.4851016,21.0352872 98.6916136,20.8705179 C99.0107365,20.5973385 99.6571016,20.2128769 100.190856,20.0922615 C100.53822,20.0922615 100.820629,20.1902615 101.05397,20.3995436 C101.428869,20.7384154 101.522064,21.2101077 101.522064,21.8020564 L101.522064,23.698159 C101.522064,24.2035949 101.673153,24.3450308 101.832362,24.3450308 C101.94462,24.3450308 102.056524,24.3019538 102.150779,24.2466718 L102.253858,24.5747744 L101.306727,25.1789282 Z" id="Fill-83"></path>
            <path d="M102.517629,25.0468615 L102.517629,24.7176821 C103.089155,24.6308103 103.145637,24.5748103 103.145637,23.8629641 L103.145637,18.7870667 C103.145637,18.096759 103.09904,18.0640923 102.554695,17.9973231 L102.554695,17.6918359 C103.070446,17.6261436 103.727048,17.4613744 104.176432,17.3073744 L104.176432,23.8629641 C104.176432,24.5970667 104.242799,24.6523487 104.823857,24.7176821 L104.823857,25.0468615 L102.517629,25.0468615 Z" id="Fill-85"></path>
            <path d="M109.727476,21.5608974 C110.158504,21.5608974 110.468802,21.4729487 110.683786,21.2647436 C111.012087,20.9466923 111.15188,20.5087436 111.15188,19.9394103 C111.15188,18.7648462 110.552818,18.3276154 109.953404,18.3276154 C109.709473,18.3276154 109.568268,18.3825385 109.503314,18.4371026 C109.438006,18.5020769 109.418944,18.6219744 109.418944,18.8761282 L109.418944,21.5608974 L109.727476,21.5608974 Z M113.223708,25.1452564 C113.149928,25.1452564 113.036964,25.1344872 112.934238,25.1344872 C111.921446,25.0795641 111.546547,24.7952564 111.15188,24.0931026 C110.88112,23.611359 110.590591,22.9863846 110.318418,22.4271026 C110.168741,22.098641 109.999649,21.9665385 109.634281,21.9665385 L109.418944,21.9665385 L109.418944,23.6214103 C109.418944,24.520641 109.503314,24.619 110.224517,24.6958205 L110.224517,25.0468974 L107.525034,25.0468974 L107.525034,24.6958205 C108.24765,24.619 108.350023,24.5310513 108.350023,23.6214103 L108.350023,19.3352564 C108.350023,18.4371026 108.2653,18.3495128 107.562453,18.2834615 L107.562453,17.9219744 L110.083312,17.9219744 C110.853232,17.9219744 111.322385,18.0303846 111.696577,18.3157692 C112.071123,18.6119231 112.324233,19.0940256 112.324233,19.7735641 C112.324233,20.7277179 111.790479,21.2647436 111.143408,21.5831538 C111.293791,21.9223846 111.650333,22.6557692 111.930271,23.1507949 C112.268457,23.7535128 112.464732,24.0816154 112.671597,24.3235641 C112.886581,24.6075128 113.064852,24.7392564 113.280896,24.8157179 L113.223708,25.1452564 Z" id="Fill-87"></path>
            <path d="M115.476313,20.5200513 C115.101414,20.5200513 114.745578,21.0125641 114.660502,21.8787692 C115.091883,21.8787692 115.504554,21.867641 115.935228,21.8464615 C116.085965,21.8464615 116.14174,21.8137949 116.150566,21.6368205 C116.150566,21.0674872 115.898162,20.5200513 115.485138,20.5200513 L115.476313,20.5200513 Z M117.135116,24.0272308 C116.563943,24.9594872 115.861096,25.1791795 115.504554,25.1791795 C114.295487,25.1791795 113.610644,24.0929231 113.610644,22.8325641 C113.610644,22.0316923 113.882816,21.3417436 114.276778,20.8804615 C114.679918,20.3875897 115.194609,20.0925128 115.682472,20.0925128 L115.691297,20.0925128 C116.525818,20.0925128 117.173242,20.9364615 117.173242,21.8137949 C117.173242,22.0316923 117.117113,22.1637949 116.920132,22.1975385 C116.750686,22.2291282 115.598102,22.3289231 114.61461,22.371641 C114.642145,23.6653846 115.260269,24.2688205 115.926403,24.2688205 C116.292124,24.2688205 116.647607,24.1148205 116.975908,23.7644615 L117.135116,24.0272308 Z" id="Fill-89"></path>
            <path d="M120.295774,21.5938513 C120.0702,20.9250821 119.761314,20.4864154 119.311224,20.4864154 C119.020342,20.4864154 118.786648,20.7613897 118.786648,21.1454923 C118.786648,21.5270821 119.058114,21.7905692 119.518089,22.0210308 C120.258355,22.3940051 120.755043,22.7777487 120.755043,23.599441 C120.755043,24.6526718 119.90146,25.1789282 119.12448,25.1789282 C118.636618,25.1789282 118.158993,24.9700051 117.979662,24.8059538 C117.914355,24.6411846 117.830338,23.8736974 117.830338,23.3919538 L118.092979,23.3582103 C118.28996,24.0607231 118.720635,24.7722103 119.284042,24.7722103 C119.6014,24.7722103 119.855215,24.4990308 119.855215,24.1145692 C119.855215,23.7423128 119.667766,23.4795436 119.133306,23.1722615 C118.654974,22.9094923 117.942596,22.5034923 117.942596,21.5938513 C117.942596,20.772159 118.52436,20.0922615 119.471138,20.0922615 C119.883456,20.0811333 120.13586,20.1794923 120.342372,20.2789282 C120.436273,20.5305692 120.539,21.2646718 120.567241,21.5059026 L120.295774,21.5938513 Z" id="Fill-91"></path>
            <path d="M123.502889,20.4864154 C123.053152,20.4864154 122.630949,21.1117487 122.630949,22.3613385 C122.630949,23.7207744 123.053152,24.7722103 123.709048,24.7722103 C124.150313,24.7722103 124.562278,24.4218513 124.562278,22.8427231 C124.562278,21.4068256 124.187732,20.4864154 123.511361,20.4864154 L123.502889,20.4864154 Z M123.642682,20.0922615 C124.88952,20.0922615 125.733925,21.2219538 125.733925,22.5476462 C125.733925,24.3120051 124.63747,25.1789282 123.606321,25.1789282 C122.200274,25.1789282 121.459655,23.9498 121.459655,22.7447231 C121.459655,20.9577487 122.659543,20.0922615 123.633503,20.0922615 L123.642682,20.0922615 Z" id="Fill-93"></path>
            <path d="M131.041602,24.7835897 C130.798024,24.8281026 130.534677,24.8823077 130.244854,24.9594872 C129.972682,25.0255385 129.690978,25.1131282 129.448106,25.1791795 L129.382093,25.101641 L129.382093,24.4009231 C129.19429,24.5649744 129.054145,24.7175385 128.827864,24.8711795 C128.556398,25.0686154 128.322351,25.1791795 128.050884,25.1791795 C127.31909,25.1791795 126.842171,24.6414359 126.842171,23.5892821 L126.842171,21.3747692 C126.842171,20.8381026 126.776158,20.7817436 126.541052,20.705641 L126.307711,20.6399487 L126.307711,20.3330256 C126.532227,20.3226154 126.794161,20.3007179 127.093869,20.2676923 C127.38581,20.2346667 127.685517,20.1793846 127.901913,20.1470769 C127.882498,20.5634872 127.87226,21.1005128 127.87226,21.7800513 L127.87226,23.3254359 C127.87226,24.1367179 128.228802,24.3887179 128.584639,24.3887179 C128.866695,24.3887179 129.129336,24.290359 129.382093,24.0049744 L129.382093,21.3747692 C129.382093,20.8381026 129.315727,20.7720513 129.04426,20.705641 L128.735022,20.6399487 L128.735022,20.3330256 C129.007194,20.3226154 129.334789,20.3007179 129.634496,20.2562051 C129.944088,20.2346667 130.225792,20.1793846 130.413594,20.1470769 L130.413594,23.7425641 C130.413594,24.3122564 130.469017,24.4009231 130.815675,24.444359 L131.041602,24.4658974 L131.041602,24.7835897 Z" id="Fill-95"></path>
            <path d="M133.207614,21.2534359 C133.526031,20.607641 133.910814,20.0925128 134.294891,20.0925128 C134.652139,20.0925128 134.895364,20.3875897 134.895364,20.7275385 C134.895364,21.0455897 134.71674,21.3306154 134.492225,21.4293333 C134.370082,21.4842564 134.276887,21.4627179 134.221111,21.3955897 C134.061197,21.2430256 133.948939,21.1658462 133.799262,21.1658462 C133.592044,21.1658462 133.367528,21.3747692 133.188904,21.8787692 L133.188904,23.9066154 C133.188904,24.5969231 133.236561,24.6525641 133.957764,24.7175385 L133.957764,25.0467179 L131.539632,25.0467179 L131.539632,24.7175385 C132.074092,24.6525641 132.157403,24.5969231 132.157403,23.9066154 L132.157403,21.5492308 C132.157403,20.9364615 132.101274,20.8919487 131.624002,20.7817436 L131.624002,20.4970769 C132.147872,20.4105641 132.655503,20.2788205 133.188904,20.0706154 L133.188904,21.2534359 L133.207614,21.2534359 Z" id="Fill-97"></path>
            <path d="M138.815104,24.0158513 C138.393255,24.6961077 137.774778,25.1789282 137.212077,25.1789282 C135.964885,25.1789282 135.233444,24.0488769 135.233444,22.8664154 C135.233444,22.0440051 135.571277,21.2869282 136.179869,20.7499026 C136.743277,20.2559538 137.34375,20.0922615 137.69888,20.0922615 L137.708411,20.0922615 C138.056128,20.0922615 138.365014,20.2128769 138.524222,20.3665179 C138.65519,20.4864154 138.692962,20.5973385 138.692962,20.7384154 C138.683431,21.023441 138.457856,21.2984154 138.318063,21.2984154 C138.262287,21.2984154 138.204746,21.2646718 138.121436,21.1770821 C137.774778,20.8145179 137.465186,20.6511846 137.174304,20.6511846 C136.715036,20.6511846 136.255767,21.1336462 136.255767,22.3056974 C136.255767,23.7857487 137.14571,24.2689282 137.59686,24.2689282 C137.990468,24.2689282 138.271113,24.1468769 138.646011,23.7645692 L138.815104,24.0158513 Z" id="Fill-99"></path>
            <path d="M141.150385,20.5200513 C140.775486,20.5200513 140.418238,21.0125641 140.333868,21.8787692 C140.765602,21.8787692 141.178626,21.867641 141.609653,21.8464615 C141.758625,21.8464615 141.815813,21.8137949 141.824638,21.6368205 C141.824638,21.0674872 141.571528,20.5200513 141.15921,20.5200513 L141.150385,20.5200513 Z M142.809188,24.0272308 C142.237662,24.9594872 141.535168,25.1791795 141.178626,25.1791795 C139.9685,25.1791795 139.284716,24.0929231 139.284716,22.8325641 C139.284716,22.0316923 139.556888,21.3417436 139.950144,20.8804615 C140.353284,20.3875897 140.869034,20.0925128 141.356544,20.0925128 L141.365369,20.0925128 C142.19989,20.0925128 142.847314,20.9364615 142.847314,21.8137949 C142.847314,22.0316923 142.791185,22.1637949 142.594204,22.1975385 C142.425111,22.2291282 141.272527,22.3289231 140.287976,22.371641 C140.316217,23.6653846 140.9354,24.2688205 141.600475,24.2688205 C141.964784,24.2688205 142.321679,24.1148205 142.64998,23.7644615 L142.809188,24.0272308 Z" id="Fill-101"></path>
            <path d="M145.969811,21.5938513 C145.744237,20.9250821 145.434645,20.4864154 144.985967,20.4864154 C144.694379,20.4864154 144.460685,20.7613897 144.460685,21.1454923 C144.460685,21.5270821 144.732151,21.7905692 145.192126,22.0210308 C145.932039,22.3940051 146.42908,22.7777487 146.42908,23.599441 C146.42908,24.6526718 145.576203,25.1789282 144.798517,25.1789282 C144.310302,25.1789282 143.832323,24.9700051 143.653699,24.8059538 C143.587686,24.6411846 143.504375,23.8736974 143.504375,23.3919538 L143.767016,23.3582103 C143.963997,24.0607231 144.395024,24.7722103 144.957726,24.7722103 C145.275437,24.7722103 145.528546,24.4990308 145.528546,24.1145692 C145.528546,23.7423128 145.341803,23.4795436 144.807343,23.1722615 C144.329011,22.9094923 143.616633,22.5034923 143.616633,21.5938513 C143.616633,20.772159 144.197691,20.0922615 145.144469,20.0922615 C145.557493,20.0811333 145.809897,20.1794923 146.016762,20.2789282 C146.109604,20.5305692 146.213037,21.2646718 146.24163,21.5059026 L145.969811,21.5938513 Z" id="Fill-103"></path>
            <polygon id="Fill-106" points="0 25.0201179 4.65305181 25.0201179 4.65305181 1.00042564 0 1.00042564"></polygon>
        </g>
    </g>
</svg>