<?xml version="1.0" encoding="UTF-8"?>
<svg width="230px" height="22px" viewBox="0 0 230 22" version="1.1" xmlns="http://www.w3.org/2000/svg" xmlns:xlink="http://www.w3.org/1999/xlink">
    <!-- Generator: Sketch 42 (36781) - http://www.bohemiancoding.com/sketch -->
    <title>Group 2</title>
    <desc>Created with Sketch.</desc>
    <defs></defs>
    <g id="Page-1" stroke="none" stroke-width="1" fill="none" fill-rule="evenodd" fill-opacity="0.4">
        <g id="Group-2" fill="#000000">
            <g id="Imported-Layers" transform="translate(0.000000, 1.000000)" fill-rule="nonzero">
                <path d="M93,16.4901414 L94.6885577,12.1152693 L94.9794566,12.3641141 C96.0134919,13.1921978 97.4184844,13.8967585 98.7428074,13.9243413 C99.9284035,13.9507248 100.506534,13.6419174 100.348862,12.6579309 C100.232747,11.9233889 99.3863294,11.7938697 98.8583114,11.6919333 L97.6996051,11.4652746 C95.4463614,11.0515326 93.5494077,9.68618391 93.5494077,7.10179535 C93.5494077,3.19103383 96.9827473,1 100.437476,1 C102.251316,1 103.917262,1.45331734 105.475038,2.44749744 L104.011376,6.32527953 C103.208349,5.7574336 101.99403,4.95813199 100.456422,4.90416564 C99.9510154,4.8849776 98.7904757,5.14581496 99.1626551,6.29889598 C99.3233829,6.78998977 100.040241,6.99626115 100.481478,7.10179535 L101.790523,7.41120243 C104.231995,7.97005397 106,9.33360375 106,12.1254629 C106,16.0554125 102.54466,18 99.1143757,18 C97.1098627,18 94.791839,17.4405488 93,16.4901414" id="Fill-1"></path>
                <polygon id="Fill-2" points="86 1 92 1 92 18 86 18"></polygon>
                <polyline id="Fill-3" points="79.0372638 1 85 1 78.9089938 18 74.0710396 18 68 1 73.9421646 1 76.4906218 11.2586207 79.0372638 1"></polyline>
                <path d="M53,18 L59.2394342,18 L59.7143501,15.8654154 L64.1652047,15.8654154 L64.7568214,18 L71,18 L65.1562251,1 L58.6109975,1 L53,18 L53,18 Z M61.9503866,5.90670013 L61.9503866,5.90670013 C62.0602226,6.63080169 63.134244,11.8330787 63.134244,11.8330787 L60.774018,11.8330787 L61.9503866,5.90670013 L61.9503866,5.90670013 Z" id="Fill-4"></path>
                <path d="M44.1083915,13.1192711 L44.5157857,13.1192711 C46.5155492,13.1192711 47.9988175,11.9419104 47.9988175,9.72384694 C47.9988175,7.33511567 46.6845611,6.0025462 44.4880375,6.0025462 L44.1083915,6.0025462 L44.1083915,13.1192711 L44.1083915,13.1192711 Z M38,1 L44.2156005,1 C49.7627212,1 54,3.49694457 54,9.74610796 C54,14.7795722 50.5466083,18 45.6950849,18 L38,17.9907246 L38,1 L38,1 Z" id="Fill-5"></path>
                <path d="M35.0874597,0.994731062 L35.4089462,3.8282099 C35.4840014,4.50078433 35.866783,6.11471177 35.3939352,5.89805614 C35.098718,5.76492283 34.8547885,5.03331759 34.6146119,4.38397869 C34.4907708,4.05302936 33.9053401,2.49373682 33.7521024,2.38007111 C33.0103067,1.82367434 31.1626975,1.19631499 29.9130281,1.19003512 C26.1214889,1.17559141 23.6146448,3.98332277 23.6146448,8.96703023 C23.6146448,12.5402781 25.3183981,16.8269197 29.6534622,16.8269197 C31.2058542,16.8269197 34.181168,16.3364616 34.9898879,14.1171543 C35.3564076,13.1130026 35.6916542,12.2200046 35.9337072,12.4919231 C36.1144652,12.6891111 35.8799177,13.4941909 35.7717131,13.9268742 C35.2607122,15.9835327 35.2338174,16.6077521 35.0718232,16.6868785 C33.1135076,17.6753305 30.6016597,18 28.4031674,18 C21.4130251,18 19,13.9048946 19,9.81167319 C19,2.70725251 23.3456969,-0.285735107 30.0819024,0.0213506983 C31.7862812,0.0847774188 33.4925364,0.389979262 35.0874597,0.994731062" id="Fill-6"></path>
                <path d="M14.3675026,1.86441089 L13.2879176,1.48558488 C12.9272517,1.15714759 13.3681325,1.06547656 13.3681325,1.06547656 C13.3681325,1.06547656 14.9278011,1.35748827 18.813704,1.02601551 C18.813704,1.02601551 19.1508481,1.09279574 18.9180438,1.36841594 L17.6430479,1.91783507 C16.8125515,2.28330503 16.8125515,2.07385796 16.8125515,2.98996123 L16.805314,11.4965477 C16.805314,18.1484652 10.0835404,17.9997275 8.7747698,17.9997275 C8.14993737,17.9997275 1.9842405,17.9997275 1.9842405,12.6591307 L1.9842405,3.65533511 C1.9842405,2.08539272 2.15130477,2.12606795 1.6332246,1.94272588 L0.0741591235,1.35384571 C0.0741591235,1.35384571 -0.190610604,0.976840985 0.2804262,1.0011247 C1.55542211,1.06547656 3.40036652,1.34048967 7.73981569,1.02601551 C7.73981569,1.02601551 8.11736888,1.11768655 7.8688834,1.39269966 L6.57157204,1.7599909 C5.58366131,2.20620422 5.71453837,1.86441089 5.68800109,2.88554124 L5.71936333,11.7642757 C5.71936333,13.940704 6.83211993,16.6361967 10.332629,16.6361967 C15.0966748,16.6361967 15.1419088,12.4879305 15.1419088,11.5657563 L15.1503525,2.77080067 C15.2010145,1.94272588 15.0966748,2.17827794 14.3675026,1.86441089" id="Fill-7"></path>
            </g>
            <g id="ANR" transform="translate(113.000000, 0.000000)">
                <path d="M9.47871976,4.90504103 C9.47871976,7.22632308 10.366792,7.60116923 11.1330716,7.60116923 C12.0329848,7.60116923 12.7882692,7.1764 12.7882692,4.79334872 L12.7882692,1.04827179 C12.7882692,0.810784615 12.8767945,0.761425641 13.0321366,0.736605128 C13.35438,0.699092308 13.7877029,0.6864 14.0092981,0.6864 C13.9873077,1.18534872 13.9760306,1.92150256 13.9760306,2.95775897 L13.9760306,4.73045128 C13.9760306,8.22563077 12.332674,8.72429744 10.9777294,8.72429744 C9.10121855,8.72429744 8.09050771,7.6384 8.09050771,4.95524615 L8.09050771,2.39619487 C8.09050771,1.55963077 8.0792306,1.04827179 8.05695831,0.785964103 C8.25684506,0.748169231 9.02340651,0.6864 9.24556554,0.6864 C9.44517036,0.6864 9.47871976,0.79865641 9.47871976,1.41014359 L9.47871976,4.90504103 Z" id="Fill-1"></path>
                <path d="M18.6510123,5.1672641 C18.6510123,4.44352051 18.3062147,4.03144359 17.8181978,4.03144359 C17.3848749,4.03144359 17.1068942,4.25623846 16.8627448,4.49287949 L16.8627448,8.22582821 C16.8627448,8.45005897 16.8291954,8.51211026 16.6073183,8.53693077 C16.2298171,8.5992641 15.8853014,8.61252051 15.4858099,8.61252051 C15.5078002,7.9502641 15.5193593,7.18957179 15.5193593,6.34059744 L15.5193593,4.29290513 C15.5193593,3.91890513 15.4748147,3.73218718 15.3081954,3.61993077 L15.3081954,3.53221282 C15.4192749,3.22054615 15.7967761,2.89534103 16.1410099,2.89534103 C16.5630557,2.89534103 16.7296749,3.34493077 16.7964918,3.73218718 C17.2515231,3.28203333 17.7843665,2.89534103 18.3397641,2.89534103 C19.7499665,2.89534103 19.9946798,4.20603333 19.9946798,5.17939231 L19.9946798,6.75211026 C19.9946798,7.40111026 20.0056749,8.08762308 20.0389424,8.51211026 C19.7837978,8.53693077 19.3391978,8.61252051 18.8726075,8.61252051 C18.7062701,8.61252051 18.6510123,8.53693077 18.6510123,8.37446923 L18.6510123,5.1672641 Z" id="Fill-3"></path>
                <path d="M22.8590089,8.23730769 C22.8590089,8.46210256 22.7814788,8.525 22.5370475,8.56166667 C22.3146065,8.59917949 21.9151149,8.6124359 21.481792,8.6124359 C21.4927872,8.10079487 21.5150595,7.37564103 21.5150595,6.65246154 L21.5150595,4.51761538 C21.5150595,3.75692308 21.4927872,3.37023077 21.4707969,3.11948718 C21.7259414,3.03261538 22.425968,2.97028205 22.6591222,2.97028205 C22.8147463,2.97028205 22.8590089,3.03261538 22.8590089,3.75692308 L22.8590089,8.23730769 Z M22.215086,0.274435897 C22.6368499,0.274435897 22.8925583,0.624179487 22.8925583,1.08589744 C22.8925583,1.55946154 22.5925872,1.93515385 22.1705414,1.93515385 C21.8263077,1.93515385 21.4707969,1.69738462 21.4707969,1.12312821 C21.4707969,0.511641026 21.9261101,0.274435897 22.2038089,0.274435897 L22.215086,0.274435897 Z" id="Fill-5"></path>
                <path d="M24.9134443,2.89542564 C25.0577913,2.89542564 25.1460347,3.00768205 25.2018564,3.18255385 C25.4575648,4.01911795 25.8900419,5.41668205 26.2903793,6.90252821 C26.7344154,5.46632308 27.2452684,3.91898974 27.5229672,2.89542564 C27.8339335,2.89542564 28.1003552,2.95775897 28.3670588,3.0948359 C28.5999311,3.20709231 28.5446733,3.48209231 28.3890492,3.93224615 C27.9227407,5.2294 27.2895311,6.92734872 26.8229407,8.23719487 C26.7566877,8.43716923 26.6568853,8.51219487 26.490266,8.5618359 C26.2120034,8.63657949 25.835066,8.68678462 25.6126251,8.68678462 C25.246119,7.46381026 24.8356323,6.28991282 24.3357745,4.81845128 C24.1133335,4.15647692 23.9469961,3.65668205 23.7581046,3.20709231 C24.013813,3.04519487 24.6021961,2.89542564 24.9021672,2.89542564 L24.9134443,2.89542564 Z" id="Fill-7"></path>
                <path d="M31.331726,3.76967179 C30.9203935,3.76967179 30.4763573,4.20600513 30.4318128,5.14241538 C30.887408,5.1793641 31.7422128,5.1672359 32.0083525,5.14241538 C32.0867284,5.14241538 32.1532634,5.01746667 32.1532634,4.88038974 C32.1642586,4.26890256 31.908832,3.76967179 31.3424393,3.76967179 L31.331726,3.76967179 Z M33.1969598,7.3018 C33.1969598,7.85067179 32.8084634,8.36287692 32.6192899,8.46215897 C32.4532345,8.54959487 31.975367,8.68695385 31.5865887,8.68695385 C29.9652224,8.68695385 29.0768682,7.68821026 29.0768682,5.85318462 C29.0768682,4.34308205 29.9542272,2.89531282 31.4535188,2.89531282 C32.8640031,2.89531282 33.4075598,4.04354359 33.4194007,5.04285128 C33.4194007,5.21800513 33.4075598,5.35451795 33.3858513,5.4543641 C33.3523019,5.64164615 32.9082658,5.8168 32.4532345,5.94118462 C32.1752537,6.01677436 31.0204778,6.02833846 30.4095405,6.00295385 C30.4650802,7.10238974 31.17582,7.56410769 31.9311043,7.56410769 C32.4642296,7.56410769 32.9860778,7.37569744 33.1752513,7.27669744 L33.1969598,7.3018 Z" id="Fill-9"></path>
                <path d="M34.2512002,3.54436923 C34.3402894,3.25724103 34.7620533,2.89536923 35.0620243,2.89536923 C35.550887,2.89536923 35.7504918,3.41998462 35.761487,4.19393333 C36.0837304,3.34495897 36.5500388,2.89536923 37.1387039,2.89536923 C37.3498677,2.89536923 37.5607496,3.00790769 37.660552,3.1080359 C37.7163737,3.24483077 37.7053786,3.60613846 37.5940171,3.84390769 C37.5494725,4.10677949 37.3273135,4.40547179 37.1606942,4.43085641 C36.9388171,4.33157436 36.8167424,4.30618974 36.6284147,4.30618974 C36.4502364,4.30618974 36.1282749,4.45595897 35.9500966,4.97944615 C35.8835617,5.17942051 35.8502942,5.31649744 35.8502942,5.59149744 L35.8502942,8.19990769 C35.8502942,8.39988205 35.8283039,8.50001026 35.6064267,8.54965128 C35.2179304,8.59929231 34.8728508,8.61254872 34.4733593,8.61254872 C34.4953496,7.95029231 34.5066267,7.1896 34.5066267,6.34062564 L34.5066267,4.23088205 C34.5066267,3.94375385 34.4400918,3.71895897 34.2512002,3.59457436 L34.2512002,3.54436923 Z" id="Fill-11"></path>
                <path d="M40.1144227,2.89542564 C40.5587407,2.89542564 40.9917817,3.02037436 41.3580058,3.33288718 C41.3692829,3.65668205 41.236213,4.14378462 40.8474347,4.1068359 C40.6249937,3.99429744 40.3472949,3.90686154 40.0811552,3.90686154 C39.7476347,3.90686154 39.5144805,4.1068359 39.5144805,4.40552821 C39.5144805,4.66755385 39.6926588,4.81845128 39.9252492,4.96737436 C40.1366949,5.10501538 40.5807311,5.32981026 40.8364395,5.47957949 C41.3912733,5.82875897 41.6134323,6.30316923 41.6134323,6.85232308 C41.6134323,8.08742564 40.6365528,8.68678462 39.6261239,8.68678462 C39.192519,8.68678462 38.7264925,8.54970769 38.4265214,8.33760513 C38.2818925,8.22563077 38.1820901,8.07586154 38.1820901,7.88801538 C38.1933672,7.62627179 38.31516,7.35155385 38.471066,7.21447692 C38.7930275,7.43842564 39.2708949,7.66322051 39.7143672,7.66322051 C40.1144227,7.66322051 40.3472949,7.45111795 40.3472949,7.14001538 C40.3472949,6.91465641 40.2367793,6.75219487 39.9145359,6.56547692 C39.637119,6.39032308 39.3475793,6.2408359 39.0704443,6.06511795 C38.615413,5.7788359 38.2931696,5.30442564 38.2931696,4.64329744 C38.2931696,3.53229744 39.1482564,2.89542564 40.1031455,2.89542564 L40.1144227,2.89542564 Z" id="Fill-13"></path>
                <path d="M44.0011063,8.23730769 C44.0011063,8.46210256 43.9232942,8.525 43.678581,8.56166667 C43.4567039,8.59917949 43.0569304,8.6124359 42.6236075,8.6124359 C42.6348846,8.10079487 42.6571569,7.37564103 42.6571569,6.65246154 L42.6571569,4.51761538 C42.6571569,3.75692308 42.6348846,3.37023077 42.6126123,3.11948718 C42.8680388,3.03261538 43.5680653,2.97028205 43.8009376,2.97028205 C43.9562798,2.97028205 44.0011063,3.03261538 44.0011063,3.75692308 L44.0011063,8.23730769 Z M43.3569014,0.274435897 C43.7786653,0.274435897 44.0340918,0.624179487 44.0340918,1.08589744 C44.0340918,1.55946154 43.7341207,1.93515385 43.3126388,1.93515385 C42.9678412,1.93515385 42.6126123,1.69738462 42.6126123,1.12312821 C42.6126123,0.511641026 43.0679255,0.274435897 43.3456243,0.274435897 L43.3569014,0.274435897 Z" id="Fill-15"></path>
                <path d="M48.508933,7.41374615 C48.5641908,7.71328462 48.520492,8.10082308 48.3200414,8.28754103 C48.0539017,8.54956667 47.5873113,8.68692564 47.0987306,8.68692564 C45.9656631,8.68692564 45.599439,7.87602821 45.599439,7.01436154 L45.599439,4.03138718 C45.1886704,4.03138718 44.9777884,3.80602821 44.9777884,3.68164359 C45.1328487,3.31948974 46.0327619,2.42172051 46.2213716,2.24713077 C46.4102631,2.07197692 46.6211451,1.92136154 47.054186,1.87200256 C47.0099234,2.24713077 46.9876511,2.69531026 46.9876511,3.0453359 L48.6310077,3.0453359 C48.4979378,3.90672051 48.2537884,3.94366923 48.0316294,3.96848974 C47.775921,3.99443846 47.420692,4.01925897 46.9543836,4.01925897 C46.909839,5.04282308 46.9211161,6.25310513 46.9653788,6.77743846 C47.0212005,7.38948974 47.3206077,7.61428462 47.6983908,7.61428462 C48.0316294,7.61428462 48.3425957,7.48820769 48.4759475,7.38948974 L48.508933,7.41374615 Z" id="Fill-17"></path>
                <path d="M49.5856995,10.5713949 C49.91922,10.1598821 50.5854152,9.12362564 50.9961839,8.25011282 C50.940926,8.16239487 50.8185694,7.90065128 50.7520345,7.70124103 C50.5411525,7.10244615 49.5752682,4.23088205 49.1526586,3.23242051 C49.4639067,3.05783077 50.0080272,2.89536923 50.2854441,2.89536923 C50.4853308,2.89536923 50.5411525,3.04513846 50.6189646,3.24454872 C50.8966634,4.05601026 51.4295067,5.8036 51.6953646,6.74057436 C52.0957019,5.60362564 52.5732875,3.78185641 52.7176345,2.89536923 C52.9395116,2.90862564 53.2064971,2.94557436 53.483914,3.03244615 C53.7503357,3.1080359 53.7838851,3.27049744 53.7167863,3.56975385 C53.4286561,4.86690769 52.973061,6.45288205 52.3291381,7.96354872 C51.6183983,9.62285641 50.7410393,11.0836 50.4853308,11.0836 C50.0965525,11.0836 49.7080561,10.8088821 49.5856995,10.6216 L49.5856995,10.5713949 Z" id="Fill-19"></path>
                <path d="M58.2646186,6.83477949 C58.6229487,6.67006154 59.0215945,5.69952308 59.0215945,4.44495897 C59.0134186,3.73165128 58.785621,3.41039487 58.4760643,3.41039487 C58.4024812,3.41039487 58.3131101,3.42929231 58.2398089,3.46624103 C57.9872017,3.59401026 57.4746571,4.36288205 57.4746571,5.82729231 C57.4746571,6.52311282 57.7269824,6.87990769 58.0362571,6.87990769 C58.1338041,6.87990769 58.1913173,6.86242051 58.2646186,6.83477949 M56.554727,5.80021538 C56.554727,4.60093333 57.1411366,3.72234359 57.7760378,3.34665128 C58.1013824,3.15429231 58.4597125,3.02595897 58.7771631,3.02595897 C59.534421,3.02595897 59.9415246,3.58470256 59.9415246,4.4731641 C59.9415246,5.26911282 59.6564957,6.12965128 59.070368,6.68811282 C58.7202137,7.02770256 58.2155631,7.27449744 57.7269824,7.27449744 C56.8234041,7.27449744 56.554727,6.51408718 56.554727,5.80021538" id="Fill-21"></path>
                <path d="M61.2612,3.18244103 C61.4075205,2.45869744 61.6034602,1.88133846 61.9857542,1.44274872 C62.4094916,0.956774359 62.9217542,0.700671795 63.2476627,0.700671795 C63.6054289,0.700671795 63.8092627,0.948030769 63.8016506,1.14913333 C63.7926289,1.3508 63.6386964,1.54315897 63.5329735,1.62551795 C63.4591084,1.67205641 63.3863711,1.6802359 63.3204,1.59815897 C63.117694,1.33303077 62.938106,1.17733846 62.7751518,1.17733846 C62.5718819,1.16831282 62.3841181,1.42413333 62.1323566,3.18244103 L63.0686386,3.18244103 L62.8896145,3.52062051 L62.0590554,3.60269744 C61.9206289,4.50018462 61.8225181,5.20531282 61.6113542,6.23987692 C61.3099735,7.76803077 60.9598193,8.39982564 60.4385349,8.93149231 C60.0883807,9.28828718 59.7709301,9.44369744 59.5346747,9.44369744 C59.2823494,9.44369744 58.9978843,9.24259487 59.0057783,9.02231282 C59.0057783,8.83954359 59.1354651,8.65649231 59.2662795,8.54705641 C59.3314048,8.49177436 59.3801783,8.48246667 59.4371277,8.52815897 C59.5837301,8.69287692 59.869041,8.82064615 60.0319952,8.82064615 C60.1622458,8.82064615 60.2592289,8.74844103 60.3246361,8.6108 C60.3900434,8.48246667 60.5118361,8.13497949 60.7480916,6.56874872 C60.9437494,5.30600513 61.0494723,4.50018462 61.1878988,3.60269744 L60.528188,3.60269744 L60.4954843,3.50200513 L60.7641614,3.18244103 L61.2612,3.18244103 Z" id="Fill-23"></path>
                <path d="M71.2935976,7.31404103 C71.260612,7.73824615 71.1162651,8.10068205 70.9268096,8.30009231 C70.6493928,8.50006667 70.0607277,8.72429744 69.3167205,8.72429744 C66.7850096,8.72429744 65.418788,7.10250256 65.418788,4.71775897 C65.418788,2.13473333 67.1627928,0.548758974 69.3609831,0.548758974 C70.4165205,0.548758974 71.2276265,0.94814359 71.404959,1.17350256 C71.4269494,1.59742564 71.171241,2.02219487 70.816294,1.95957949 C70.4830554,1.7968359 69.9609253,1.62224615 69.349706,1.62224615 C68.0068843,1.62224615 66.9070843,2.60829744 66.9070843,4.60522051 C66.9070843,6.30316923 67.8729687,7.60116923 69.6389639,7.60116923 C70.3829711,7.60116923 70.9719181,7.38963077 71.260612,7.28865641 L71.2935976,7.31404103 Z" id="Fill-25"></path>
                <path d="M73.336474,6.92732051 C73.336474,7.36365385 73.6358812,7.61439744 73.991674,7.61439744 C74.3023583,7.61439744 74.4802547,7.47647436 74.6353149,7.28862821 C74.6911366,7.21444872 74.724686,7.08865385 74.724686,6.86442308 L74.724686,5.97878205 C73.7582378,6.10373077 73.336474,6.50311538 73.336474,6.91462821 L73.336474,6.92732051 Z M76.5786427,7.63837179 C76.5902017,8.3000641 76.2792354,8.68675641 75.6457439,8.68675641 C75.1909945,8.68675641 74.8915872,8.42529487 74.7466764,7.98839744 C74.4577005,8.33757692 73.9691198,8.68675641 73.4362764,8.68675641 C72.7032643,8.68675641 72.0480643,8.06257692 72.0480643,7.13998718 C72.0480643,5.85298718 73.3804547,5.50437179 74.1690065,5.30439744 C74.3694571,5.25475641 74.6127607,5.21780769 74.7466764,5.17944872 L74.7466764,4.96734615 C74.7466764,4.44329487 74.424433,4.01908974 73.8695993,4.01908974 C73.4698258,4.01908974 73.0810475,4.2185 72.8366161,4.38067949 C72.3705896,4.53044872 72.2144017,4.08085897 72.2144017,3.70742308 C72.6922692,3.31960256 73.480821,2.89539744 74.2251101,2.89539744 C75.22398,2.89539744 76.0345222,3.64396154 76.0345222,5.00485897 C76.0345222,5.5165 75.9905414,6.46503846 75.9905414,7.2765 C75.9905414,7.43839744 76.1238933,7.61439744 76.3903149,7.61439744 C76.4452908,7.61439744 76.5236667,7.60114103 76.5786427,7.58901282 L76.5786427,7.63837179 Z" id="Fill-27"></path>
                <path d="M77.6105263,1.62233077 C77.6105263,0.886458974 77.5896636,0.548561538 77.5665455,0.299228205 C77.7889865,0.186689744 78.5101576,0.0749974359 78.7438757,0.0749974359 C78.9104949,0.0749974359 78.9553214,0.137048718 78.9553214,0.886458974 L78.9553214,6.88935641 C78.9553214,7.50197179 78.9773118,8.17438205 78.9993022,8.5371 C78.7664299,8.59915128 77.9220564,8.6366641 77.7669961,8.6366641 C77.6556347,8.6366641 77.6105263,8.59915128 77.6105263,8.47533077 L77.6105263,1.62233077 Z" id="Fill-29"></path>
                <path d="M81.7976039,8.23730769 C81.7976039,8.46210256 81.7200737,8.525 81.4753605,8.56166667 C81.2534834,8.59917949 80.8537099,8.6124359 80.4198231,8.6124359 C80.4313822,8.10079487 80.4539364,7.37564103 80.4539364,6.65246154 L80.4539364,4.51761538 C80.4539364,3.75692308 80.4313822,3.37023077 80.408828,3.11948718 C80.6642545,3.03261538 81.364281,2.97028205 81.5971533,2.97028205 C81.7524954,2.97028205 81.7976039,3.03261538 81.7976039,3.75692308 L81.7976039,8.23730769 Z M81.153399,0.274435897 C81.5751629,0.274435897 81.8305894,0.624179487 81.8305894,1.08589744 C81.8305894,1.55946154 81.5311822,1.93515385 81.1088545,1.93515385 C80.7646207,1.93515385 80.408828,1.69738462 80.408828,1.12312821 C80.408828,0.511641026 80.8641412,0.274435897 81.1424039,0.274435897 L81.153399,0.274435897 Z" id="Fill-31"></path>
                <path d="M85.5843441,0 C85.8955923,0 86.1944357,0.11225641 86.3503417,0.287128205 C86.4168766,0.598794872 86.1834405,1.14738462 85.8837513,1.12312821 C85.795226,1.08589744 85.6728694,1.06107692 85.5843441,1.06107692 C85.0396598,1.06107692 84.7622429,1.63448718 84.7952284,3.04530769 C84.9505706,3.04530769 85.8611971,3.058 86.1279007,3.02048718 C86.0949152,3.432 85.9285778,3.71912821 85.7842308,3.83138462 C85.6398839,3.95633333 85.2511055,4.00541026 84.7622429,4.00541026 C84.7622429,5.05492308 84.8062236,7.82635897 84.8062236,8.51230769 C84.4507128,8.57379487 83.7292598,8.6124359 83.5739176,8.6124359 C83.4628381,8.6124359 83.3960212,8.58761538 83.3960212,8.39976923 C83.4295706,7.05184615 83.4185754,5.54174359 83.4185754,4.00541026 C82.9852525,3.96846154 82.7743706,3.83138462 82.7743706,3.55694872 C82.9626983,3.30817949 83.1411586,3.23258974 83.4185754,3.04530769 C83.4185754,1.77212821 83.7402549,1.06107692 84.196132,0.573974359 C84.6621586,0.0998461538 85.1510212,0 85.5727851,0 L85.5843441,0 Z" id="Fill-33"></path>
                <path d="M88.659668,3.81925641 C87.9824776,3.81925641 87.6156896,4.60533333 87.6156896,5.67910256 C87.6156896,7.10261538 88.1490969,7.76289744 88.7820246,7.76289744 C89.4702101,7.76289744 89.8144439,7.00164103 89.8144439,5.85312821 C89.8144439,4.79317949 89.4817692,3.81925641 88.6706631,3.81925641 L88.659668,3.81925641 Z M88.7820246,2.89553846 C90.3808366,2.89553846 91.2252101,4.1684359 91.2252101,5.71605128 C91.2252101,7.46392308 90.2147812,8.68689744 88.659668,8.68689744 C87.2269113,8.68689744 86.2054872,7.61425641 86.2054872,5.8415641 C86.2054872,4.14361538 87.2830149,2.89553846 88.7710294,2.89553846 L88.7820246,2.89553846 Z" id="Fill-35"></path>
                <path d="M92.1683429,3.54436923 C92.2568682,3.25724103 92.6791959,2.89536923 92.9788851,2.89536923 C93.4677477,2.89536923 93.6670706,3.41998462 93.6780658,4.19393333 C94.000873,3.34495897 94.4671814,2.89536923 95.0558465,2.89536923 C95.2661646,2.89536923 95.4776104,3.00790769 95.5779766,3.1080359 C95.6329525,3.24483077 95.6219573,3.60613846 95.5105959,3.84390769 C95.4666152,4.10677949 95.2441742,4.40547179 95.0778369,4.43085641 C94.8553959,4.33157436 94.7333212,4.30618974 94.5449935,4.30618974 C94.367661,4.30618974 94.0448537,4.45595897 93.8675212,4.97944615 C93.8004224,5.17942051 93.7674369,5.31649744 93.7674369,5.59149744 L93.7674369,8.19990769 C93.7674369,8.39988205 93.7454465,8.50001026 93.5230055,8.54965128 C93.1342272,8.59929231 92.7905573,8.61254872 92.3896561,8.61254872 C92.4127742,7.95029231 92.4237694,7.1896 92.4237694,6.34062564 L92.4237694,4.23088205 C92.4237694,3.94375385 92.3566706,3.71895897 92.1683429,3.59457436 L92.1683429,3.54436923 Z" id="Fill-37"></path>
                <path d="M99.7187335,5.1672641 C99.7187335,4.44352051 99.3750636,4.03144359 98.886201,4.03144359 C98.4528781,4.03144359 98.1757431,4.25623846 97.930748,4.49287949 L97.930748,8.22582821 C97.930748,8.45005897 97.8977624,8.51211026 97.6758853,8.53693077 C97.2981022,8.5992641 96.9544323,8.61252051 96.5540949,8.61252051 C96.5763672,7.9502641 96.5873624,7.18957179 96.5873624,6.34059744 L96.5873624,4.29290513 C96.5873624,3.91890513 96.5425359,3.73218718 96.3764805,3.61993077 L96.3764805,3.53221282 C96.48756,3.22054615 96.8653431,2.89534103 97.2095769,2.89534103 C97.6319046,2.89534103 97.7982419,3.34493077 97.864213,3.73218718 C98.3200901,3.28203333 98.8532154,2.89534103 99.408613,2.89534103 C100.817688,2.89534103 101.063529,4.20603333 101.063529,5.17939231 L101.063529,6.75211026 C101.063529,7.40111026 101.07396,8.08762308 101.107509,8.51211026 C100.851519,8.53693077 100.408047,8.61252051 99.9411745,8.61252051 C99.7742733,8.61252051 99.7187335,8.53693077 99.7187335,8.37446923 L99.7187335,5.1672641 Z" id="Fill-39"></path>
                <path d="M103.938289,8.23730769 C103.938289,8.46210256 103.860759,8.525 103.616046,8.56166667 C103.394169,8.59917949 102.994395,8.6124359 102.561636,8.6124359 C102.572067,8.10079487 102.594622,7.37564103 102.594622,6.65246154 L102.594622,4.51761538 C102.594622,3.75692308 102.572067,3.37023077 102.550077,3.11948718 C102.805504,3.03261538 103.504966,2.97028205 103.738402,2.97028205 C103.894308,2.97028205 103.938289,3.03261538 103.938289,3.75692308 L103.938289,8.23730769 Z M103.294648,0.274435897 C103.716412,0.274435897 103.971275,0.624179487 103.971275,1.08589744 C103.971275,1.55946154 103.672431,1.93515385 103.250667,1.93515385 C102.90587,1.93515385 102.550077,1.69738462 102.550077,1.12312821 C102.550077,0.511641026 103.00539,0.274435897 103.283653,0.274435897 L103.294648,0.274435897 Z" id="Fill-41"></path>
                <path d="M106.326414,6.92732051 C106.326414,7.36365385 106.625821,7.61439744 106.98105,7.61439744 C107.292299,7.61439744 107.469631,7.47647436 107.625255,7.28862821 C107.681077,7.21444872 107.714062,7.08865385 107.714062,6.86442308 L107.714062,5.97878205 C106.748178,6.10373077 106.326414,6.50311538 106.326414,6.91462821 L106.326414,6.92732051 Z M109.568583,7.63837179 C109.579578,8.3000641 109.269176,8.68675641 108.635684,8.68675641 C108.180935,8.68675641 107.880964,8.42529487 107.736053,7.98839744 C107.447641,8.33757692 106.95906,8.68675641 106.425653,8.68675641 C105.693205,8.68675641 105.038005,8.06257692 105.038005,7.13998718 C105.038005,5.85298718 106.370395,5.50437179 107.158947,5.30439744 C107.358833,5.25475641 107.602701,5.21780769 107.736053,5.17944872 L107.736053,4.96734615 C107.736053,4.44329487 107.414373,4.01908974 106.858976,4.01908974 C106.459202,4.01908974 106.070988,4.2185 105.826556,4.38067949 C105.359402,4.53044872 105.204342,4.08085897 105.204342,3.70742308 C105.682209,3.31960256 106.469633,2.89539744 107.213923,2.89539744 C108.21392,2.89539744 109.024462,3.64396154 109.024462,5.00485897 C109.024462,5.5165 108.980482,6.46503846 108.980482,7.2765 C108.980482,7.43839744 109.113833,7.61439744 109.379127,7.61439744 C109.435231,7.61439744 109.513043,7.60114103 109.568583,7.58901282 L109.568583,7.63837179 Z" id="Fill-43"></path>
                <path d="M10.3634653,15.3646308 L10.341193,15.3646308 C10.1238267,16.0282974 9.92196651,16.6990154 9.71221229,17.3454769 L10.9552316,17.3454769 L10.3634653,15.3646308 Z M11.0375545,19.6797333 L11.0375545,19.4038872 C11.4863834,19.3263231 11.5312099,19.2315538 11.4266147,18.8696821 C11.3442918,18.5856564 11.2171424,18.1806308 11.082381,17.7674256 L9.59267494,17.7674256 C9.49512795,18.0864256 9.39025084,18.4136051 9.30059783,18.7577077 C9.17344843,19.2233744 9.21066289,19.3263231 9.75732072,19.4038872 L9.75732072,19.6797333 L8.10240506,19.6797333 L8.10240506,19.4038872 C8.58929422,19.3263231 8.68627735,19.249041 8.94114,18.5080923 L10.4756725,14.0556308 L10.805528,13.9512718 C11.2845231,15.4509385 11.7561882,17.0005282 12.2427954,18.4821436 C12.4897641,19.2408615 12.5873111,19.3345026 13.0663063,19.4038872 L13.0663063,19.6797333 L11.0375545,19.6797333 Z" id="Fill-45"></path>
                <path d="M14.9021349,16.0793769 C14.6475542,16.0793769 14.4005855,16.4243256 14.4005855,17.069941 C14.4005855,17.6901718 14.6100578,18.1716333 14.9847398,18.180659 C15.2914771,18.1716333 15.4936193,17.8278128 15.4936193,17.1816333 C15.4936193,16.5788897 15.2914771,16.0793769 14.909747,16.0793769 L14.9021349,16.0793769 Z M14.9996819,19.8343256 C14.6399422,19.8343256 14.4752964,19.8777615 14.3554771,20.0159667 C14.2207157,20.1620692 14.1234506,20.325659 14.1234506,20.5324026 C14.1234506,20.9712744 14.5201229,21.359659 15.0972289,21.359659 C15.7180337,21.359659 16.0625494,20.9800179 16.0625494,20.4979923 C16.0625494,20.1967615 15.9055157,19.9984795 15.6729253,19.9206333 C15.4783952,19.8523769 15.2988072,19.8343256 15.007294,19.8343256 L14.9996819,19.8343256 Z M16.8336217,15.9676846 C16.7814651,16.1140692 16.6390916,16.3727103 16.5116602,16.4581718 L16.0853855,16.4243256 C16.204641,16.6048385 16.2872458,16.8285051 16.2872458,17.1209923 C16.2872458,18.0348385 15.5982145,18.4821718 14.9021349,18.4821718 C14.7747036,18.4821718 14.6475542,18.4567872 14.5277349,18.4393 C14.4603542,18.5078385 14.3853614,18.6200949 14.3853614,18.7236077 C14.3853614,18.8697103 14.5127928,19.0507872 14.8573084,19.0507872 C15.1118892,19.0507872 15.3439157,19.0330179 15.5832723,19.0330179 C16.0552193,19.0330179 16.7064723,19.1974538 16.7064723,20.0763256 C16.7064723,21.0234538 15.7555301,21.8244795 14.7597614,21.8244795 C13.8389855,21.8244795 13.3972048,21.2564282 13.3972048,20.7732744 C13.3972048,20.5747103 13.4719157,20.4291718 13.606959,20.2997103 C13.7792169,20.127659 14.0112434,19.9547615 14.1908313,19.808941 C13.8987542,19.6882231 13.7343904,19.5158897 13.6365614,19.3263513 C13.5621325,19.1974538 13.5243542,19.0076333 13.5395783,18.9049667 C13.8914241,18.7495564 14.1313446,18.5165821 14.266106,18.3529923 C13.8539277,18.180659 13.5545205,17.7584282 13.5545205,17.2075821 C13.5545205,16.2342231 14.3258747,15.7868897 14.9621855,15.7868897 L14.9697976,15.7868897 C15.2542627,15.7868897 15.4783952,15.8551462 15.740588,16.0105564 C16.1226,15.9933513 16.5116602,15.9414538 16.7964072,15.8985821 L16.8336217,15.9676846 Z" id="Fill-47"></path>
                <path d="M18.4812918,16.6991282 C18.7361545,16.1917179 19.0431737,15.7869744 19.350193,15.7869744 C19.6343761,15.7869744 19.8291882,16.0188205 19.8291882,16.2859231 C19.8291882,16.5358205 19.6868147,16.7597692 19.5072267,16.8373333 C19.4096798,16.8804872 19.334687,16.8635641 19.2901424,16.8108205 C19.1627111,16.6909487 19.0730581,16.6303077 18.9532388,16.6303077 C18.788593,16.6303077 18.6087231,16.7944615 18.4666316,17.1904615 L18.4666316,18.7837692 C18.4666316,19.3261538 18.504128,19.3698718 19.0806701,19.4209231 L19.0806701,19.6795641 L17.1491834,19.6795641 L17.1491834,19.4209231 C17.57574,19.3698718 17.6431207,19.3261538 17.6431207,18.7837692 L17.6431207,16.9315385 C17.6431207,16.4500769 17.5982942,16.4151026 17.2160002,16.3285128 L17.2160002,16.1048462 C17.6355087,16.0368718 18.0400749,15.933359 18.4666316,15.7697692 L18.4666316,16.6991282 L18.4812918,16.6991282 Z" id="Fill-49"></path>
                <path d="M20.5266492,14.6236821 C20.5266492,14.3142718 20.7507817,14.0725538 21.0059263,14.0725538 C21.2748853,14.0725538 21.4846395,14.3142718 21.4846395,14.6236821 C21.4846395,14.9161692 21.2748853,15.1666308 20.9983142,15.1666308 C20.7507817,15.1666308 20.5266492,14.9161692 20.5266492,14.6236821 L20.5266492,14.6236821 Z M20.1522492,19.6797333 L20.1522492,19.4210923 C20.60136,19.3610154 20.6461865,19.3263231 20.6461865,18.7235795 L20.6461865,16.9920667 C20.6461865,16.4409385 20.60136,16.4059641 20.2117359,16.3379897 L20.2117359,16.0965538 C20.6388564,16.037041 21.0876853,15.9245026 21.4699793,15.7781179 L21.4699793,18.7235795 C21.4699793,19.3085538 21.5071937,19.3610154 21.9709648,19.4210923 L21.9709648,19.6797333 L20.1522492,19.6797333 Z" id="Fill-51"></path>
                <path d="M25.265854,18.8695974 C24.9292323,19.4040846 24.435013,19.7834436 23.9856202,19.7834436 C22.9904154,19.7834436 22.4059793,18.8955462 22.4059793,17.9664692 C22.4059793,17.3202897 22.6755022,16.7254436 23.1621094,16.3034949 C23.6112202,15.9153923 24.0907793,15.7867769 24.3749624,15.7867769 L24.3822925,15.7867769 C24.6597094,15.7867769 24.90696,15.8815462 25.0338275,16.0022641 C25.1384227,16.0964692 25.1685889,16.1836231 25.1685889,16.2944692 C25.1612588,16.5184179 24.9816708,16.7344692 24.8694636,16.7344692 C24.8240733,16.7344692 24.7792467,16.7079564 24.712148,16.6391359 C24.435013,16.3542641 24.1880443,16.2259308 23.9557359,16.2259308 C23.588948,16.2259308 23.2218781,16.6050077 23.2218781,17.5259051 C23.2218781,18.6888026 23.9331817,19.0684436 24.2926395,19.0684436 C24.6075528,19.0684436 24.8319672,18.9725462 25.1310925,18.6721615 L25.265854,18.8695974 Z" id="Fill-53"></path>
                <path d="M29.4373692,19.4728205 C29.2422752,19.5077949 29.0328029,19.5503846 28.8007764,19.6110256 C28.583974,19.6629231 28.3589957,19.7317436 28.1644655,19.783641 L28.1123089,19.7227179 L28.1123089,19.1721538 C27.9623234,19.3010513 27.8498342,19.4209231 27.6699643,19.541641 C27.45288,19.6967692 27.2659619,19.783641 27.0485957,19.783641 C26.4647234,19.783641 26.0829933,19.3611282 26.0829933,18.5344359 L26.0829933,16.7944615 C26.0829933,16.3727949 26.0308366,16.3285128 25.8433547,16.2687179 L25.6561547,16.2171026 L25.6561547,15.9759487 C25.8363065,15.9677692 26.0457788,15.9505641 26.2854173,15.9246154 C26.5171619,15.8986667 26.7568005,15.8552308 26.9290583,15.8298462 C26.9143981,16.1570256 26.906786,16.5789744 26.906786,17.1128974 L26.906786,18.3271282 C26.906786,18.9645641 27.1912511,19.1625641 27.4754342,19.1625641 C27.7001306,19.1625641 27.9096029,19.0852821 28.1123089,18.8610513 L28.1123089,16.7944615 C28.1123089,16.3727949 28.0593065,16.3208974 27.8419402,16.2687179 L27.5955354,16.2171026 L27.5955354,15.9759487 C27.8123378,15.9677692 28.0745306,15.9505641 28.3138872,15.9155897 C28.5614198,15.8986667 28.7855523,15.8552308 28.9352559,15.8298462 L28.9352559,18.6548718 C28.9352559,19.1024872 28.9800824,19.1721538 29.2569354,19.2062821 L29.4373692,19.2232051 L29.4373692,19.4728205 Z" id="Fill-55"></path>
                <path d="M29.7601764,19.6796769 L29.7601764,19.4210359 C30.2166173,19.3527795 30.2614439,19.3087795 30.2614439,18.7494718 L30.2614439,14.7612667 C30.2614439,14.2188821 30.2242294,14.1932154 29.7900607,14.1407538 L29.7900607,13.9007282 C30.2016752,13.8491128 30.7254969,13.7196513 31.0849547,13.5986513 L31.0849547,18.7494718 C31.0849547,19.3262667 31.1376752,19.3697026 31.6017282,19.4210359 L31.6017282,19.6796769 L29.7601764,19.6796769 Z" id="Fill-57"></path>
                <path d="M33.503979,19.6796769 C33.3765477,19.7484974 33.2567284,19.7834718 33.1969598,19.7834718 C32.6581959,19.7834718 32.3508947,19.4639077 32.3508947,18.7153436 L32.3508947,16.2772923 L31.8645694,16.2772923 L31.827073,16.1734974 L32.0362634,15.8900359 L32.3508947,15.8900359 L32.3508947,15.2613436 L33.0698104,14.6236256 L33.1670754,14.6664974 L33.1670754,15.8900359 L33.9454778,15.8900359 C34.0278007,15.9757795 34.0131405,16.2081897 33.9009333,16.2772923 L33.1670754,16.2772923 L33.1670754,18.4310359 C33.1670754,19.1113436 33.4365983,19.2061128 33.601526,19.2061128 C33.7509477,19.2061128 33.8859911,19.1536513 34.0055284,19.0944205 L34.0802393,19.360959 L33.503979,19.6796769 Z" id="Fill-59"></path>
                <path d="M38.1088453,19.4728205 C37.9140333,19.5077949 37.704561,19.5503846 37.4728164,19.6110256 C37.2554501,19.6629231 37.0307537,19.7317436 36.8359417,19.783641 L36.7835031,19.7227179 L36.7835031,19.1721538 C36.6343634,19.3010513 36.5221561,19.4209231 36.3420043,19.541641 C36.1246381,19.6967692 35.9380019,19.783641 35.7206357,19.783641 C35.1367634,19.783641 34.7550333,19.3611282 34.7550333,18.5344359 L34.7550333,16.7944615 C34.7550333,16.3727949 34.7023128,16.3285128 34.5151128,16.2687179 L34.3279128,16.2171026 L34.3279128,15.9759487 C34.5080646,15.9677692 34.7175369,15.9505641 34.9571754,15.9246154 C35.1892019,15.8986667 35.4288405,15.8552308 35.6010983,15.8298462 C35.5858742,16.1570256 35.578826,16.5789744 35.578826,17.1128974 L35.578826,18.3271282 C35.578826,18.9645641 35.8630092,19.1625641 36.1474742,19.1625641 C36.3721706,19.1625641 36.5819248,19.0852821 36.7835031,18.8610513 L36.7835031,16.7944615 C36.7835031,16.3727949 36.7313465,16.3208974 36.5142622,16.2687179 L36.2672935,16.2171026 L36.2672935,15.9759487 C36.4846598,15.9677692 36.7462887,15.9505641 36.9859272,15.9155897 C37.2328959,15.8986667 37.4575923,15.8552308 37.607014,15.8298462 L37.607014,18.6548718 C37.607014,19.1024872 37.6524043,19.1721538 37.9292573,19.2062821 L38.1088453,19.2232051 L38.1088453,19.4728205 Z" id="Fill-61"></path>
                <path d="M39.839233,16.6991282 C40.0938137,16.1917179 40.4011149,15.7869744 40.7081342,15.7869744 C40.9923173,15.7869744 41.1871294,16.0188205 41.1871294,16.2859231 C41.1871294,16.5358205 41.044474,16.7597692 40.8654499,16.8373333 C40.767621,16.8804872 40.693192,16.8635641 40.6480836,16.8108205 C40.5206523,16.6909487 40.4312812,16.6303077 40.3114619,16.6303077 C40.1462523,16.6303077 39.9666643,16.7944615 39.8245728,17.1904615 L39.8245728,18.7837692 C39.8245728,19.3261538 39.8623511,19.3698718 40.4386113,19.4209231 L40.4386113,19.6795641 L38.5068427,19.6795641 L38.5068427,19.4209231 C38.9336812,19.3698718 39.0010619,19.3261538 39.0010619,18.7837692 L39.0010619,16.9315385 C39.0010619,16.4500769 38.9559535,16.4151026 38.5739414,16.3285128 L38.5739414,16.1048462 C38.9937318,16.0368718 39.3980161,15.933359 39.8245728,15.7697692 L39.8245728,16.6991282 L39.839233,16.6991282 Z" id="Fill-63"></path>
                <path d="M42.9549007,16.1228974 C42.6552116,16.1228974 42.3710284,16.5098718 42.3033658,17.1904615 C42.6475995,17.1904615 42.9774549,17.1817179 43.3216887,17.1650769 C43.441508,17.1650769 43.4863345,17.1394103 43.4936646,17.000359 C43.4936646,16.5530256 43.2918043,16.1228974 42.9622308,16.1228974 L42.9549007,16.1228974 Z M44.2802429,18.8785385 C43.8232381,19.6110256 43.26192,19.783641 42.9774549,19.783641 C42.0115706,19.783641 41.4649128,18.9301538 41.4649128,17.9398718 C41.4649128,17.3106154 41.6819971,16.7685128 41.9966284,16.4060769 C42.3185899,16.0188205 42.7304863,15.7869744 43.1192646,15.7869744 L43.1271586,15.7869744 C43.7933537,15.7869744 44.3098453,16.4500769 44.3098453,17.1394103 C44.3098453,17.3106154 44.2650188,17.4144103 44.1077031,17.4409231 C43.9729417,17.4657436 43.0521658,17.5441538 42.2658694,17.5777179 C42.2884236,18.5942308 42.782361,19.068359 43.3143586,19.068359 C43.6061537,19.068359 43.8903369,18.947359 44.1528116,18.6720769 L44.2802429,18.8785385 Z" id="Fill-65"></path>
                <path d="M48.2793029,17.6124949 C48.1293173,17.7072641 47.9268933,17.8279821 47.7701414,17.9221872 C47.5152788,18.0606744 47.3805173,18.2245462 47.3805173,18.5257769 C47.3805173,18.9905974 47.6649824,19.1801359 47.8597945,19.1801359 C47.994274,19.1801359 48.1442595,19.1022897 48.2793029,18.9821359 L48.2793029,17.6124949 Z M48.9080017,19.7834436 C48.7357439,19.7834436 48.5860402,19.7053154 48.4887752,19.6111103 C48.3915101,19.4982897 48.3390716,19.3863154 48.3018571,19.2661615 C48.0092161,19.4903923 47.6576523,19.7834436 47.4856764,19.7834436 C46.88658,19.7834436 46.51218,19.2314692 46.51218,18.6978282 C46.51218,18.2581103 46.69938,18.0257 47.0960523,17.8618282 C47.5383969,17.6813154 48.1067631,17.4655462 48.2793029,17.294341 L48.2793029,17.0782897 C48.2793029,16.5099564 48.0695487,16.1918026 47.7549173,16.1918026 C47.6427101,16.1918026 47.5454451,16.2434179 47.4777824,16.3469308 C47.3881294,16.4668026 47.3210306,16.6650846 47.26098,16.9316231 C47.2161535,17.1301872 47.1186065,17.1905462 46.976233,17.1905462 C46.8042571,17.1905462 46.5646186,17.0004436 46.5646186,16.7767769 C46.5646186,16.6391359 46.6545535,16.5277256 46.8189173,16.3982641 C47.07378,16.1836231 47.5899896,15.8815462 48.0168282,15.7867769 C48.2942451,15.7867769 48.5186595,15.8637769 48.7055776,16.0282128 C49.0055487,16.2944692 49.0802595,16.6650846 49.0802595,17.1301872 L49.0802595,18.6199821 C49.0802595,19.0171103 49.2003607,19.1282385 49.3269463,19.1282385 C49.4174451,19.1282385 49.5070981,19.0943923 49.5820908,19.0509564 L49.6641318,19.3087513 L48.9080017,19.7834436 Z" id="Fill-67"></path>
                <path d="M52.0684113,19.6796769 L52.0684113,19.4210359 C52.4278692,19.3697026 52.4726957,19.3262667 52.4726957,18.7153436 L52.4726957,17.2678564 C52.4726957,16.6566513 52.2406692,16.3982923 51.8961535,16.3982923 C51.6638451,16.3982923 51.4473246,16.5359333 51.2451824,16.7254718 L51.2451824,18.7836 C51.2451824,19.3344462 51.2900089,19.3697026 51.6415728,19.4210359 L51.6415728,19.6796769 L49.9046161,19.6796769 L49.9046161,19.4210359 C50.3838933,19.3527795 50.4211077,19.3262667 50.4211077,18.7576513 L50.4211077,16.9745231 C50.4211077,16.4411641 50.3838933,16.4152154 50.0021631,16.3283436 L50.0021631,16.0964974 C50.3988354,16.0369846 50.8403342,15.9154205 51.2451824,15.7602923 L51.2451824,16.4152154 C51.3946041,16.2944974 51.5443077,16.1653179 51.7238957,16.0369846 C51.94098,15.8725487 52.1059077,15.7868051 52.322992,15.7868051 C52.9220884,15.7868051 53.2888764,16.2860359 53.2888764,17.139241 L53.2888764,18.7754205 C53.2888764,19.3344462 53.333421,19.360959 53.7455993,19.4210359 L53.7455993,19.6796769 L52.0684113,19.6796769 Z" id="Fill-69"></path>
                <path d="M56.5916313,16.5790308 C56.4495398,16.2772359 56.2099012,16.1311333 55.9626506,16.1311333 C55.7227301,16.1311333 55.1318096,16.3982359 55.1318096,17.6812872 C55.1318096,18.7324923 55.6705735,19.1719282 56.0678096,19.1719282 C56.2471157,19.1719282 56.4196554,19.1022615 56.5916313,18.9725179 L56.5916313,16.5790308 Z M57.9465759,19.4553897 C57.7743181,19.4903641 57.1230651,19.5935949 56.5916313,19.7918769 L56.5916313,19.2661333 L56.1346265,19.5935949 C55.910212,19.748441 55.7675566,19.7834154 55.6852337,19.7834154 C55.0568169,19.7834154 54.2034217,19.1719282 54.2034217,17.9134154 C54.2034217,16.734441 55.1016434,15.7867487 56.2099012,15.7867487 C56.2843301,15.7867487 56.4196554,15.8033897 56.5916313,15.8473897 L56.5916313,14.7437231 C56.5916313,14.2453385 56.5468048,14.2109282 56.0599157,14.1502872 L56.0599157,13.9006718 C56.5093084,13.8403128 57.0709084,13.7195949 57.4145783,13.5988769 L57.4145783,18.6284154 C57.4145783,19.1022615 57.4599687,19.1378 57.7596578,19.1801077 L57.9465759,19.2060564 L57.9465759,19.4553897 Z" id="Fill-71"></path>
                <path d="M65.2101051,14.3567769 C64.8058207,14.3832897 64.6411749,14.5034436 64.6033966,14.8909821 C64.5743581,15.149059 64.5444737,15.5543667 64.5444737,16.3283154 L64.5444737,19.7659564 L64.2292786,19.7659564 L61.0846569,15.3904949 L61.0702786,15.3904949 L61.0702786,17.4144949 C61.0702786,18.1808282 61.1001629,18.5683667 61.1221533,18.8272897 C61.1593677,19.2314692 61.3023051,19.3696744 61.8413508,19.4040846 L61.8413508,19.6796487 L60.0291195,19.6796487 L60.0291195,19.4040846 C60.448628,19.3696744 60.6282159,19.2407769 60.6662761,18.8523923 C60.6879846,18.5683667 60.7260448,18.1808282 60.7260448,17.4144949 L60.7260448,15.5803154 C60.7260448,14.9942128 60.7178689,14.8737769 60.5760593,14.676059 C60.4260737,14.4602897 60.26904,14.3909051 59.9315725,14.3567769 L59.9315725,14.0814949 L61.2197002,14.0814949 L64.1774039,18.0513667 L64.1991123,18.0513667 L64.1991123,16.3283154 C64.1991123,15.5543667 64.1621798,15.149059 64.1472376,14.9000077 C64.1018472,14.5291103 63.9448135,14.3909051 63.4057677,14.3567769 L63.4057677,14.0814949 L65.2101051,14.0814949 L65.2101051,14.3567769 Z" id="Fill-73"></path>
                <path d="M67.2706019,17.6124949 C67.1211802,17.7072641 66.9190381,17.8279821 66.7617224,17.9221872 C66.5062959,18.0606744 66.3718164,18.2245462 66.3718164,18.5257769 C66.3718164,18.9905974 66.6571272,19.1801359 66.8513754,19.1801359 C66.9861369,19.1801359 67.1366863,19.1022897 67.2706019,18.9821359 L67.2706019,17.6124949 Z M67.8998646,19.7834436 C67.7276067,19.7834436 67.5779031,19.7053154 67.4803561,19.6111103 C67.383373,19.4982897 67.3306525,19.3863154 67.2928742,19.2661615 C67.0007971,19.4903923 66.6495152,19.7834436 66.4775393,19.7834436 C65.8784429,19.7834436 65.503761,19.2314692 65.503761,18.6978282 C65.503761,18.2581103 65.690961,18.0257 66.088479,17.8618282 C66.529414,17.6813154 67.0983441,17.4655462 67.2706019,17.294341 L67.2706019,17.0782897 C67.2706019,16.5099564 67.0608477,16.1918026 66.7464983,16.1918026 C66.6340092,16.1918026 66.5364622,16.2434179 66.4693634,16.3469308 C66.3797104,16.4668026 66.3128935,16.6650846 66.2531248,16.9316231 C66.2074525,17.1301872 66.1099055,17.1905462 65.9683778,17.1905462 C65.7958381,17.1905462 65.5567634,17.0004436 65.5567634,16.7767769 C65.5567634,16.6391359 65.6461345,16.5277256 65.8102164,16.3982641 C66.0659248,16.1836231 66.5812887,15.8815462 67.0084092,15.7867769 C67.285826,15.7867769 67.5102405,15.8637769 67.6974405,16.0282128 C67.9962839,16.2944692 68.0724043,16.6650846 68.0724043,17.1301872 L68.0724043,18.6199821 C68.0724043,19.0171103 68.1913778,19.1282385 68.3188092,19.1282385 C68.4087441,19.1282385 68.4983971,19.0943923 68.5739537,19.0509564 L68.6559947,19.3087513 L67.8998646,19.7834436 Z" id="Fill-75"></path>
                <path d="M70.4381725,19.6796769 C70.3113051,19.7484974 70.1912039,19.7834718 70.1314352,19.7834718 C69.5921075,19.7834718 69.2853701,19.4639077 69.2853701,18.7153436 L69.2853701,16.2772923 L68.7987629,16.2772923 L68.7618304,16.1734974 L68.9710207,15.8900359 L69.2853701,15.8900359 L69.2853701,15.2613436 L70.0045677,14.6236256 L70.1021147,14.6664974 L70.1021147,15.8900359 L70.8799533,15.8900359 C70.9619942,15.9757795 70.947334,16.2081897 70.8354087,16.2772923 L70.1021147,16.2772923 L70.1021147,18.4310359 C70.1021147,19.1113436 70.3707918,19.2061128 70.5360014,19.2061128 C70.6857051,19.2061128 70.8201846,19.1536513 70.9400039,19.0944205 L71.0144328,19.360959 L70.4381725,19.6796769 Z" id="Fill-77"></path>
                <path d="M75.0439973,19.4728205 C74.8486214,19.5077949 74.6388672,19.5503846 74.4065588,19.6110256 C74.1903202,19.6629231 73.9653419,19.7317436 73.7705299,19.783641 L73.7189371,19.7227179 L73.7189371,19.1721538 C73.5686696,19.3010513 73.4564624,19.4209231 73.2763106,19.541641 C73.0595082,19.6967692 72.8723082,19.783641 72.65466,19.783641 C72.0716335,19.783641 71.6890576,19.3611282 71.6890576,18.5344359 L71.6890576,16.7944615 C71.6890576,16.3727949 71.636619,16.3285128 71.4499829,16.2687179 L71.2627829,16.2171026 L71.2627829,15.9759487 C71.4423708,15.9677692 71.6518431,15.9505641 71.8914817,15.9246154 C72.1237901,15.8986667 72.3634287,15.8552308 72.5359684,15.8298462 C72.5201805,16.1570256 72.5125684,16.5789744 72.5125684,17.1128974 L72.5125684,18.3271282 C72.5125684,18.9645641 72.7975973,19.1625641 73.0817805,19.1625641 C73.3061949,19.1625641 73.5156672,19.0852821 73.7189371,18.8610513 L73.7189371,16.7944615 C73.7189371,16.3727949 73.6659347,16.3208974 73.4482865,16.2687179 L73.2018817,16.2171026 L73.2018817,15.9759487 C73.4184022,15.9677692 73.6811588,15.9505641 73.9205154,15.9155897 C74.1674841,15.8986667 74.3921805,15.8552308 74.5416022,15.8298462 L74.5416022,18.6548718 C74.5416022,19.1024872 74.5869925,19.1721538 74.8635636,19.2062821 L75.0439973,19.2232051 L75.0439973,19.4728205 Z" id="Fill-79"></path>
                <path d="M76.7735675,16.6991282 C77.0278663,16.1917179 77.3351675,15.7869744 77.6424687,15.7869744 C77.9274976,15.7869744 78.1209,16.0188205 78.1209,16.2859231 C78.1209,16.5358205 77.9790904,16.7597692 77.8000663,16.8373333 C77.7025193,16.8804872 77.6269627,16.8635641 77.5824181,16.8108205 C77.4549867,16.6909487 77.3656157,16.6303077 77.2455145,16.6303077 C77.0808687,16.6303077 76.9012807,16.7944615 76.7591892,17.1904615 L76.7591892,18.7837692 C76.7591892,19.3261538 76.7972494,19.3698718 77.3723819,19.4209231 L77.3723819,19.6795641 L75.4411771,19.6795641 L75.4411771,19.4209231 C75.8677337,19.3698718 75.9348325,19.3261538 75.9348325,18.7837692 L75.9348325,16.9315385 C75.9348325,16.4500769 75.8905699,16.4151026 75.5082759,16.3285128 L75.5082759,16.1048462 C75.9283482,16.0368718 76.3320687,15.933359 76.7591892,15.7697692 L76.7591892,16.6991282 L76.7735675,16.6991282 Z" id="Fill-81"></path>
                <path d="M80.27838,17.6124949 C80.1292402,17.7072641 79.9270981,17.8279821 79.7695005,17.9221872 C79.5152017,18.0606744 79.3801583,18.2245462 79.3801583,18.5257769 C79.3801583,18.9905974 79.6646234,19.1801359 79.8594354,19.1801359 C79.9939149,19.1801359 80.1433366,19.1022897 80.27838,18.9821359 L80.27838,17.6124949 Z M80.9070788,19.7834436 C80.7353848,19.7834436 80.5859631,19.7053154 80.4886981,19.6111103 C80.3911511,19.4982897 80.3384306,19.3863154 80.3009342,19.2661615 C80.009139,19.4903923 79.6572933,19.7834436 79.4850354,19.7834436 C78.8865029,19.7834436 78.511821,19.2314692 78.511821,18.6978282 C78.511821,18.2581103 78.699021,18.0257 79.0956933,17.8618282 C79.537192,17.6813154 80.1061222,17.4655462 80.27838,17.294341 L80.27838,17.0782897 C80.27838,16.5099564 80.0689077,16.1918026 79.7542764,16.1918026 C79.642633,16.1918026 79.545086,16.2434179 79.4774234,16.3469308 C79.3880523,16.4668026 79.3198258,16.6650846 79.260339,16.9316231 C79.2152306,17.1301872 79.1176836,17.1905462 78.975874,17.1905462 C78.80418,17.1905462 78.5639776,17.0004436 78.5639776,16.7767769 C78.5639776,16.6391359 78.6536306,16.5277256 78.8185583,16.3982641 C79.073421,16.1836231 79.5896306,15.8815462 80.0159053,15.7867769 C80.2933222,15.7867769 80.5188643,15.8637769 80.7052186,16.0282128 C81.0046258,16.2944692 81.0790547,16.6650846 81.0790547,17.1301872 L81.0790547,18.6199821 C81.0790547,19.0171103 81.1997198,19.1282385 81.3268692,19.1282385 C81.4165222,19.1282385 81.5058933,19.0943923 81.581168,19.0509564 L81.6634908,19.3087513 L80.9070788,19.7834436 Z" id="Fill-83"></path>
                <path d="M81.8741472,19.6796769 L81.8741472,19.4210359 C82.3305882,19.3527795 82.3756966,19.3087795 82.3756966,18.7494718 L82.3756966,14.7612667 C82.3756966,14.2188821 82.3384822,14.1932154 81.9037496,14.1407538 L81.9037496,13.9007282 C82.315646,13.8491128 82.8400316,13.7196513 83.1989255,13.5986513 L83.1989255,18.7494718 C83.1989255,19.3262667 83.251928,19.3697026 83.715981,19.4210359 L83.715981,19.6796769 L81.8741472,19.6796769 Z" id="Fill-85"></path>
                <path d="M87.6321824,16.9407051 C87.9764161,16.9407051 88.2242306,16.8716026 88.3959246,16.7080128 C88.6581173,16.4581154 88.7697607,16.1140128 88.7697607,15.6666795 C88.7697607,14.7438077 88.2913294,14.4002692 87.8126161,14.4002692 C87.6178041,14.4002692 87.505033,14.4434231 87.4531583,14.4862949 C87.4010017,14.5373462 87.3857776,14.6315513 87.3857776,14.8312436 L87.3857776,16.9407051 L87.6321824,16.9407051 Z M90.4243945,19.7569872 C90.3654716,19.7569872 90.2752547,19.7485256 90.1932137,19.7485256 C89.3843631,19.7053718 89.0849559,19.4819872 88.7697607,18.9302949 C88.5535222,18.5517821 88.3214957,18.0607308 88.1041294,17.6212949 C87.984592,17.3632179 87.8495487,17.2594231 87.5577535,17.2594231 L87.3857776,17.2594231 L87.3857776,18.5596795 C87.3857776,19.2662179 87.4531583,19.3435 88.0291366,19.403859 L88.0291366,19.6797051 L85.8732354,19.6797051 L85.8732354,19.403859 C86.4503414,19.3435 86.5321005,19.2743974 86.5321005,18.5596795 L86.5321005,15.1919872 C86.5321005,14.4862949 86.4644378,14.4174744 85.9031198,14.3655769 L85.9031198,14.0815513 L87.9163655,14.0815513 C88.5312499,14.0815513 88.9059318,14.1667308 89.2047752,14.3909615 C89.5039005,14.6236538 89.7060427,15.0024487 89.7060427,15.5363718 C89.7060427,16.2860641 89.279768,16.7080128 88.7629945,16.9581923 C88.8830957,17.2247308 89.1678427,17.8009615 89.3914113,18.1899103 C89.6614981,18.6634744 89.8182499,18.9212692 89.9834595,19.1113718 C90.1551535,19.3344744 90.297527,19.4379872 90.4700667,19.4980641 L90.4243945,19.7569872 Z" id="Fill-87"></path>
                <path d="M92.2234034,16.1228974 C91.9239961,16.1228974 91.639813,16.5098718 91.5718684,17.1904615 C91.9163841,17.1904615 92.2459576,17.1817179 92.5899094,17.1650769 C92.7102925,17.1650769 92.7548371,17.1394103 92.7618853,17.000359 C92.7618853,16.5530256 92.560307,16.1228974 92.2304516,16.1228974 L92.2234034,16.1228974 Z M93.5481817,18.8785385 C93.0920227,19.6110256 92.5307046,19.783641 92.2459576,19.783641 C91.2803552,19.783641 90.7334154,18.9301538 90.7334154,17.9398718 C90.7334154,17.3106154 90.9507817,16.7685128 91.265413,16.4060769 C91.5873745,16.0188205 91.9984251,15.7869744 92.3880492,15.7869744 L92.3950973,15.7869744 C93.0615745,15.7869744 93.5786299,16.4500769 93.5786299,17.1394103 C93.5786299,17.3106154 93.5338034,17.4144103 93.3764877,17.4409231 C93.2411624,17.4657436 92.3206684,17.5441538 91.5352178,17.5777179 C91.5572082,18.5942308 92.0508636,19.068359 92.5828612,19.068359 C92.8749383,19.068359 93.1588395,18.947359 93.4210323,18.6720769 L93.5481817,18.8785385 Z" id="Fill-89"></path>
                <path d="M96.0723933,16.9665974 C95.8922414,16.4411359 95.6455547,16.0964692 95.2860969,16.0964692 C95.0537884,16.0964692 94.8671523,16.3125205 94.8671523,16.6143154 C94.8671523,16.9141359 95.0839547,17.1211615 95.4513065,17.3022385 C96.0425089,17.5952897 96.4391812,17.8968026 96.4391812,18.5424179 C96.4391812,19.3699564 95.75748,19.7834436 95.1369571,19.7834436 C94.747333,19.7834436 94.3658848,19.6192897 94.2226655,19.4903923 C94.1705089,19.3609308 94.1034101,18.7579051 94.1034101,18.3793923 L94.3131643,18.3528795 C94.47048,18.9048538 94.8144318,19.4638795 95.2643884,19.4638795 C95.5178414,19.4638795 95.7205475,19.2492385 95.7205475,18.9471615 C95.7205475,18.6546744 95.5708439,18.4482128 95.1440053,18.2067769 C94.7619933,18.0003154 94.1930631,17.6813154 94.1930631,16.9665974 C94.1930631,16.3209821 94.65768,15.7867769 95.4138101,15.7867769 C95.7431017,15.7780333 95.94468,15.8553154 96.1096077,15.9334436 C96.1846005,16.1311615 96.2666414,16.7079564 96.2891957,16.8974949 L96.0723933,16.9665974 Z" id="Fill-91"></path>
                <path d="M98.6337065,16.0964692 C98.2745306,16.0964692 97.9373451,16.5878026 97.9373451,17.5696231 C97.9373451,18.6377513 98.2745306,19.4638795 98.7983523,19.4638795 C99.1507619,19.4638795 99.4797716,19.1885974 99.4797716,17.9478538 C99.4797716,16.8196487 99.1806463,16.0964692 98.6404728,16.0964692 L98.6337065,16.0964692 Z M98.7453499,15.7867769 C99.7411186,15.7867769 100.41549,16.6743923 100.41549,17.7160077 C100.41549,19.1022897 99.5398222,19.7834436 98.7163113,19.7834436 C97.5933933,19.7834436 97.0019089,18.8177 97.0019089,17.8708538 C97.0019089,16.4668026 97.9601812,15.7867769 98.7380198,15.7867769 L98.7453499,15.7867769 Z" id="Fill-93"></path>
                <path d="M104.654386,19.4728205 C104.459855,19.5077949 104.249537,19.5503846 104.018075,19.6110256 C103.800708,19.6629231 103.57573,19.7317436 103.381764,19.783641 L103.329043,19.7227179 L103.329043,19.1721538 C103.179058,19.3010513 103.067133,19.4209231 102.886417,19.541641 C102.669614,19.6967692 102.482696,19.783641 102.265894,19.783641 C101.681458,19.783641 101.300573,19.3611282 101.300573,18.5344359 L101.300573,16.7944615 C101.300573,16.3727949 101.247853,16.3285128 101.060089,16.2687179 L100.873735,16.2171026 L100.873735,15.9759487 C101.053041,15.9677692 101.262231,15.9505641 101.501588,15.9246154 C101.734742,15.8986667 101.974099,15.8552308 102.14692,15.8298462 C102.131414,16.1570256 102.123239,16.5789744 102.123239,17.1128974 L102.123239,18.3271282 C102.123239,18.9645641 102.407986,19.1625641 102.692169,19.1625641 C102.917429,19.1625641 103.127183,19.0852821 103.329043,18.8610513 L103.329043,16.7944615 C103.329043,16.3727949 103.276041,16.3208974 103.059239,16.2687179 L102.81227,16.2171026 L102.81227,15.9759487 C103.029636,15.9677692 103.291265,15.9505641 103.530622,15.9155897 C103.777872,15.8986667 104.002851,15.8552308 104.152836,15.8298462 L104.152836,18.6548718 C104.152836,19.1024872 104.197099,19.1721538 104.473952,19.2062821 L104.654386,19.2232051 L104.654386,19.4728205 Z" id="Fill-95"></path>
                <path d="M106.384238,16.6991282 C106.638536,16.1917179 106.945838,15.7869744 107.252575,15.7869744 C107.537886,15.7869744 107.732134,16.0188205 107.732134,16.2859231 C107.732134,16.5358205 107.589479,16.7597692 107.410173,16.8373333 C107.312626,16.8804872 107.238197,16.8635641 107.193652,16.8108205 C107.065939,16.6909487 106.976286,16.6303077 106.856748,16.6303077 C106.691257,16.6303077 106.511951,16.7944615 106.369295,17.1904615 L106.369295,18.7837692 C106.369295,19.3261538 106.407356,19.3698718 106.983334,19.4209231 L106.983334,19.6795641 L105.052129,19.6795641 L105.052129,19.4209231 C105.478968,19.3698718 105.545503,19.3261538 105.545503,18.7837692 L105.545503,16.9315385 C105.545503,16.4500769 105.500676,16.4151026 105.11951,16.3285128 L105.11951,16.1048462 C105.537891,16.0368718 105.943303,15.933359 106.369295,15.7697692 L106.369295,16.6991282 L106.384238,16.6991282 Z" id="Fill-97"></path>
                <path d="M110.862575,18.8695974 C110.525671,19.4040846 110.031734,19.7834436 109.582341,19.7834436 C108.58629,19.7834436 108.002136,18.8955462 108.002136,17.9664692 C108.002136,17.3202897 108.271941,16.7254436 108.757984,16.3034949 C109.207941,15.9153923 109.6875,15.7867769 109.971119,15.7867769 L109.978731,15.7867769 C110.25643,15.7867769 110.503117,15.8815462 110.630266,16.0022641 C110.734861,16.0964692 110.765028,16.1836231 110.765028,16.2944692 C110.757416,16.5184179 110.577264,16.7344692 110.46562,16.7344692 C110.421076,16.7344692 110.375122,16.7079564 110.308587,16.6391359 C110.031734,16.3542641 109.784483,16.2259308 109.552175,16.2259308 C109.185387,16.2259308 108.818599,16.6050077 108.818599,17.5259051 C108.818599,18.6888026 109.529339,19.0684436 109.889642,19.0684436 C110.203992,19.0684436 110.428124,18.9725462 110.727531,18.6721615 L110.862575,18.8695974 Z" id="Fill-99"></path>
                <path d="M112.727611,16.1228974 C112.428204,16.1228974 112.142893,16.5098718 112.075512,17.1904615 C112.42031,17.1904615 112.750165,17.1817179 113.094399,17.1650769 C113.213373,17.1650769 113.259045,17.1394103 113.266093,17.000359 C113.266093,16.5530256 113.063951,16.1228974 112.734659,16.1228974 L112.727611,16.1228974 Z M114.052389,18.8785385 C113.595948,19.6110256 113.034912,19.783641 112.750165,19.783641 C111.783717,19.783641 111.237623,18.9301538 111.237623,17.9398718 C111.237623,17.3106154 111.454989,16.7685128 111.769057,16.4060769 C112.091018,16.0188205 112.502915,15.7869744 112.892257,15.7869744 L112.899305,15.7869744 C113.565782,15.7869744 114.082838,16.4500769 114.082838,17.1394103 C114.082838,17.3106154 114.038011,17.4144103 113.880695,17.4409231 C113.745652,17.4657436 112.825158,17.5441538 112.038862,17.5777179 C112.061416,18.5942308 112.555917,19.068359 113.087069,19.068359 C113.378018,19.068359 113.663047,18.947359 113.92524,18.6720769 L114.052389,18.8785385 Z" id="Fill-101"></path>
                <path d="M116.576573,16.9665974 C116.396421,16.4411359 116.14917,16.0964692 115.79084,16.0964692 C115.557968,16.0964692 115.371332,16.3125205 115.371332,16.6143154 C115.371332,16.9141359 115.588134,17.1211615 115.955486,17.3022385 C116.546407,17.5952897 116.943361,17.8968026 116.943361,18.5424179 C116.943361,19.3699564 116.262223,19.7834436 115.641137,19.7834436 C115.251231,19.7834436 114.8695,19.6192897 114.726845,19.4903923 C114.674125,19.3609308 114.60759,18.7579051 114.60759,18.3793923 L114.817344,18.3528795 C114.97466,18.9048538 115.318893,19.4638795 115.768286,19.4638795 C116.022021,19.4638795 116.224163,19.2492385 116.224163,18.9471615 C116.224163,18.6546744 116.075023,18.4482128 115.648185,18.2067769 C115.266173,18.0003154 114.697243,17.6813154 114.697243,16.9665974 C114.697243,16.3209821 115.161296,15.7867769 115.917426,15.7867769 C116.247281,15.7780333 116.44886,15.8553154 116.614069,15.9334436 C116.688216,16.1311615 116.770821,16.7079564 116.793657,16.8974949 L116.576573,16.9665974 Z" id="Fill-103"></path>
                <polygon id="Fill-106" points="0 19.6586641 3.71608916 19.6586641 3.71608916 0.786048718 0 0.786048718"></polygon>
            </g>
        </g>
    </g>
</svg>