<?xml version="1.0" encoding="UTF-8"?>
<svg width="256px" height="27px" viewBox="0 0 256 27" version="1.1" xmlns="http://www.w3.org/2000/svg" xmlns:xlink="http://www.w3.org/1999/xlink">
    <!-- Generator: Sketch 42 (36781) - http://www.bohemiancoding.com/sketch -->
    <title>Group 2</title>
    <desc>Created with Sketch.</desc>
    <defs></defs>
    <g id="Page-1" stroke="none" stroke-width="1" fill="none" fill-rule="evenodd" fill-opacity="0.4">
        <g id="Group-2" fill="#000000">
            <g id="Imported-Layers" transform="translate(0.000000, 4.000000)" fill-rule="nonzero">
                <path d="M93,16.4901414 L94.6885577,12.1152693 L94.9794566,12.3641141 C96.0134919,13.1921978 97.4184844,13.8967585 98.7428074,13.9243413 C99.9284035,13.9507248 100.506534,13.6419174 100.348862,12.6579309 C100.232747,11.9233889 99.3863294,11.7938697 98.8583114,11.6919333 L97.6996051,11.4652746 C95.4463614,11.0515326 93.5494077,9.68618391 93.5494077,7.10179535 C93.5494077,3.19103383 96.9827473,1 100.437476,1 C102.251316,1 103.917262,1.45331734 105.475038,2.44749744 L104.011376,6.32527953 C103.208349,5.7574336 101.99403,4.95813199 100.456422,4.90416564 C99.9510154,4.8849776 98.7904757,5.14581496 99.1626551,6.29889598 C99.3233829,6.78998977 100.040241,6.99626115 100.481478,7.10179535 L101.790523,7.41120243 C104.231995,7.97005397 106,9.33360375 106,12.1254629 C106,16.0554125 102.54466,18 99.1143757,18 C97.1098627,18 94.791839,17.4405488 93,16.4901414" id="Fill-1"></path>
                <polygon id="Fill-2" points="86 1 92 1 92 18 86 18"></polygon>
                <polyline id="Fill-3" points="79.0372638 1 85 1 78.9089938 18 74.0710396 18 68 1 73.9421646 1 76.4906218 11.2586207 79.0372638 1"></polyline>
                <path d="M53,18 L59.2394342,18 L59.7143501,15.8654154 L64.1652047,15.8654154 L64.7568214,18 L71,18 L65.1562251,1 L58.6109975,1 L53,18 L53,18 Z M61.9503866,5.90670013 L61.9503866,5.90670013 C62.0602226,6.63080169 63.134244,11.8330787 63.134244,11.8330787 L60.774018,11.8330787 L61.9503866,5.90670013 L61.9503866,5.90670013 Z" id="Fill-4"></path>
                <path d="M44.1083915,13.1192711 L44.5157857,13.1192711 C46.5155492,13.1192711 47.9988175,11.9419104 47.9988175,9.72384694 C47.9988175,7.33511567 46.6845611,6.0025462 44.4880375,6.0025462 L44.1083915,6.0025462 L44.1083915,13.1192711 L44.1083915,13.1192711 Z M38,1 L44.2156005,1 C49.7627212,1 54,3.49694457 54,9.74610796 C54,14.7795722 50.5466083,18 45.6950849,18 L38,17.9907246 L38,1 L38,1 Z" id="Fill-5"></path>
                <path d="M35.0874597,0.994731062 L35.4089462,3.8282099 C35.4840014,4.50078433 35.866783,6.11471177 35.3939352,5.89805614 C35.098718,5.76492283 34.8547885,5.03331759 34.6146119,4.38397869 C34.4907708,4.05302936 33.9053401,2.49373682 33.7521024,2.38007111 C33.0103067,1.82367434 31.1626975,1.19631499 29.9130281,1.19003512 C26.1214889,1.17559141 23.6146448,3.98332277 23.6146448,8.96703023 C23.6146448,12.5402781 25.3183981,16.8269197 29.6534622,16.8269197 C31.2058542,16.8269197 34.181168,16.3364616 34.9898879,14.1171543 C35.3564076,13.1130026 35.6916542,12.2200046 35.9337072,12.4919231 C36.1144652,12.6891111 35.8799177,13.4941909 35.7717131,13.9268742 C35.2607122,15.9835327 35.2338174,16.6077521 35.0718232,16.6868785 C33.1135076,17.6753305 30.6016597,18 28.4031674,18 C21.4130251,18 19,13.9048946 19,9.81167319 C19,2.70725251 23.3456969,-0.285735107 30.0819024,0.0213506983 C31.7862812,0.0847774188 33.4925364,0.389979262 35.0874597,0.994731062" id="Fill-6"></path>
                <path d="M14.3675026,1.86441089 L13.2879176,1.48558488 C12.9272517,1.15714759 13.3681325,1.06547656 13.3681325,1.06547656 C13.3681325,1.06547656 14.9278011,1.35748827 18.813704,1.02601551 C18.813704,1.02601551 19.1508481,1.09279574 18.9180438,1.36841594 L17.6430479,1.91783507 C16.8125515,2.28330503 16.8125515,2.07385796 16.8125515,2.98996123 L16.805314,11.4965477 C16.805314,18.1484652 10.0835404,17.9997275 8.7747698,17.9997275 C8.14993737,17.9997275 1.9842405,17.9997275 1.9842405,12.6591307 L1.9842405,3.65533511 C1.9842405,2.08539272 2.15130477,2.12606795 1.6332246,1.94272588 L0.0741591235,1.35384571 C0.0741591235,1.35384571 -0.190610604,0.976840985 0.2804262,1.0011247 C1.55542211,1.06547656 3.40036652,1.34048967 7.73981569,1.02601551 C7.73981569,1.02601551 8.11736888,1.11768655 7.8688834,1.39269966 L6.57157204,1.7599909 C5.58366131,2.20620422 5.71453837,1.86441089 5.68800109,2.88554124 L5.71936333,11.7642757 C5.71936333,13.940704 6.83211993,16.6361967 10.332629,16.6361967 C15.0966748,16.6361967 15.1419088,12.4879305 15.1419088,11.5657563 L15.1503525,2.77080067 C15.2010145,1.94272588 15.0966748,2.17827794 14.3675026,1.86441089" id="Fill-7"></path>
            </g>
            <g id="ANR" transform="translate(115.000000, 0.000000)">
                <path d="M11.4230725,6.01982308 C11.4230725,8.86866923 12.4933135,9.32870769 13.4167786,9.32870769 C14.5012894,9.32870769 15.4115039,8.8074 15.4115039,5.88274615 L15.4115039,1.28651538 C15.4115039,0.995053846 15.5181882,0.934476923 15.7053954,0.904015385 C16.09374,0.857976923 16.6159496,0.8424 16.8830002,0.8424 C16.856499,1.45474615 16.8429087,2.35820769 16.8429087,3.62997692 L16.8429087,5.80555385 C16.8429087,10.0950923 14.8624533,10.7070923 13.2295713,10.7070923 C10.9681352,10.7070923 9.75009904,9.3744 9.75009904,6.08143846 L9.75009904,2.94078462 C9.75009904,1.91409231 9.73650867,1.28651538 9.70966771,0.964592308 C9.95055687,0.918207692 10.8743617,0.8424 11.1420918,0.8424 C11.3826412,0.8424 11.4230725,0.980169231 11.4230725,1.73063077 L11.4230725,6.01982308 Z" id="Fill-1"></path>
                <path d="M22.476861,6.34164231 C22.476861,5.45341154 22.0613357,4.94768077 21.4732128,4.94768077 C20.9510031,4.94768077 20.6160007,5.22356538 20.3217694,5.51398846 L20.3217694,10.0953346 C20.3217694,10.3705269 20.2813381,10.4466808 20.0139477,10.4771423 C19.5590104,10.5536423 19.1438248,10.5699115 18.6623863,10.5699115 C18.6888875,9.75714231 18.7028176,8.82356538 18.7028176,7.78164231 L18.7028176,5.26856538 C18.7028176,4.80956538 18.6491357,4.58041154 18.4483381,4.44264231 L18.4483381,4.33498846 C18.5822031,3.95248846 19.0371405,3.55337308 19.4519863,3.55337308 C19.9606055,3.55337308 20.1614031,4.10514231 20.241926,4.58041154 C20.7902971,4.02795 21.4324417,3.55337308 22.101767,3.55337308 C23.8012417,3.55337308 24.0961525,5.16195 24.0961525,6.35652692 L24.0961525,8.28668077 C24.0961525,9.08318077 24.1094031,9.92571923 24.1494947,10.4466808 C23.8420128,10.4771423 23.3062128,10.5699115 22.7439116,10.5699115 C22.5434537,10.5699115 22.476861,10.4771423 22.476861,10.2777577 L22.476861,6.34164231 Z" id="Fill-3"></path>
                <path d="M27.5480364,10.1094231 C27.5480364,10.3853077 27.4546027,10.4625 27.1600316,10.5075 C26.8919617,10.5535385 26.4105231,10.5698077 25.8883135,10.5698077 C25.9015641,9.94188462 25.9284051,9.05192308 25.9284051,8.16438462 L25.9284051,5.54434615 C25.9284051,4.61076923 25.9015641,4.13619231 25.8750629,3.82846154 C26.1825448,3.72184615 27.0261665,3.64534615 27.3071472,3.64534615 C27.4946942,3.64534615 27.5480364,3.72184615 27.5480364,4.61076923 L27.5480364,10.1094231 Z M26.7720267,0.336807692 C27.2803063,0.336807692 27.5884677,0.766038462 27.5884677,1.33269231 C27.5884677,1.91388462 27.2269641,2.37496154 26.7183448,2.37496154 C26.303499,2.37496154 25.8750629,2.08315385 25.8750629,1.37838462 C25.8750629,0.627923077 26.4237737,0.336807692 26.7584364,0.336807692 L26.7720267,0.336807692 Z" id="Fill-5"></path>
                <path d="M30.0238945,3.55347692 C30.1978511,3.55347692 30.3041957,3.69124615 30.371468,3.90586154 C30.6796294,4.93255385 31.2008198,6.64774615 31.6832776,8.47128462 C32.2183981,6.70866923 32.8340414,4.80966923 33.1687041,3.55347692 C33.5434583,3.55347692 33.8645306,3.62997692 34.1859427,3.79820769 C34.4665836,3.93597692 34.3999908,4.27347692 34.2124439,4.82593846 C33.6504824,6.4179 32.8873836,8.50174615 32.3250824,10.1092846 C32.245239,10.3547077 32.1249643,10.4467846 31.9241667,10.5077077 C31.5888246,10.5994385 31.1345667,10.6610538 30.8664969,10.6610538 C30.4248101,9.16013077 29.930121,7.71943846 29.3277282,5.91355385 C29.0596583,5.10113077 28.8592005,4.48774615 28.6315619,3.93597692 C28.9397234,3.73728462 29.6488005,3.55347692 30.0103041,3.55347692 L30.0238945,3.55347692 Z" id="Fill-7"></path>
                <path d="M37.7587467,4.62641538 C37.2630383,4.62641538 36.7279178,5.16191538 36.6742359,6.31114615 C37.2232865,6.35649231 38.2534359,6.34160769 38.5741684,6.31114615 C38.6686214,6.31114615 38.7488046,6.1578 38.7488046,5.98956923 C38.7620552,5.23910769 38.4542335,4.62641538 37.7716576,4.62641538 L37.7587467,4.62641538 Z M40.0065925,8.9613 C40.0065925,9.63491538 39.5384046,10.2635308 39.3104263,10.3853769 C39.1103082,10.4926846 38.5344166,10.6612615 38.0658889,10.6612615 C36.1119347,10.6612615 35.041354,9.43553077 35.041354,7.18345385 C35.041354,5.33014615 36.0986841,3.55333846 37.9055227,3.55333846 C39.6053371,3.55333846 40.2603925,4.96253077 40.2746624,6.18895385 C40.2746624,6.40391538 40.2603925,6.57145385 40.2342311,6.69399231 C40.1937998,6.92383846 39.6586793,7.1388 39.1103082,7.29145385 C38.7753058,7.38422308 37.3836528,7.39841538 36.6473949,7.36726154 C36.7143275,8.71656923 37.57086,9.28322308 38.4810745,9.28322308 C39.1235588,9.28322308 39.7524528,9.05199231 39.9804311,8.93049231 L40.0065925,8.9613 Z" id="Fill-9"></path>
                <path d="M41.2770875,4.34990769 C41.3844513,3.99752308 41.8927308,3.55340769 42.2542345,3.55340769 C42.8433766,3.55340769 43.083926,4.19725385 43.0971766,5.1471 C43.4855212,4.10517692 44.0474827,3.55340769 44.7568995,3.55340769 C45.011379,3.55340769 45.2655188,3.69152308 45.3857935,3.81440769 C45.4530658,3.98229231 45.4398152,4.42571538 45.3056104,4.71752308 C45.2519284,5.04013846 44.9841983,5.40671538 44.7834007,5.43786923 C44.5160104,5.31602308 44.3688947,5.28486923 44.1419357,5.28486923 C43.927208,5.28486923 43.5392031,5.46867692 43.3244754,6.11113846 C43.2442923,6.35656154 43.2042007,6.52479231 43.2042007,6.86229231 L43.2042007,10.0635231 C43.2042007,10.3089462 43.1776995,10.4318308 42.9103092,10.4927538 C42.4421212,10.5536769 42.0262561,10.5699462 41.5448176,10.5699462 C41.5713188,9.75717692 41.5849092,8.8236 41.5849092,7.78167692 L41.5849092,5.19244615 C41.5849092,4.84006154 41.504726,4.56417692 41.2770875,4.41152308 L41.2770875,4.34990769 Z" id="Fill-11"></path>
                <path d="M48.3430222,3.55347692 C48.8784824,3.55347692 49.4003523,3.70682308 49.8416993,4.09036154 C49.8552896,4.48774615 49.6949234,5.08555385 49.2263957,5.04020769 C48.9583258,4.90209231 48.6236631,4.79478462 48.3029306,4.79478462 C47.9009957,4.79478462 47.6200149,5.04020769 47.6200149,5.40678462 C47.6200149,5.72836154 47.8347427,5.91355385 48.1150439,6.09632308 C48.3698631,6.26524615 48.9049836,6.54113077 49.2131451,6.72493846 C49.8817908,7.15347692 50.149521,7.73570769 50.149521,8.40966923 C50.149521,9.92547692 48.9722559,10.6610538 47.7545595,10.6610538 C47.2320101,10.6610538 46.6703884,10.4928231 46.3088848,10.2325154 C46.1345884,10.0950923 46.0143137,9.91128462 46.0143137,9.68074615 C46.0279041,9.35951538 46.17468,9.02236154 46.3625667,8.85413077 C46.7505716,9.12897692 47.3264631,9.40486154 47.8609041,9.40486154 C48.3430222,9.40486154 48.6236631,9.14455385 48.6236631,8.76274615 C48.6236631,8.48616923 48.4904776,8.28678462 48.102133,8.05763077 C47.7678101,7.84266923 47.4188776,7.65920769 47.0848945,7.44355385 C46.5365234,7.09220769 46.1481788,6.50997692 46.1481788,5.69859231 C46.1481788,4.33509231 47.178668,3.55347692 48.3294318,3.55347692 L48.3430222,3.55347692 Z" id="Fill-13"></path>
                <path d="M53.0269742,10.1094231 C53.0269742,10.3853077 52.9332007,10.4625 52.6382899,10.5075 C52.3708995,10.5535385 51.8891212,10.5698077 51.3669116,10.5698077 C51.3805019,9.94188462 51.4073429,9.05192308 51.4073429,8.16438462 L51.4073429,5.54434615 C51.4073429,4.61076923 51.3805019,4.13619231 51.353661,3.82846154 C51.6614827,3.72184615 52.5051043,3.64534615 52.7857453,3.64534615 C52.9729525,3.64534615 53.0269742,3.72184615 53.0269742,4.61076923 L53.0269742,10.1094231 Z M52.2506248,0.336807692 C52.7589043,0.336807692 53.066726,0.766038462 53.066726,1.33269231 C53.066726,1.91388462 52.7052224,2.37496154 52.1972827,2.37496154 C51.7817573,2.37496154 51.353661,2.08315385 51.353661,1.37838462 C51.353661,0.627923077 51.9023718,0.336807692 52.2370345,0.336807692 L52.2506248,0.336807692 Z" id="Fill-15"></path>
                <path d="M58.4594834,9.09868846 C58.5260761,9.46630385 58.4734135,9.94191923 58.2318448,10.1710731 C57.9111123,10.49265 57.3488111,10.6612269 56.7600087,10.6612269 C55.3945171,10.6612269 54.9531701,9.66603462 54.9531701,8.60853462 L54.9531701,4.94761154 C54.4581412,4.94761154 54.2040014,4.67103462 54.2040014,4.51838077 C54.3908689,4.07391923 55.4753798,2.97211154 55.7026786,2.75784231 C55.9303171,2.54288077 56.1844569,2.35803462 56.7063267,2.29745769 C56.6529846,2.75784231 56.6261436,3.30788077 56.6261436,3.73745769 L58.606599,3.73745769 C58.4462328,4.79461154 58.1520014,4.83995769 57.8842713,4.87041923 C57.5761099,4.90226538 57.1480135,4.93272692 56.586052,4.93272692 C56.5323701,6.18891923 56.5459605,7.67426538 56.5993027,8.31776538 C56.6665749,9.06891923 57.027399,9.34480385 57.4826761,9.34480385 C57.8842713,9.34480385 58.2590255,9.19007308 58.4197316,9.06891923 L58.4594834,9.09868846 Z" id="Fill-17"></path>
                <path d="M59.7571251,12.9739846 C60.15906,12.4689462 60.9619106,11.1971769 61.4569395,10.1251385 C61.3903467,10.0174846 61.2428913,9.69625385 61.1627082,9.45152308 C60.9085684,8.71663846 59.744554,5.19244615 59.2352552,3.96706154 C59.6103492,3.75279231 60.2660841,3.55340769 60.600407,3.55340769 C60.8412961,3.55340769 60.9085684,3.73721538 61.0023419,3.98194615 C61.3370046,4.97783077 61.9791492,7.1226 62.2995419,8.27252308 C62.7819998,6.87717692 63.3575516,4.64136923 63.5315082,3.55340769 C63.7988986,3.56967692 64.1206504,3.61502308 64.4549733,3.72163846 C64.7760455,3.81440769 64.8164769,4.01379231 64.7356142,4.38106154 C64.3883805,5.97302308 63.8393299,7.91944615 63.0633202,9.77344615 C62.2067877,11.8098692 61.1494576,13.6026 60.8412961,13.6026 C60.3727684,13.6026 59.9045805,13.2654462 59.7571251,13.0356 L59.7571251,12.9739846 Z" id="Fill-19"></path>
                <path d="M70.2163352,8.38813846 C70.6481689,8.18598462 71.1285882,6.99486923 71.1285882,5.45517692 C71.1187352,4.57975385 70.8442099,4.18548462 70.4711545,4.18548462 C70.3824773,4.18548462 70.2747737,4.20867692 70.1864364,4.25402308 C69.8820123,4.41083077 69.2643304,5.35444615 69.2643304,7.15167692 C69.2643304,8.00563846 69.5684147,8.44352308 69.9411304,8.44352308 C70.058687,8.44352308 70.1279978,8.42206154 70.2163352,8.38813846 M68.1556966,7.11844615 C68.1556966,5.6466 68.8623954,4.56833077 69.6275328,4.10725385 C70.0196147,3.87117692 70.4514484,3.71367692 70.8340171,3.71367692 C71.7466099,3.71367692 72.2372219,4.39940769 72.2372219,5.48979231 C72.2372219,6.46663846 71.8937255,7.52275385 71.1873665,8.20813846 C70.7653858,8.62490769 70.1572171,8.92779231 69.5684147,8.92779231 C68.479487,8.92779231 68.1556966,7.99456154 68.1556966,7.11844615" id="Fill-21"></path>
                <path d="M73.8276,3.90572308 C74.0039349,3.01749231 74.2400675,2.30891538 74.7007807,1.77064615 C75.2114386,1.17422308 75.8287807,0.859915385 76.2215422,0.859915385 C76.6526964,0.859915385 76.8983422,1.16349231 76.8891687,1.4103 C76.8782964,1.6578 76.692788,1.89387692 76.5653783,1.99495385 C76.4763614,2.05206923 76.3887036,2.06210769 76.3092,1.96137692 C76.0649133,1.63599231 75.8484867,1.44491538 75.652106,1.44491538 C75.4071398,1.43383846 75.1808602,1.7478 74.8774554,3.90572308 L76.0057952,3.90572308 L75.7900482,4.32076154 L74.7891181,4.42149231 C74.6222964,5.52295385 74.5040602,6.38833846 74.2495807,7.65803077 C73.8863783,9.53349231 73.4643976,10.3088769 72.8361831,10.9613769 C72.4142024,11.3992615 72.0316337,11.5899923 71.7469157,11.5899923 C71.4428313,11.5899923 71.1000145,11.3431846 71.1095277,11.0728385 C71.1095277,10.8485308 71.2658169,10.6238769 71.4234651,10.4895692 C71.5019494,10.4217231 71.5607277,10.4103 71.629359,10.4663769 C71.8060337,10.6685308 72.1498699,10.8253385 72.3462506,10.8253385 C72.5032193,10.8253385 72.6200964,10.7367231 72.6989205,10.5678 C72.7777446,10.4103 72.9245205,9.98383846 73.2092386,8.06164615 C73.4450313,6.51191538 73.572441,5.52295385 73.7392627,4.42149231 L72.9442265,4.42149231 L72.9048145,4.29791538 L73.2286048,3.90572308 L73.8276,3.90572308 Z" id="Fill-23"></path>
                <path d="M85.9179253,8.97632308 C85.8781735,9.49693846 85.7042169,9.94174615 85.4758988,10.1864769 C85.1415759,10.4319 84.432159,10.7070923 83.5355349,10.7070923 C80.4844988,10.7070923 78.8380265,8.71670769 78.8380265,5.78997692 C78.8380265,2.6199 80.9397759,0.673476923 83.5888771,0.673476923 C84.8609349,0.673476923 85.8384217,1.16363077 86.0521301,1.44020769 C86.0786313,1.96047692 85.7704699,2.48178462 85.3427133,2.40493846 C84.9411181,2.20520769 84.3118843,1.99093846 83.5752867,1.99093846 C81.9570145,1.99093846 80.6316145,3.20109231 80.6316145,5.65186154 C80.6316145,7.73570769 81.7956289,9.32870769 83.9238795,9.32870769 C84.8205036,9.32870769 85.5302602,9.06909231 85.8781735,8.94516923 L85.9179253,8.97632308 Z" id="Fill-25"></path>
                <path d="M88.3798533,8.50171154 C88.3798533,9.03721154 88.7406773,9.34494231 89.1694533,9.34494231 C89.5438677,9.34494231 89.7582557,9.17567308 89.9451231,8.94513462 C90.0123954,8.85409615 90.0528267,8.69971154 90.0528267,8.42451923 L90.0528267,7.33759615 C88.8881328,7.49094231 88.3798533,7.98109615 88.3798533,8.48613462 L88.3798533,8.50171154 Z M92.2870822,9.37436538 C92.3010123,10.1864423 91.9262581,10.6610192 91.1628195,10.6610192 C90.6147882,10.6610192 90.2539641,10.3401346 90.079328,9.80394231 C89.7310749,10.2324808 89.1422725,10.6610192 88.500128,10.6610192 C87.6167545,10.6610192 86.8271545,9.89498077 86.8271545,8.76271154 C86.8271545,7.18321154 88.4328557,6.75536538 89.3831617,6.50994231 C89.6247304,6.44901923 89.9179424,6.40367308 90.079328,6.35659615 L90.079328,6.09628846 C90.079328,5.45313462 89.6909834,4.93251923 89.0223376,4.93251923 C88.5405593,4.93251923 88.0720316,5.17725 87.7774605,5.37628846 C87.2158388,5.56009615 87.0276123,5.00832692 87.0276123,4.55001923 C87.6035039,4.07405769 88.5538099,3.55344231 89.4507737,3.55344231 C90.65454,3.55344231 91.6313472,4.47213462 91.6313472,6.14232692 C91.6313472,6.77025 91.5783448,7.93436538 91.5783448,8.93025 C91.5783448,9.12894231 91.7390508,9.34494231 92.0601231,9.34494231 C92.1263761,9.34494231 92.2208292,9.32867308 92.2870822,9.31378846 L92.2870822,9.37436538 Z" id="Fill-27"></path>
                <path d="M93.5306342,1.99104231 C93.5306342,1.08792692 93.505492,0.673234615 93.4776318,0.367234615 C93.7457017,0.229119231 94.6148053,0.0920423077 94.8964655,0.0920423077 C95.0972631,0.0920423077 95.1512848,0.168196154 95.1512848,1.08792692 L95.1512848,8.45511923 C95.1512848,9.20696538 95.177786,10.0321962 95.2042872,10.47735 C94.9236463,10.5535038 93.906068,10.5995423 93.7192005,10.5995423 C93.5849957,10.5995423 93.5306342,10.5535038 93.5306342,10.4015423 L93.5306342,1.99104231 Z" id="Fill-29"></path>
                <path d="M98.5765995,10.1094231 C98.5765995,10.3853077 98.4831658,10.4625 98.1882549,10.5075 C97.9208646,10.5535385 97.4390863,10.5698077 96.9161971,10.5698077 C96.9301272,9.94188462 96.957308,9.05192308 96.957308,8.16438462 L96.957308,5.54434615 C96.957308,4.61076923 96.9301272,4.13619231 96.9029465,3.82846154 C97.2107682,3.72184615 98.0543899,3.64534615 98.3350308,3.64534615 C98.5222381,3.64534615 98.5765995,3.72184615 98.5765995,4.61076923 L98.5765995,10.1094231 Z M97.8002501,0.336807692 C98.3085296,0.336807692 98.6163513,0.766038462 98.6163513,1.33269231 C98.6163513,1.91388462 98.2555272,2.37496154 97.7465682,2.37496154 C97.3317224,2.37496154 96.9029465,2.08315385 96.9029465,1.37838462 C96.9029465,0.627923077 97.4516573,0.336807692 97.7869995,0.336807692 L97.8002501,0.336807692 Z" id="Fill-31"></path>
                <path d="M103.140107,0 C103.515201,0 103.875346,0.137769231 104.063232,0.352384615 C104.143415,0.734884615 103.862095,1.40815385 103.500931,1.37838462 C103.394247,1.33269231 103.246791,1.30223077 103.140107,1.30223077 C102.483693,1.30223077 102.14937,2.00596154 102.189121,3.73742308 C102.376329,3.73742308 103.47375,3.753 103.795162,3.70696154 C103.755411,4.212 103.554953,4.56438462 103.380996,4.70215385 C103.20704,4.8555 102.738512,4.91573077 102.14937,4.91573077 C102.14937,6.20376923 102.202372,9.60507692 102.202372,10.4469231 C101.773936,10.5223846 100.904493,10.5698077 100.717285,10.5698077 C100.58342,10.5698077 100.502897,10.5393462 100.502897,10.3088077 C100.543329,8.65453846 100.530078,6.80123077 100.530078,4.91573077 C100.007868,4.87038462 99.7537287,4.70215385 99.7537287,4.36534615 C99.9806877,4.06003846 100.195755,3.96726923 100.530078,3.73742308 C100.530078,2.17488462 100.917743,1.30223077 101.467133,0.704423077 C102.028755,0.122538462 102.617897,0 103.126177,0 L103.140107,0 Z" id="Fill-33"></path>
                <path d="M106.846267,4.68726923 C106.030165,4.68726923 105.588139,5.652 105.588139,6.96980769 C105.588139,8.71684615 106.230963,9.52719231 106.993722,9.52719231 C107.823074,9.52719231 108.23792,8.59292308 108.23792,7.18338462 C108.23792,5.88253846 107.837004,4.68726923 106.859517,4.68726923 L106.846267,4.68726923 Z M106.993722,3.55361538 C108.920495,3.55361538 109.938074,5.11580769 109.938074,7.01515385 C109.938074,9.16026923 108.720377,10.6611923 106.846267,10.6611923 C105.119611,10.6611923 103.888664,9.34476923 103.888664,7.16919231 C103.888664,5.08534615 105.187223,3.55361538 106.980471,3.55361538 L106.993722,3.55361538 Z" id="Fill-35"></path>
                <path d="M111.07467,4.34990769 C111.181354,3.99752308 111.690313,3.55340769 112.051477,3.55340769 C112.640619,3.55340769 112.880829,4.19725385 112.894079,5.1471 C113.283103,4.10517692 113.845065,3.55340769 114.554482,3.55340769 C114.807942,3.55340769 115.062761,3.69152308 115.183715,3.81440769 C115.249968,3.98229231 115.236718,4.42571538 115.102513,4.71752308 C115.049511,5.04013846 114.781441,5.40671538 114.580983,5.43786923 C114.312913,5.31602308 114.165797,5.28486923 113.938838,5.28486923 C113.72513,5.28486923 113.336106,5.46867692 113.122397,6.11113846 C113.041535,6.35656154 113.001783,6.52479231 113.001783,6.86229231 L113.001783,10.0635231 C113.001783,10.3089462 112.975282,10.4318308 112.707212,10.4927538 C112.238684,10.5536769 111.824518,10.5699462 111.34138,10.5699462 C111.369241,9.75717692 111.382491,8.8236 111.382491,7.78167692 L111.382491,5.19244615 C111.382491,4.84006154 111.301629,4.56417692 111.07467,4.41152308 L111.07467,4.34990769 Z" id="Fill-37"></path>
                <path d="M120.173858,6.34164231 C120.173858,5.45341154 119.759692,4.94768077 119.17055,4.94768077 C118.64834,4.94768077 118.314357,5.22356538 118.019107,5.51398846 L118.019107,10.0953346 C118.019107,10.3705269 117.979355,10.4466808 117.711964,10.4771423 C117.256687,10.5536423 116.842521,10.5699115 116.360063,10.5699115 C116.386904,9.75714231 116.400155,8.82356538 116.400155,7.78164231 L116.400155,5.26856538 C116.400155,4.80956538 116.346133,4.58041154 116.146015,4.44264231 L116.146015,4.33498846 C116.27988,3.95248846 116.735157,3.55337308 117.150003,3.55337308 C117.658962,3.55337308 117.85942,4.10514231 117.938923,4.58041154 C118.488314,4.02795 119.130798,3.55337308 119.800123,3.55337308 C121.498239,3.55337308 121.794509,5.16195 121.794509,6.35652692 L121.794509,8.28668077 C121.794509,9.08318077 121.80708,9.92571923 121.847511,10.4466808 C121.53901,10.4771423 121.004569,10.5699115 120.441928,10.5699115 C120.240791,10.5699115 120.173858,10.4771423 120.173858,10.2777577 L120.173858,6.34164231 Z" id="Fill-39"></path>
                <path d="M125.258964,10.1094231 C125.258964,10.3853077 125.16553,10.4625 124.870619,10.5075 C124.603229,10.5535385 124.121451,10.5698077 123.59992,10.5698077 C123.612492,9.94188462 123.639672,9.05192308 123.639672,8.16438462 L123.639672,5.54434615 C123.639672,4.61076923 123.612492,4.13619231 123.58599,3.82846154 C123.893812,3.72184615 124.736754,3.64534615 125.018075,3.64534615 C125.205961,3.64534615 125.258964,3.72184615 125.258964,4.61076923 L125.258964,10.1094231 Z M124.483294,0.336807692 C124.991573,0.336807692 125.298716,0.766038462 125.298716,1.33269231 C125.298716,1.91388462 124.938571,2.37496154 124.430292,2.37496154 C124.014766,2.37496154 123.58599,2.08315385 123.58599,1.37838462 C123.58599,0.627923077 124.134701,0.336807692 124.470043,0.336807692 L124.483294,0.336807692 Z" id="Fill-41"></path>
                <path d="M128.136961,8.50171154 C128.136961,9.03721154 128.497785,9.34494231 128.925881,9.34494231 C129.300975,9.34494231 129.514684,9.17567308 129.702231,8.94513462 C129.769503,8.85409615 129.809255,8.69971154 129.809255,8.42451923 L129.809255,7.33759615 C128.64524,7.49094231 128.136961,7.98109615 128.136961,8.48613462 L128.136961,8.50171154 Z M132.04419,9.37436538 C132.05744,10.1864423 131.683366,10.6610192 130.919927,10.6610192 C130.371896,10.6610192 130.010392,10.3401346 129.835756,9.80394231 C129.488182,10.2324808 128.89938,10.6610192 128.256556,10.6610192 C127.373862,10.6610192 126.584262,9.89498077 126.584262,8.76271154 C126.584262,7.18321154 128.189963,6.75536538 129.140269,6.50994231 C129.381158,6.44901923 129.67505,6.40367308 129.835756,6.35659615 L129.835756,6.09628846 C129.835756,5.45313462 129.448091,4.93251923 128.778766,4.93251923 C128.296987,4.93251923 127.829139,5.17725 127.534568,5.37628846 C126.971587,5.56009615 126.78472,5.00832692 126.78472,4.55001923 C127.360611,4.07405769 128.309558,3.55344231 129.206522,3.55344231 C130.411647,3.55344231 131.388455,4.47213462 131.388455,6.14232692 C131.388455,6.77025 131.335452,7.93436538 131.335452,8.93025 C131.335452,9.12894231 131.496158,9.34494231 131.815872,9.34494231 C131.883484,9.34494231 131.977257,9.32867308 132.04419,9.31378846 L132.04419,9.37436538 Z" id="Fill-43"></path>
                <path d="M12.4893043,18.8565923 L12.4624634,18.8565923 C12.2005092,19.6710923 11.9572417,20.4942462 11.704461,21.2876308 L13.2024586,21.2876308 L12.4893043,18.8565923 Z M13.3016682,24.1524 L13.3016682,23.8138615 C13.8425646,23.7186692 13.8965863,23.6023615 13.7705357,23.1582462 C13.671326,22.8096692 13.5180947,22.3125923 13.3556899,21.8054769 L11.5604031,21.8054769 C11.4428465,22.1969769 11.3164561,22.5985154 11.2084128,23.0208231 C11.0551814,23.5923231 11.1000296,23.7186692 11.7588224,23.8138615 L11.7588224,24.1524 L9.76443687,24.1524 L9.76443687,23.8138615 C10.3512007,23.7186692 10.4680778,23.6238231 10.77522,22.7144769 L12.6245284,17.2500923 L13.0220465,17.1220154 C13.5992971,18.9625154 14.167714,20.8642846 14.7541381,22.6826308 C15.051767,23.6137846 15.1693236,23.7287077 15.7465742,23.8138615 L15.7465742,24.1524 L13.3016682,24.1524 Z" id="Fill-45"></path>
                <path d="M17.9589831,19.7337808 C17.6521807,19.7337808 17.3545518,20.1571269 17.3545518,20.9494731 C17.3545518,21.7106654 17.6069928,22.30155 18.0585325,22.3126269 C18.4281904,22.30155 18.6717976,21.8795885 18.6717976,21.08655 C18.6717976,20.3468192 18.4281904,19.7337808 17.9681566,19.7337808 L17.9589831,19.7337808 Z M18.0765398,24.3421269 C17.6430072,24.3421269 17.444588,24.3954346 17.3001904,24.56505 C17.1377855,24.7443577 17.0205687,24.9451269 17.0205687,25.1988577 C17.0205687,25.7374731 17.4986096,26.2141269 18.1940964,26.2141269 C18.9422458,26.2141269 19.3574313,25.7482038 19.3574313,25.1566269 C19.3574313,24.7869346 19.1681855,24.5435885 18.8878843,24.44805 C18.6534506,24.3642808 18.4370241,24.3421269 18.0857133,24.3421269 L18.0765398,24.3421269 Z M20.2866723,19.5967038 C20.2238169,19.7763577 20.0522386,20.0937808 19.8986675,20.1986654 L19.3849518,20.1571269 C19.5286699,20.3786654 19.6282193,20.6531654 19.6282193,21.0121269 C19.6282193,22.1336654 18.7978482,22.6826654 17.9589831,22.6826654 C17.805412,22.6826654 17.6521807,22.6515115 17.5077831,22.63005 C17.4265807,22.7141654 17.3362048,22.8519346 17.3362048,22.9789731 C17.3362048,23.1582808 17.4897759,23.3805115 17.9049614,23.3805115 C18.2117639,23.3805115 18.4913855,23.3587038 18.779841,23.3587038 C19.3485976,23.3587038 20.133441,23.5605115 20.133441,24.6391269 C20.133441,25.8015115 18.9874337,26.7845885 17.7874048,26.7845885 C16.6777518,26.7845885 16.1453494,26.0874346 16.1453494,25.4944731 C16.1453494,25.2507808 16.2353855,25.0721654 16.3981301,24.9132808 C16.6057229,24.7021269 16.8853446,24.4899346 17.1017711,24.3109731 C16.7497807,24.1628192 16.5517012,23.9513192 16.4338048,23.7187038 C16.3441084,23.5605115 16.2985807,23.32755 16.3169277,23.20155 C16.740947,23.0108192 17.0300819,22.7248962 17.1924867,22.5241269 C16.695759,22.3126269 16.3349349,21.7944346 16.3349349,21.1183962 C16.3349349,19.9238192 17.2645157,19.3748192 18.0313518,19.3748192 L18.0405253,19.3748192 C18.3833422,19.3748192 18.6534506,19.4585885 18.9694265,19.6493192 C19.4298,19.6282038 19.8986675,19.5645115 20.2418241,19.5118962 L20.2866723,19.5967038 Z" id="Fill-47"></path>
                <path d="M22.272326,20.4943846 C22.5794682,19.8716538 22.9494658,19.3749231 23.3194634,19.3749231 C23.6619405,19.3749231 23.896714,19.6594615 23.896714,19.9872692 C23.896714,20.2939615 23.7251357,20.5688077 23.5087092,20.664 C23.3911525,20.7169615 23.3007766,20.6961923 23.2470947,20.6314615 C23.0935236,20.4843462 22.9854802,20.4099231 22.8410827,20.4099231 C22.6426634,20.4099231 22.4258971,20.6113846 22.2546586,21.0973846 L22.2546586,23.0528077 C22.2546586,23.7184615 22.2998465,23.7721154 22.9946537,23.8347692 L22.9946537,24.1521923 L20.6669646,24.1521923 L20.6669646,23.8347692 C21.18102,23.7721154 21.2622224,23.7184615 21.2622224,23.0528077 L21.2622224,20.7796154 C21.2622224,20.1887308 21.2082007,20.1458077 20.7474875,20.0395385 L20.7474875,19.7650385 C21.2530489,19.6816154 21.7406031,19.5545769 22.2546586,19.3538077 L22.2546586,20.4943846 L22.272326,20.4943846 Z" id="Fill-49"></path>
                <path d="M24.7372439,17.9472462 C24.7372439,17.5675154 25.0073523,17.2708615 25.3148342,17.2708615 C25.6389643,17.2708615 25.8917451,17.5675154 25.8917451,17.9472462 C25.8917451,18.3062077 25.6389643,18.6135923 25.3056607,18.6135923 C25.0073523,18.6135923 24.7372439,18.3062077 24.7372439,17.9472462 L24.7372439,17.9472462 Z M24.2860439,24.1524 L24.2860439,23.8349769 C24.82728,23.7612462 24.8813017,23.7186692 24.8813017,22.9789385 L24.8813017,20.8539 C24.8813017,20.1775154 24.82728,20.1345923 24.357733,20.0511692 L24.357733,19.7548615 C24.872468,19.6818231 25.4133643,19.5437077 25.8740776,19.3640538 L25.8740776,22.9789385 C25.8740776,23.6968615 25.9189258,23.7612462 26.4778294,23.8349769 L26.4778294,24.1524 L24.2860439,24.1524 Z" id="Fill-51"></path>
                <path d="M30.4485933,23.1581423 C30.042921,23.8141038 29.4473234,24.2796808 28.9057475,24.2796808 C27.7063981,24.2796808 27.0020776,23.1899885 27.0020776,22.0497577 C27.0020776,21.2567192 27.3268872,20.5266808 27.9133113,20.0088346 C28.4545475,19.5325269 29.0324776,19.3746808 29.3749547,19.3746808 L29.3837884,19.3746808 C29.7181113,19.3746808 30.01608,19.4909885 30.1689716,19.6391423 C30.2950222,19.7547577 30.3313764,19.8617192 30.3313764,19.9977577 C30.3225427,20.2726038 30.1061161,20.5377577 29.970892,20.5377577 C29.9161908,20.5377577 29.8621692,20.5052192 29.7813065,20.4207577 C29.4473234,20.0711423 29.1496945,19.9136423 28.869733,19.9136423 C28.4277065,19.9136423 27.9853402,20.3788731 27.9853402,21.5090654 C27.9853402,22.9362577 28.8425523,23.4021808 29.2757451,23.4021808 C29.6552559,23.4021808 29.9257041,23.2844885 30.2861884,22.9158346 L30.4485933,23.1581423 Z" id="Fill-53"></path>
                <path d="M35.4758039,23.8984615 C35.2406906,23.9413846 34.9882496,23.9936538 34.708628,24.0680769 C34.4473533,24.1317692 34.1762255,24.2162308 33.9417918,24.2799231 L33.8789364,24.2051538 L33.8789364,23.5294615 C33.6981846,23.6876538 33.5626207,23.8347692 33.3458545,23.9829231 C33.08424,24.1733077 32.8589798,24.2799231 32.5970255,24.2799231 C31.8933846,24.2799231 31.4333508,23.7613846 31.4333508,22.7468077 L31.4333508,20.6113846 C31.4333508,20.0938846 31.3704954,20.0395385 31.1445557,19.9661538 L30.9189557,19.9028077 L30.9189557,19.6068462 C31.1360617,19.5968077 31.3885027,19.5756923 31.6772978,19.5438462 C31.9565798,19.512 32.2453749,19.4586923 32.4529677,19.4275385 C32.4353002,19.8290769 32.4261267,20.3469231 32.4261267,21.0021923 L32.4261267,22.4923846 C32.4261267,23.2746923 32.7689436,23.5176923 33.1114207,23.5176923 C33.3822087,23.5176923 33.6346496,23.4228462 33.8789364,23.1476538 L33.8789364,20.6113846 C33.8789364,20.0938846 33.8150617,20.0301923 33.5531075,19.9661538 L33.2561581,19.9028077 L33.2561581,19.6068462 C33.5174328,19.5968077 33.8334087,19.5756923 34.1218641,19.5327692 C34.4201725,19.512 34.690281,19.4586923 34.870693,19.4275385 L34.870693,22.8946154 C34.870693,23.4439615 34.9247147,23.5294615 35.2583581,23.5713462 L35.4758039,23.5921154 L35.4758039,23.8984615 Z" id="Fill-55"></path>
                <path d="M35.864828,24.1523308 L35.864828,23.8349077 C36.4148978,23.7511385 36.4689195,23.6971385 36.4689195,23.0107154 L36.4689195,18.1161 C36.4689195,17.4504462 36.4240713,17.4189462 35.9008424,17.3545615 L35.9008424,17.0599846 C36.3968906,16.9966385 37.0281629,16.8377538 37.4613557,16.6892538 L37.4613557,23.0107154 C37.4613557,23.7186 37.5248906,23.7719077 38.084134,23.8349077 L38.084134,24.1523308 L35.864828,24.1523308 Z" id="Fill-57"></path>
                <path d="M40.3765901,24.1523308 C40.223019,24.2367923 40.0786214,24.2797154 40.0065925,24.2797154 C39.357313,24.2797154 38.9869757,23.8875231 38.9869757,22.9688308 L38.9869757,19.9766769 L38.4008913,19.9766769 L38.3557034,19.8492923 L38.6078046,19.5014077 L38.9869757,19.5014077 L38.9869757,18.7298308 L39.8533612,17.9471769 L39.9705781,17.9997923 L39.9705781,19.5014077 L40.9086528,19.5014077 C41.0078624,19.6066385 40.9901949,19.8918692 40.8549708,19.9766769 L39.9705781,19.9766769 L39.9705781,22.6199077 C39.9705781,23.4548308 40.2953877,23.5711385 40.4941467,23.5711385 C40.674219,23.5711385 40.8369636,23.5067538 40.9810214,23.4340615 L41.0710576,23.7611769 L40.3765901,24.1523308 Z" id="Fill-59"></path>
                <path d="M45.9260443,23.8984615 C45.6912708,23.9413846 45.4388299,23.9936538 45.159548,24.0680769 C44.8975937,24.1317692 44.6268058,24.2162308 44.3920323,24.2799231 L44.3288371,24.2051538 L44.3288371,23.5294615 C44.1491046,23.6876538 44.0138805,23.8347692 43.7967745,23.9829231 C43.5348202,24.1733077 43.3098998,24.2799231 43.0479455,24.2799231 C42.3443046,24.2799231 41.8842708,23.7613846 41.8842708,22.7468077 L41.8842708,20.6113846 C41.8842708,20.0938846 41.8207359,20.0395385 41.5951359,19.9661538 L41.3695359,19.9028077 L41.3695359,19.6068462 C41.5866419,19.5968077 41.8390829,19.5756923 42.1278781,19.5438462 C42.4074998,19.512 42.6962949,19.4586923 42.9038877,19.4275385 C42.8855407,19.8290769 42.8770467,20.3469231 42.8770467,21.0021923 L42.8770467,22.4923846 C42.8770467,23.2746923 43.2195239,23.5176923 43.5623407,23.5176923 C43.8331287,23.5176923 44.0859094,23.4228462 44.3288371,23.1476538 L44.3288371,20.6113846 C44.3288371,20.0938846 44.2659817,20.0301923 44.0043672,19.9661538 L43.7067383,19.9028077 L43.7067383,19.6068462 C43.9686925,19.5968077 44.2839889,19.5756923 44.5727841,19.5327692 C44.870413,19.512 45.141201,19.4586923 45.3212733,19.4275385 L45.3212733,22.8946154 C45.3212733,23.4439615 45.3759745,23.5294615 45.7096178,23.5713462 L45.9260443,23.5921154 L45.9260443,23.8984615 Z" id="Fill-61"></path>
                <path d="M48.0113834,20.4943846 C48.3181858,19.8716538 48.6885231,19.3749231 49.0585207,19.3749231 C49.4009978,19.3749231 49.6357713,19.6594615 49.6357713,19.9872692 C49.6357713,20.2939615 49.4638533,20.5688077 49.2481063,20.664 C49.1302099,20.7169615 49.0405135,20.6961923 48.986152,20.6314615 C48.832581,20.4843462 48.7248773,20.4099231 48.5804798,20.4099231 C48.381381,20.4099231 48.1649545,20.6113846 47.9937159,21.0973846 L47.9937159,23.0528077 C47.9937159,23.7184615 48.0392436,23.7721154 48.7337111,23.8347692 L48.7337111,24.1521923 L46.4056822,24.1521923 L46.4056822,23.8347692 C46.9200773,23.7721154 47.0012798,23.7184615 47.0012798,23.0528077 L47.0012798,20.7796154 C47.0012798,20.1887308 46.9469183,20.1458077 46.4865448,20.0395385 L46.4865448,19.7650385 C46.992446,19.6816154 47.4796605,19.5545769 47.9937159,19.3538077 L47.9937159,20.4943846 L48.0113834,20.4943846 Z" id="Fill-63"></path>
                <path d="M51.7661624,19.7871923 C51.4049986,19.7871923 51.0625214,20.2621154 50.9809793,21.0973846 C51.3958251,21.0973846 51.7933431,21.0866538 52.2081889,21.0662308 C52.3525865,21.0662308 52.4066082,21.0347308 52.4154419,20.8640769 C52.4154419,20.3150769 52.1721745,19.7871923 51.7749961,19.7871923 L51.7661624,19.7871923 Z M53.3633696,23.1691154 C52.8126202,24.0680769 52.13616,24.2799231 51.7933431,24.2799231 C50.6293287,24.2799231 49.9705359,23.2324615 49.9705359,22.0171154 C49.9705359,21.2448462 50.2321504,20.5795385 50.6113214,20.1347308 C50.9993263,19.6594615 51.4957142,19.3749231 51.9642419,19.3749231 L51.9737552,19.3749231 C52.7766058,19.3749231 53.3990443,20.1887308 53.3990443,21.0347308 C53.3990443,21.2448462 53.3450227,21.3722308 53.1554371,21.4047692 C52.9930323,21.4352308 51.8833793,21.5314615 50.9357913,21.5726538 C50.962972,22.8201923 51.5582299,23.4020769 52.1993552,23.4020769 C52.5510058,23.4020769 52.8934829,23.2535769 53.2097986,22.9157308 L53.3633696,23.1691154 Z" id="Fill-65"></path>
                <path d="M58.1827496,21.6153346 C58.0019978,21.7316423 57.7580508,21.8797962 57.5691448,21.9954115 C57.2620027,22.1653731 57.0995978,22.3664885 57.0995978,22.7361808 C57.0995978,23.3066423 57.4424147,23.5392577 57.6771882,23.5392577 C57.8392533,23.5392577 58.0200051,23.4437192 58.1827496,23.2962577 L58.1827496,21.6153346 Z M58.9404123,24.2796808 C58.7328195,24.2796808 58.5524075,24.1837962 58.4351906,24.0681808 C58.3179737,23.9297192 58.2547786,23.7922962 58.2099304,23.6448346 C57.8572605,23.9200269 57.433581,24.2796808 57.226328,24.2796808 C56.50434,24.2796808 56.05314,23.6022577 56.05314,22.9473346 C56.05314,22.4076808 56.27874,22.12245 56.756781,21.9213346 C57.2898629,21.6997962 57.9748171,21.4349885 58.1827496,21.2248731 L58.1827496,20.9597192 C58.1827496,20.2622192 57.9299689,19.8717577 57.5507978,19.8717577 C57.4155737,19.8717577 57.2983569,19.9351038 57.2168147,20.0621423 C57.1087713,20.2092577 57.0279087,20.4526038 56.95554,20.7797192 C56.9015183,21.0234115 56.7839617,21.0974885 56.6123834,21.0974885 C56.4051304,21.0974885 56.1163352,20.8641808 56.1163352,20.5896808 C56.1163352,20.4207577 56.2247183,20.2840269 56.4227978,20.1251423 C56.72994,19.8617192 57.3520388,19.4909885 57.866434,19.3746808 C58.2007569,19.3746808 58.4712051,19.4691808 58.6964653,19.6709885 C59.0579689,19.9977577 59.1480051,20.4526038 59.1480051,21.0234115 L59.1480051,22.8517962 C59.1480051,23.3391808 59.2927424,23.4755654 59.4452942,23.4755654 C59.5543569,23.4755654 59.6624002,23.4340269 59.7527761,23.3807192 L59.851646,23.6971038 L58.9404123,24.2796808 Z" id="Fill-67"></path>
                <path d="M62.7491111,24.1523308 L62.7491111,23.8349077 C63.1823039,23.7719077 63.2363255,23.7186 63.2363255,22.9688308 L63.2363255,21.1923692 C63.2363255,20.4422538 62.9567039,20.1251769 62.5415183,20.1251769 C62.2615569,20.1251769 62.0006219,20.2941 61.7570147,20.5267154 L61.7570147,23.0526 C61.7570147,23.7286385 61.8110364,23.7719077 62.2347159,23.8349077 L62.2347159,24.1523308 L60.1414605,24.1523308 L60.1414605,23.8349077 C60.7190508,23.7511385 60.763899,23.7186 60.763899,23.0207538 L60.763899,20.8323692 C60.763899,20.1777923 60.7190508,20.1459462 60.2590171,20.0393308 L60.2590171,19.7547923 C60.7370581,19.6817538 61.2691207,19.5325615 61.7570147,19.3421769 L61.7570147,20.1459462 C61.937087,19.9977923 62.117499,19.8392538 62.3339255,19.6817538 C62.59554,19.4799462 62.794299,19.3747154 63.0559135,19.3747154 C63.7779014,19.3747154 64.219928,19.9874077 64.219928,21.0345231 L64.219928,23.0425615 C64.219928,23.7286385 64.2736099,23.7611769 64.7703376,23.8349077 L64.7703376,24.1523308 L62.7491111,24.1523308 Z" id="Fill-69"></path>
                <path d="M68.2001711,20.3469923 C68.0289325,19.9766077 67.7401373,19.7973 67.4421687,19.7973 C67.1530337,19.7973 66.4408988,20.1251077 66.4408988,21.6997615 C66.4408988,22.9898769 67.0901783,23.5291846 67.5688988,23.5291846 C67.7849855,23.5291846 67.9929181,23.4436846 68.2001711,23.2844538 L68.2001711,20.3469923 Z M69.833053,23.8770692 C69.6254602,23.9199923 68.8406169,24.0466846 68.2001711,24.2900308 L68.2001711,23.6448 L67.6494217,24.0466846 C67.3789735,24.2367231 67.2070554,24.2796462 67.1078458,24.2796462 C66.3505229,24.2796462 65.3220723,23.5291846 65.3220723,21.9846462 C65.3220723,20.5377231 66.4045446,19.3746462 67.7401373,19.3746462 C67.8298337,19.3746462 67.9929181,19.3950692 68.2001711,19.4490692 L68.2001711,18.0945692 C68.2001711,17.4829154 68.1461494,17.4406846 67.5593855,17.3662615 L67.5593855,17.0599154 C68.1009614,16.9858385 68.7777614,16.8376846 69.1919277,16.6895308 L69.1919277,22.8621462 C69.1919277,23.4436846 69.2466289,23.4873 69.6077928,23.5392231 L69.833053,23.5710692 L69.833053,23.8770692 Z" id="Fill-71"></path>
                <path d="M78.5865369,17.6196808 C78.0993224,17.6522192 77.9009031,17.7996808 77.8553754,18.2752962 C77.8203802,18.5920269 77.7843658,19.08945 77.7843658,20.0392962 L77.7843658,24.2582192 L77.4045152,24.2582192 L73.6148429,18.8883346 L73.5975152,18.8883346 L73.5975152,21.3723346 C73.5975152,22.3128346 73.6335296,22.78845 73.6600308,23.1062192 C73.704879,23.6022577 73.8771369,23.7718731 74.5267561,23.8141038 L74.5267561,24.1522962 L72.3427851,24.1522962 L72.3427851,23.8141038 C72.8483465,23.7718731 73.064773,23.6136808 73.1106405,23.1370269 C73.1368019,22.78845 73.1826694,22.3128346 73.1826694,21.3723346 L73.1826694,19.1212962 C73.1826694,18.4019885 73.1728164,18.2541808 73.0019176,18.0115269 C72.8211658,17.7467192 72.63192,17.6615654 72.2252284,17.6196808 L72.2252284,17.2818346 L73.7775875,17.2818346 L77.3419995,22.15395 L77.368161,22.15395 L77.368161,20.0392962 C77.368161,19.08945 77.3236525,18.5920269 77.3056453,18.2863731 C77.2509441,17.8311808 77.0616983,17.6615654 76.412079,17.6196808 L76.412079,17.2818346 L78.5865369,17.2818346 L78.5865369,17.6196808 Z" id="Fill-73"></path>
                <path d="M81.0696998,21.6153346 C80.8896275,21.7316423 80.6460202,21.8797962 80.4564347,21.9954115 C80.148613,22.1653731 79.986548,22.3664885 79.986548,22.7361808 C79.986548,23.3066423 80.3303841,23.5392577 80.5644781,23.5392577 C80.7268829,23.5392577 80.9083142,23.4437192 81.0696998,23.2962577 L81.0696998,21.6153346 Z M81.8280419,24.2796808 C81.6204492,24.2796808 81.4400371,24.1837962 81.3224805,24.0681808 C81.2056034,23.9297192 81.1420684,23.7922962 81.0965407,23.6448346 C80.7445504,23.9200269 80.3212106,24.2796808 80.1139576,24.2796808 C79.3919696,24.2796808 78.9404299,23.6022577 78.9404299,22.9473346 C78.9404299,22.4076808 79.1660299,22.12245 79.6450901,21.9213346 C80.1764733,21.6997962 80.862107,21.4349885 81.0696998,21.2248731 L81.0696998,20.9597192 C81.0696998,20.2622192 80.816919,19.8717577 80.4380877,19.8717577 C80.3025239,19.8717577 80.1849672,19.9351038 80.1041046,20.0621423 C79.9960612,20.2092577 79.9155383,20.4526038 79.8435094,20.7797192 C79.7884684,21.0234115 79.6709118,21.0974885 79.5003528,21.0974885 C79.2924202,21.0974885 79.0043046,20.8641808 79.0043046,20.5896808 C79.0043046,20.4207577 79.1120082,20.2840269 79.309748,20.1251423 C79.6179094,19.8617192 80.2389889,19.4909885 80.7537239,19.3746808 C81.0880467,19.3746808 81.3584949,19.4691808 81.5840949,19.6709885 C81.9442395,19.9977577 82.0359745,20.4526038 82.0359745,21.0234115 L82.0359745,22.8517962 C82.0359745,23.3391808 82.1793528,23.4755654 82.3329239,23.4755654 C82.441307,23.4755654 82.5493504,23.4340269 82.6404058,23.3807192 L82.7392757,23.6971038 L81.8280419,24.2796808 Z" id="Fill-75"></path>
                <path d="M84.8870284,24.1523308 C84.7341369,24.2367923 84.5893995,24.2797154 84.5173706,24.2797154 C83.8674116,24.2797154 83.4977537,23.8875231 83.4977537,22.9688308 L83.4977537,19.9766769 L82.9113296,19.9766769 L82.8668212,19.8492923 L83.1189224,19.5014077 L83.4977537,19.5014077 L83.4977537,18.7298308 L84.364479,17.9471769 L84.4820357,17.9997923 L84.4820357,19.5014077 L85.4194308,19.5014077 C85.5183007,19.6066385 85.5006333,19.8918692 85.3657489,19.9766769 L84.4820357,19.9766769 L84.4820357,22.6199077 C84.4820357,23.4548308 84.805826,23.5711385 85.0049248,23.5711385 C85.1853369,23.5711385 85.3474019,23.5067538 85.4917995,23.4340615 L85.5814959,23.7611769 L84.8870284,24.1523308 Z" id="Fill-77"></path>
                <path d="M90.4376378,23.8984615 C90.2021848,23.9413846 89.9494041,23.9936538 89.6694427,24.0680769 C89.4088475,24.1317692 89.1377198,24.2162308 88.9029463,24.2799231 L88.8407704,24.2051538 L88.8407704,23.5294615 C88.6596788,23.6876538 88.5244547,23.8347692 88.3073487,23.9829231 C88.046074,24.1733077 87.820474,24.2799231 87.55818,24.2799231 C86.8555583,24.2799231 86.3945053,23.7613846 86.3945053,22.7468077 L86.3945053,20.6113846 C86.3945053,20.0938846 86.3313101,20.0395385 86.1063896,19.9661538 L85.8807896,19.9028077 L85.8807896,19.6068462 C86.0972161,19.5968077 86.3496571,19.5756923 86.6384523,19.5438462 C86.9184137,19.512 87.2072089,19.4586923 87.4151414,19.4275385 C87.3961149,19.8290769 87.3869414,20.3469231 87.3869414,21.0021923 L87.3869414,22.4923846 C87.3869414,23.2746923 87.7304378,23.5176923 88.0729149,23.5176923 C88.3433631,23.5176923 88.5958041,23.4228462 88.8407704,23.1476538 L88.8407704,20.6113846 C88.8407704,20.0938846 88.7768957,20.0301923 88.5146017,19.9661538 L88.2176523,19.9028077 L88.2176523,19.6068462 C88.4785872,19.5968077 88.7952427,19.5756923 89.0836981,19.5327692 C89.381327,19.512 89.6521149,19.4586923 89.8321872,19.4275385 L89.8321872,22.8946154 C89.8321872,23.4439615 89.8868884,23.5294615 90.220192,23.5713462 L90.4376378,23.5921154 L90.4376378,23.8984615 Z" id="Fill-79"></path>
                <path d="M92.5219916,20.4943846 C92.8284542,19.8716538 93.1987916,19.3749231 93.5691289,19.3749231 C93.9126253,19.3749231 94.1457,19.6594615 94.1457,19.9872692 C94.1457,20.2939615 93.9748012,20.5688077 93.7590542,20.664 C93.6414976,20.7169615 93.5504422,20.6961923 93.4967602,20.6314615 C93.3431892,20.4843462 93.2354855,20.4099231 93.0907482,20.4099231 C92.8923289,20.4099231 92.6759024,20.6113846 92.5046639,21.0973846 L92.5046639,23.0528077 C92.5046639,23.7184615 92.5505313,23.7721154 93.2436398,23.8347692 L93.2436398,24.1521923 L90.9162904,24.1521923 L90.9162904,23.8347692 C91.4303458,23.7721154 91.5112084,23.7184615 91.5112084,23.0528077 L91.5112084,20.7796154 C91.5112084,20.1887308 91.4578663,20.1458077 90.997153,20.0395385 L90.997153,19.7650385 C91.503394,19.6816154 91.9899289,19.5545769 92.5046639,19.3538077 L92.5046639,20.4943846 L92.5219916,20.4943846 Z" id="Fill-81"></path>
                <path d="M96.74574,21.6153346 C96.5660075,21.7316423 96.3224002,21.8797962 96.1324749,21.9954115 C95.8260123,22.1653731 95.6632677,22.3664885 95.6632677,22.7361808 C95.6632677,23.3066423 96.0060846,23.5392577 96.2408581,23.5392577 C96.4029231,23.5392577 96.5829954,23.4437192 96.74574,23.2962577 L96.74574,21.6153346 Z M97.5034027,24.2796808 C97.2964894,24.2796808 97.1164171,24.1837962 96.9992002,24.0681808 C96.8816436,23.9297192 96.8181087,23.7922962 96.7729207,23.6448346 C96.4212701,23.9200269 95.9972508,24.2796808 95.7896581,24.2796808 C95.0683496,24.2796808 94.6168099,23.6022577 94.6168099,22.9473346 C94.6168099,22.4076808 94.8424099,22.12245 95.3204508,21.9213346 C95.8525135,21.6997962 96.5381472,21.4349885 96.74574,21.2248731 L96.74574,20.9597192 C96.74574,20.2622192 96.493299,19.8717577 96.114128,19.8717577 C95.9795834,19.8717577 95.8620267,19.9351038 95.7804846,20.0621423 C95.672781,20.2092577 95.5905593,20.4526038 95.5188701,20.7797192 C95.4645087,21.0234115 95.346952,21.0974885 95.1760533,21.0974885 C94.96914,21.0974885 94.6796653,20.8641808 94.6796653,20.5896808 C94.6796653,20.4207577 94.7877087,20.2840269 94.9864677,20.1251423 C95.2936099,19.8617192 95.9157087,19.4909885 96.4294243,19.3746808 C96.7637472,19.3746808 97.0355545,19.4691808 97.2601352,19.6709885 C97.6209593,19.9977577 97.7106557,20.4526038 97.7106557,21.0234115 L97.7106557,22.8517962 C97.7106557,23.3391808 97.8560725,23.4755654 98.0093039,23.4755654 C98.1173472,23.4755654 98.2250508,23.4340269 98.3157665,23.3807192 L98.4149761,23.6971038 L97.5034027,24.2796808 Z" id="Fill-83"></path>
                <path d="M98.6688441,24.1523308 L98.6688441,23.8349077 C99.218914,23.7511385 99.2732754,23.6971385 99.2732754,23.0107154 L99.2732754,18.1161 C99.2732754,17.4504462 99.2284272,17.4189462 98.7045188,17.3545615 L98.7045188,17.0599846 C99.2009067,16.9966385 99.8328586,16.8377538 100.265372,16.6892538 L100.265372,23.0107154 C100.265372,23.7186 100.329247,23.7719077 100.88849,23.8349077 L100.88849,24.1523308 L98.6688441,24.1523308 Z" id="Fill-85"></path>
                <path d="M105.608015,20.7908654 C106.02286,20.7908654 106.321509,20.7060577 106.528422,20.5052885 C106.844398,20.1985962 106.978942,19.7762885 106.978942,19.2272885 C106.978942,18.0946731 106.402371,17.6730577 105.82546,17.6730577 C105.590687,17.6730577 105.454783,17.7260192 105.392268,17.7786346 C105.329412,17.8412885 105.311065,17.9569038 105.311065,18.2019808 L105.311065,20.7908654 L105.608015,20.7908654 Z M108.972988,24.2472115 C108.901979,24.2472115 108.793256,24.2368269 108.694386,24.2368269 C107.719617,24.1838654 107.358793,23.9097115 106.978942,23.2326346 C106.718347,22.7680962 106.438726,22.1654423 106.176771,21.6261346 C106.032713,21.3094038 105.869969,21.1820192 105.518318,21.1820192 L105.311065,21.1820192 L105.311065,22.7777885 C105.311065,23.6449038 105.392268,23.73975 106.086395,23.8138269 L106.086395,24.1523654 L103.488258,24.1523654 L103.488258,23.8138269 C104.183745,23.73975 104.282275,23.6549423 104.282275,22.7777885 L104.282275,18.6447115 C104.282275,17.7786346 104.200733,17.6941731 103.524273,17.6304808 L103.524273,17.2819038 L105.950492,17.2819038 C106.691506,17.2819038 107.143046,17.3864423 107.503191,17.6616346 C107.863675,17.9472115 108.107282,18.4120962 108.107282,19.0673654 C108.107282,19.9874423 107.593567,20.5052885 106.970788,20.8123269 C107.115526,21.1394423 107.458682,21.8466346 107.728111,22.3239808 C108.0536,22.9051731 108.242506,23.2215577 108.441605,23.4548654 C108.648518,23.7286731 108.820097,23.8557115 109.028029,23.9294423 L108.972988,24.2472115 Z" id="Fill-87"></path>
                <path d="M111.141025,19.7871923 C110.7802,19.7871923 110.437723,20.2621154 110.355841,21.0973846 C110.771027,21.0973846 111.168205,21.0866538 111.582711,21.0662308 C111.727788,21.0662308 111.78147,21.0347308 111.789964,20.8640769 C111.789964,20.3150769 111.547037,19.7871923 111.149519,19.7871923 L111.141025,19.7871923 Z M112.737552,23.1691154 C112.187822,24.0680769 111.511362,24.2799231 111.168205,24.2799231 C110.004531,24.2799231 109.345398,23.2324615 109.345398,22.0171154 C109.345398,21.2448462 109.607352,20.5795385 109.986523,20.1347308 C110.374528,19.6594615 110.869897,19.3749231 111.339444,19.3749231 L111.347938,19.3749231 C112.151128,19.3749231 112.774246,20.1887308 112.774246,21.0347308 C112.774246,21.2448462 112.720225,21.3722308 112.530639,21.4047692 C112.367555,21.4352308 111.258241,21.5314615 110.311673,21.5726538 C110.338174,22.8201923 110.933092,23.4020769 111.574217,23.4020769 C111.926208,23.4020769 112.268345,23.2535769 112.584321,22.9157308 L112.737552,23.1691154 Z" id="Fill-89"></path>
                <path d="M115.779551,20.8226423 C115.562445,20.1777577 115.265156,19.7547577 114.831963,19.7547577 C114.552001,19.7547577 114.327081,20.0199115 114.327081,20.3902962 C114.327081,20.7582577 114.588356,21.0123346 115.031062,21.2345654 C115.743536,21.5942192 116.221577,21.9642577 116.221577,22.7566038 C116.221577,23.7722192 115.40004,24.2796808 114.65223,24.2796808 C114.182683,24.2796808 113.722989,24.0782192 113.550392,23.9200269 C113.487536,23.7611423 113.406674,23.0210654 113.406674,22.5565269 L113.659454,22.5239885 C113.84904,23.2014115 114.263546,23.8874885 114.805801,23.8874885 C115.111245,23.8874885 115.355532,23.6240654 115.355532,23.2533346 C115.355532,22.8943731 115.17512,22.6409885 114.660724,22.3446808 C114.200351,22.0912962 113.514717,21.6997962 113.514717,20.8226423 C113.514717,20.0302962 114.07464,19.3746808 114.985874,19.3746808 C115.382712,19.36395 115.62564,19.4587962 115.824399,19.5546808 C115.914775,19.7973346 116.013645,20.5052192 116.040826,20.7378346 L115.779551,20.8226423 Z" id="Fill-91"></path>
                <path d="M118.866262,19.7547577 C118.433409,19.7547577 118.027057,20.3577577 118.027057,21.5627192 C118.027057,22.8736038 118.433409,23.8874885 119.064681,23.8874885 C119.48938,23.8874885 119.885879,23.5496423 119.885879,22.0269115 C119.885879,20.6422962 119.525394,19.7547577 118.874416,19.7547577 L118.866262,19.7547577 Z M119.000806,19.3746808 C120.200835,19.3746808 121.013539,20.4640269 121.013539,21.7423731 C121.013539,23.4437192 119.958247,24.2796808 118.965811,24.2796808 C117.612551,24.2796808 116.899736,23.09445 116.899736,21.9324115 C116.899736,20.2092577 118.054577,19.3746808 118.991973,19.3746808 L119.000806,19.3746808 Z" id="Fill-93"></path>
                <path d="M126.121952,23.8984615 C125.887518,23.9413846 125.634058,23.9936538 125.355116,24.0680769 C125.093161,24.1317692 124.822034,24.2162308 124.58828,24.2799231 L124.524745,24.2051538 L124.524745,23.5294615 C124.343993,23.6876538 124.209108,23.8347692 123.991323,23.9829231 C123.730048,24.1733077 123.504788,24.2799231 123.243513,24.2799231 C122.539193,24.2799231 122.080178,23.7613846 122.080178,22.7468077 L122.080178,20.6113846 C122.080178,20.0938846 122.016643,20.0395385 121.790364,19.9661538 L121.565783,19.9028077 L121.565783,19.6068462 C121.78187,19.5968077 122.033971,19.5756923 122.322427,19.5438462 C122.603407,19.512 122.891863,19.4586923 123.100135,19.4275385 C123.081448,19.8290769 123.071595,20.3469231 123.071595,21.0021923 L123.071595,22.4923846 C123.071595,23.2746923 123.414752,23.5176923 123.757229,23.5176923 C124.028696,23.5176923 124.281477,23.4228462 124.524745,23.1476538 L124.524745,20.6113846 C124.524745,20.0938846 124.46087,20.0301923 124.199595,19.9661538 L123.901966,19.9028077 L123.901966,19.6068462 C124.16392,19.5968077 124.479217,19.5756923 124.767672,19.5327692 C125.065641,19.512 125.336769,19.4586923 125.51752,19.4275385 L125.51752,22.8946154 C125.51752,23.4439615 125.570863,23.5294615 125.904506,23.5713462 L126.121952,23.5921154 L126.121952,23.8984615 Z" id="Fill-95"></path>
                <path d="M128.206645,20.4943846 C128.513108,19.8716538 128.883445,19.3749231 129.253103,19.3749231 C129.596939,19.3749231 129.831033,19.6594615 129.831033,19.9872692 C129.831033,20.2939615 129.659115,20.5688077 129.443028,20.664 C129.325472,20.7169615 129.235775,20.6961923 129.182093,20.6314615 C129.028183,20.4843462 128.920139,20.4099231 128.776081,20.4099231 C128.576643,20.4099231 128.360556,20.6113846 128.188638,21.0973846 L128.188638,23.0528077 C128.188638,23.7184615 128.234506,23.7721154 128.928633,23.8347692 L128.928633,24.1521923 L126.601284,24.1521923 L126.601284,23.8347692 C127.115679,23.7721154 127.195862,23.7184615 127.195862,23.0528077 L127.195862,20.7796154 C127.195862,20.1887308 127.14184,20.1458077 126.682486,20.0395385 L126.682486,19.7650385 C127.186689,19.6816154 127.675262,19.5545769 128.188638,19.3538077 L128.188638,20.4943846 L128.206645,20.4943846 Z" id="Fill-97"></path>
                <path d="M133.603616,23.1581423 C133.197604,23.8141038 132.602346,24.2796808 132.06077,24.2796808 C130.860401,24.2796808 130.15642,23.1899885 130.15642,22.0497577 C130.15642,21.2567192 130.48157,20.5266808 131.067314,20.0088346 C131.60957,19.5325269 132.1875,19.3746808 132.529298,19.3746808 L132.538471,19.3746808 C132.873134,19.3746808 133.170423,19.4909885 133.323654,19.6391423 C133.449705,19.7547577 133.486059,19.8617192 133.486059,19.9977577 C133.476886,20.2726038 133.25978,20.5377577 133.125235,20.5377577 C133.071553,20.5377577 133.016172,20.5052192 132.935989,20.4207577 C132.602346,20.0711423 132.304377,19.9136423 132.024416,19.9136423 C131.582389,19.9136423 131.140363,20.3788731 131.140363,21.5090654 C131.140363,22.9362577 131.996895,23.4021808 132.431107,23.4021808 C132.809939,23.4021808 133.080047,23.2844885 133.440871,22.9158346 L133.603616,23.1581423 Z" id="Fill-99"></path>
                <path d="M135.851224,19.7871923 C135.4904,19.7871923 135.146563,20.2621154 135.065361,21.0973846 C135.480886,21.0973846 135.878404,21.0866538 136.29325,21.0662308 C136.436628,21.0662308 136.491669,21.0347308 136.500163,20.8640769 C136.500163,20.3150769 136.256556,19.7871923 135.859718,19.7871923 L135.851224,19.7871923 Z M137.447751,23.1691154 C136.897681,24.0680769 136.221561,24.2799231 135.878404,24.2799231 C134.71371,24.2799231 134.055597,23.2324615 134.055597,22.0171154 C134.055597,21.2448462 134.317551,20.5795385 134.696043,20.1347308 C135.084048,19.6594615 135.580436,19.3749231 136.049643,19.3749231 L136.058137,19.3749231 C136.861327,19.3749231 137.484445,20.1887308 137.484445,21.0347308 C137.484445,21.2448462 137.430424,21.3722308 137.240838,21.4047692 C137.078093,21.4352308 135.96878,21.5314615 135.021192,21.5726538 C135.048373,22.8201923 135.64431,23.4020769 136.284416,23.4020769 C136.635048,23.4020769 136.978544,23.2535769 137.29452,22.9157308 L137.447751,23.1691154 Z" id="Fill-101"></path>
                <path d="M140.489716,20.8226423 C140.27261,20.1777577 139.974641,19.7547577 139.542807,19.7547577 C139.262167,19.7547577 139.037246,20.0199115 139.037246,20.3902962 C139.037246,20.7582577 139.298521,21.0123346 139.741227,21.2345654 C140.453362,21.5942192 140.931742,21.9642577 140.931742,22.7566038 C140.931742,23.7722192 140.110885,24.2796808 139.362395,24.2796808 C138.892509,24.2796808 138.432475,24.0782192 138.260557,23.9200269 C138.197022,23.7611423 138.116839,23.0210654 138.116839,22.5565269 L138.36962,22.5239885 C138.559205,23.2014115 138.974051,23.8874885 139.515627,23.8874885 C139.82141,23.8874885 140.065017,23.6240654 140.065017,23.2533346 C140.065017,22.8943731 139.885285,22.6409885 139.370889,22.3446808 C138.910516,22.0912962 138.224882,21.6997962 138.224882,20.8226423 C138.224882,20.0302962 138.784126,19.3746808 139.695359,19.3746808 C140.092877,19.36395 140.335805,19.4587962 140.534904,19.5546808 C140.62426,19.7973346 140.72381,20.5052192 140.75133,20.7378346 L140.489716,20.8226423 Z" id="Fill-103"></path>
                <polygon id="Fill-106" points="0 24.1265423 4.47836386 24.1265423 4.47836386 0.964696154 0 0.964696154"></polygon>
            </g>
        </g>
    </g>
</svg>