<?xml version="1.0" encoding="UTF-8"?>
<svg width="133px" height="24px" viewBox="0 0 133 24" version="1.1" xmlns="http://www.w3.org/2000/svg" xmlns:xlink="http://www.w3.org/1999/xlink">
    <!-- Generator: Sketch 43.2 (39069) - http://www.bohemiancoding.com/sketch -->
    <title>ucdavis_homepage_white</title>
    <desc>Created with Sketch.</desc>
    <defs></defs>
    <g id="Page-1" stroke="none" stroke-width="1" fill="none" fill-rule="evenodd">
        <g id="ucdavis_homepage_white" fill="#FFFFFF">
            <path d="M116.448718,21.26018 L118.563023,15.6921609 L118.927268,16.0088725 C120.222022,17.0627972 121.981265,17.9595108 123.639498,17.9946162 C125.124027,18.0281953 125.847926,17.6351676 125.650499,16.3828212 C125.505107,15.4479496 124.445276,15.2831069 123.784125,15.1533696 L122.333266,14.8648949 C119.511897,14.3383142 117.136651,12.6005977 117.136651,9.3113759 C117.136651,4.33404305 121.435662,1.54545455 125.761456,1.54545455 C128.032631,1.54545455 130.118623,2.12240389 132.069171,3.38772402 L130.236467,8.32308304 C129.230967,7.60037004 127.710473,6.58307708 125.785177,6.51439263 C125.15234,6.48997149 123.699185,6.82194632 124.165205,8.28950398 C124.366458,8.91453244 125.264062,9.17705965 125.816552,9.3113759 L127.455655,9.70516672 C130.512712,10.4164323 132.726496,12.1518593 132.726496,15.7051347 C132.726496,20.7068886 128.399937,23.1818182 124.104752,23.1818182 C121.594828,23.1818182 118.692345,22.4697894 116.448718,21.26018" id="Fill-1"></path>
            <polygon id="Fill-2" points="107.683761 1.54545455 115.196581 1.54545455 115.196581 23.1818182 107.683761 23.1818182"></polygon>
            <polyline id="Fill-3" points="98.9654627 1.54545455 106.431624 1.54545455 98.8048513 23.1818182 92.747071 23.1818182 85.1452991 1.54545455 92.5857019 1.54545455 95.7767187 14.6018809 98.9654627 1.54545455"></polyline>
            <path d="M66.3632479,23.1818182 L74.1758727,23.1818182 L74.7705324,20.4650741 L80.343611,20.4650741 L81.084396,23.1818182 L88.9017094,23.1818182 L81.5845041,1.54545455 L73.388984,1.54545455 L66.3632479,23.1818182 L66.3632479,23.1818182 Z M77.5703558,7.79034562 L77.5703558,7.79034562 C77.7078855,8.71192942 79.0527072,15.3330093 79.0527072,15.3330093 L76.0973815,15.3330093 L77.5703558,7.79034562 L77.5703558,7.79034562 Z" id="Fill-4"></path>
            <path d="M55.229738,16.9699813 L55.7398514,16.9699813 C58.2438288,16.9699813 60.1010835,15.4715223 60.1010835,12.6485325 C60.1010835,9.60832903 58.4554547,7.91233152 55.7051068,7.91233152 L55.229738,7.91233152 L55.229738,16.9699813 L55.229738,16.9699813 Z M47.5811966,1.54545455 L55.3639784,1.54545455 C62.3097321,1.54545455 67.6153846,4.72338399 67.6153846,12.6768647 C67.6153846,19.0830919 63.291266,23.1818182 57.2164952,23.1818182 L47.5811966,23.1700131 L47.5811966,1.54545455 L47.5811966,1.54545455 Z" id="Fill-5"></path>
            <path d="M43.9342978,1.53874862 L44.3368429,5.14499442 C44.4308223,6.00099824 44.9101172,8.05508771 44.318047,7.77934418 C43.9483947,7.60990178 43.6429617,6.67876784 43.3422277,5.85233651 C43.1871617,5.43112828 42.4541224,3.44657414 42.2622478,3.30190869 C41.3334182,2.59376734 39.0199588,1.79530999 37.4552019,1.78731743 C32.7076763,1.76893453 29.5687646,5.3424108 29.5687646,11.6853112 C29.5687646,16.2330813 31.7020968,21.6888068 37.1301898,21.6888068 C39.0739969,21.6888068 42.7994967,21.0645874 43.8121246,18.2400146 C44.2710573,16.9620033 44.6908319,15.8254604 44.9939155,16.1715385 C45.2202492,16.4225051 44.9265636,17.4471521 44.7910766,17.9978399 C44.1512336,20.6154052 44.1175577,21.4098663 43.9147188,21.5105726 C41.4626398,22.7686025 38.3174628,23.1818182 35.5646498,23.1818182 C26.8120357,23.1818182 23.7905983,17.9698659 23.7905983,12.7603113 C23.7905983,3.71832138 29.2320051,-0.0909355902 37.6666555,0.299900889 C39.8007709,0.380625806 41.9372358,0.769064515 43.9342978,1.53874862" id="Fill-6"></path>
            <path d="M17.990078,2.64561385 L16.6382899,2.16347167 C16.186687,1.74546057 16.7387301,1.62878834 16.7387301,1.62878834 C16.7387301,1.62878834 18.6916484,2.00043961 23.5573302,1.5785652 C23.5573302,1.5785652 23.9794808,1.66355821 23.6879779,2.01434756 L22.0915086,2.71360827 C21.0516136,3.17875185 21.0516136,2.91218285 21.0516136,4.07813247 L21.0425513,14.9046971 C21.0425513,23.3707739 12.6259716,23.1814713 10.9872118,23.1814713 C10.2048361,23.1814713 2.48454046,23.1814713 2.48454046,16.3843482 L2.48454046,4.92497195 C2.48454046,2.92686346 2.69372777,2.97863194 2.04502055,2.74528748 L0.092857364,1.99580363 C0.092857364,1.99580363 -0.238670542,1.51597944 0.351131952,1.54688599 C1.94760119,1.62878834 4.25772389,1.97880503 9.69130768,1.5785652 C9.69130768,1.5785652 10.1640559,1.69523743 9.8529181,2.04525411 L8.22850688,2.51271569 C6.99150753,3.08062355 7.15538352,2.64561385 7.12215521,3.9452343 L7.16142503,15.2454418 C7.16142503,18.0154414 8.55474846,21.4460685 12.9378646,21.4460685 C18.9031013,21.4460685 18.9597405,16.166457 18.9597405,14.9927808 L18.9703131,3.79920085 C19.033749,2.74528748 18.9031013,3.04508102 17.990078,2.64561385" id="Fill-7"></path>
        </g>
    </g>
</svg>
