<?xml version="1.0" encoding="UTF-8" standalone="no"?>
<svg width="106px" height="18px" viewBox="0 0 106 18" version="1.1" xmlns="http://www.w3.org/2000/svg" xmlns:xlink="http://www.w3.org/1999/xlink" xmlns:sketch="http://www.bohemiancoding.com/sketch/ns">
    <!-- Generator: Sketch 3.3.3 (12072) - http://www.bohemiancoding.com/sketch -->
    <title>Imported Layers</title>
    <desc>Created with Sketch.</desc>
    <defs></defs>
    <g id="Page-1" stroke="none" stroke-width="1" fill="none" fill-rule="evenodd" sketch:type="MSPage">
        <g id="homepage-copy-5" sketch:type="MSArtboardGroup" transform="translate(-98.000000, -23.000000)" fill-opacity="0.4" fill="#000000">
            <g id="Imported-Layers" sketch:type="MSLayerGroup" transform="translate(98.000000, 23.000000)">
                <path d="M93,16.4901414 L94.6885577,12.1152693 L94.9794566,12.3641141 C96.0134919,13.1921978 97.4184844,13.8967585 98.7428074,13.9243413 C99.9284035,13.9507248 100.506534,13.6419174 100.348862,12.6579309 C100.232747,11.9233889 99.3863294,11.7938697 98.8583114,11.6919333 L97.6996051,11.4652746 C95.4463614,11.0515326 93.5494077,9.68618391 93.5494077,7.10179535 C93.5494077,3.19103383 96.9827473,1 100.437476,1 C102.251316,1 103.917262,1.45331734 105.475038,2.44749744 L104.011376,6.32527953 C103.208349,5.7574336 101.99403,4.95813199 100.456422,4.90416564 C99.9510154,4.8849776 98.7904757,5.14581496 99.1626551,6.29889598 C99.3233829,6.78998977 100.040241,6.99626115 100.481478,7.10179535 L101.790523,7.41120243 C104.231995,7.97005397 106,9.33360375 106,12.1254629 C106,16.0554125 102.54466,18 99.1143757,18 C97.1098627,18 94.791839,17.4405488 93,16.4901414" id="Fill-1" sketch:type="MSShapeGroup"></path>
                <path d="M86,1 L92,1 L92,18 L86,18 L86,1 Z" id="Fill-2" sketch:type="MSShapeGroup"></path>
                <path d="M79.0372638,1 L85,1 L78.9089938,18 L74.0710396,18 L68,1 L73.9421646,1 L76.4906218,11.2586207 L79.0372638,1" id="Fill-3" sketch:type="MSShapeGroup"></path>
                <path d="M53,18 L59.2394342,18 L59.7143501,15.8654154 L64.1652047,15.8654154 L64.7568214,18 L71,18 L65.1562251,1 L58.6109975,1 L53,18 L53,18 Z M61.9503866,5.90670013 L61.9503866,5.90670013 C62.0602226,6.63080169 63.134244,11.8330787 63.134244,11.8330787 L60.774018,11.8330787 L61.9503866,5.90670013 L61.9503866,5.90670013 Z" id="Fill-4" sketch:type="MSShapeGroup"></path>
                <path d="M44.1083915,13.1192711 L44.5157857,13.1192711 C46.5155492,13.1192711 47.9988175,11.9419104 47.9988175,9.72384694 C47.9988175,7.33511567 46.6845611,6.0025462 44.4880375,6.0025462 L44.1083915,6.0025462 L44.1083915,13.1192711 L44.1083915,13.1192711 Z M38,1 L44.2156005,1 C49.7627212,1 54,3.49694457 54,9.74610796 C54,14.7795722 50.5466083,18 45.6950849,18 L38,17.9907246 L38,1 L38,1 Z" id="Fill-5" sketch:type="MSShapeGroup"></path>
                <path d="M35.0874597,0.994731062 L35.4089462,3.8282099 C35.4840014,4.50078433 35.866783,6.11471177 35.3939352,5.89805614 C35.098718,5.76492283 34.8547885,5.03331759 34.6146119,4.38397869 C34.4907708,4.05302936 33.9053401,2.49373682 33.7521024,2.38007111 C33.0103067,1.82367434 31.1626975,1.19631499 29.9130281,1.19003512 C26.1214889,1.17559141 23.6146448,3.98332277 23.6146448,8.96703023 C23.6146448,12.5402781 25.3183981,16.8269197 29.6534622,16.8269197 C31.2058542,16.8269197 34.181168,16.3364616 34.9898879,14.1171543 C35.3564076,13.1130026 35.6916542,12.2200046 35.9337072,12.4919231 C36.1144652,12.6891111 35.8799177,13.4941909 35.7717131,13.9268742 C35.2607122,15.9835327 35.2338174,16.6077521 35.0718232,16.6868785 C33.1135076,17.6753305 30.6016597,18 28.4031674,18 C21.4130251,18 19,13.9048946 19,9.81167319 C19,2.70725251 23.3456969,-0.285735107 30.0819024,0.0213506983 C31.7862812,0.0847774188 33.4925364,0.389979262 35.0874597,0.994731062" id="Fill-6" sketch:type="MSShapeGroup"></path>
                <path d="M14.3675026,1.86441089 L13.2879176,1.48558488 C12.9272517,1.15714759 13.3681325,1.06547656 13.3681325,1.06547656 C13.3681325,1.06547656 14.9278011,1.35748827 18.813704,1.02601551 C18.813704,1.02601551 19.1508481,1.09279574 18.9180438,1.36841594 L17.6430479,1.91783507 C16.8125515,2.28330503 16.8125515,2.07385796 16.8125515,2.98996123 L16.805314,11.4965477 C16.805314,18.1484652 10.0835404,17.9997275 8.7747698,17.9997275 C8.14993737,17.9997275 1.9842405,17.9997275 1.9842405,12.6591307 L1.9842405,3.65533511 C1.9842405,2.08539272 2.15130477,2.12606795 1.6332246,1.94272588 L0.0741591235,1.35384571 C0.0741591235,1.35384571 -0.190610604,0.976840985 0.2804262,1.0011247 C1.55542211,1.06547656 3.40036652,1.34048967 7.73981569,1.02601551 C7.73981569,1.02601551 8.11736888,1.11768655 7.8688834,1.39269966 L6.57157204,1.7599909 C5.58366131,2.20620422 5.71453837,1.86441089 5.68800109,2.88554124 L5.71936333,11.7642757 C5.71936333,13.940704 6.83211993,16.6361967 10.332629,16.6361967 C15.0966748,16.6361967 15.1419088,12.4879305 15.1419088,11.5657563 L15.1503525,2.77080067 C15.2010145,1.94272588 15.0966748,2.17827794 14.3675026,1.86441089" id="Fill-7" sketch:type="MSShapeGroup"></path>
            </g>
        </g>
    </g>
</svg>