<?xml version="1.0" encoding="UTF-8"?>
<svg width="821px" height="149px" viewBox="0 0 821 149" version="1.1" xmlns="http://www.w3.org/2000/svg" xmlns:xlink="http://www.w3.org/1999/xlink">
    <!-- Generator: Sketch 43.2 (39069) - http://www.bohemiancoding.com/sketch -->
    <title>caes_white</title>
    <desc>Created with Sketch.</desc>
    <defs>
        <polygon id="path-1" points="99.7292609 148 0.0004 148 0.0004 0.4435 99.7292609 0.4435"></polygon>
        <polygon id="path-3" points="0.5777 148 66.5627 148 66.5627 0.4434 0.5777 0.4434 0.5777 148"></polygon>
        <polygon id="path-5" points="93.8739244 148 0.9742 148 0.9742 0.4432 93.8739244 0.4432 93.8739244 148"></polygon>
    </defs>
    <g id="Page-2" stroke="none" stroke-width="1" fill="none" fill-rule="evenodd">
        <g id="Artboard-2" transform="translate(-747.000000, -322.000000)">
            <g id="caes_white" transform="translate(747.000000, 322.000000)">
                <g id="symbol">
                    <g id="Group-3" transform="translate(0.000000, 0.557000)">
                        <mask id="mask-2" fill="white">
                            <use xlink:href="#path-1"></use>
                        </mask>
                        <g id="Clip-2"></g>
                        <path d="M99.5674,55.7925 C100.4954,39.2685 97.3984,23.4665 91.1674,9.2945 C89.8324,6.2525 88.3014,3.3215 86.6854,0.4435 L0.0004,0.4435 L0.0004,148.0005 L24.9734,148.0005 C65.9294,136.8135 97.0444,100.5155 99.5674,55.7925" id="Fill-1" fill="#BB8D0A" mask="url(#mask-2)"></path>
                    </g>
                    <g id="Group-6" transform="translate(81.000000, 0.557000)">
                        <mask id="mask-4" fill="white">
                            <use xlink:href="#path-3"></use>
                        </mask>
                        <g id="Clip-5"></g>
                        <path d="M15.7457,0.4434 C24.7397,12.8844 31.3277,27.3514 34.5997,43.3694 C42.7307,83.2094 28.5207,122.4054 0.5777,148.0004 L66.5627,148.0004 L66.5627,0.4434 L15.7457,0.4434 Z" id="Fill-4" fill="#004A85" mask="url(#mask-4)"></path>
                    </g>
                    <g id="Group-9" transform="translate(24.000000, 0.557000)">
                        <mask id="mask-6" fill="white">
                            <use xlink:href="#path-5"></use>
                        </mask>
                        <g id="Clip-8"></g>
                        <path d="M91.5992,43.3692 C88.3272,27.3512 81.7392,12.8852 72.7452,0.4432 L62.6852,0.4432 C64.3022,3.3212 65.8322,6.2522 67.1672,9.2952 C73.3982,23.4672 76.4952,39.2682 75.5672,55.7922 C73.0442,100.5152 41.9292,136.8132 0.9742,148.0002 L57.5772,148.0002 C85.5212,122.4052 99.7312,83.2092 91.5992,43.3692" id="Fill-7" fill="#FEFEFE" mask="url(#mask-6)"></path>
                    </g>
                </g>
                <g id="letters" transform="translate(173.000000, 0.000000)" fill="#FFFFFF">
                    <path d="M286.906195,49.4862272 L292.14082,35.6567126 L293.044837,36.4436641 C296.253016,39.060567 300.609659,41.288334 304.71607,41.3765767 C308.391445,41.4604796 310.185016,40.4825767 309.696123,37.3723825 C309.335962,35.0505864 306.710695,34.6411981 305.073337,34.3200524 L301.480409,33.6025379 C294.491266,32.2933631 288.611534,27.9795961 288.611534,19.8077417 C288.611534,7.44797476 299.258695,0.520198058 309.969498,0.520198058 C315.594659,0.520198058 320.761302,1.95378058 325.592373,5.0972466 L321.054927,17.3543049 C318.564177,15.5590718 314.79623,13.0347515 310.028802,12.8626058 C308.460873,12.8032951 304.865052,13.6264117 306.017855,17.2704019 C306.515427,18.8240524 308.740034,19.4764699 310.106909,19.8077417 L314.167034,20.7870913 C321.737641,22.5533922 327.221052,26.864266 327.221052,35.6914311 C327.221052,48.1134019 316.505909,54.2600136 305.86598,54.2600136 C299.65357,54.2600136 292.463373,52.4908194 286.906195,49.4862272 Z" id="Fill-1"></path>
                    <polygon id="Fill-3" points="264.816482 53.4779806 283.053054 53.4779806 283.053054 1.36848544 264.816482 1.36848544"></polygon>
                    <polygon id="Fill-5" points="244.256223 1.36834078 262.933955 1.36834078 243.855563 53.4778359 228.699884 53.4778359 209.683688 1.36834078 228.29633 1.36834078 236.277723 32.8131272"></polygon>
                    <path d="M192.624075,16.4093845 L192.624075,16.4093845 C192.956754,18.6270252 196.219896,34.5758117 196.219896,34.5758117 L189.051396,34.5758117 L192.624075,16.4093845 Z M165.444236,53.4785592 L184.39245,53.4785592 L185.834539,46.9355786 L199.349968,46.9355786 L201.147879,53.4785592 L220.106218,53.4785592 L202.359986,1.36906408 L182.483164,1.36906408 L165.444236,53.4785592 Z" id="Fill-6"></path>
                    <path d="M118.593546,1.36834078 L137.272725,1.36834078 C153.941368,1.36834078 166.677171,9.02231165 166.677171,28.176768 C166.677171,43.6076709 156.2976,53.4778359 141.720493,53.4778359 L118.593546,53.4503505 L118.593546,1.36834078 Z M136.950171,38.5170786 L138.175296,38.5170786 C144.183761,38.5170786 148.641654,34.9092534 148.641654,28.1087777 C148.641654,20.7875252 144.692904,16.703768 138.091404,16.703768 L136.950171,16.703768 L136.950171,38.5170786 Z" id="Fill-7"></path>
                    <path d="M107.687475,3.00285631 L108.660921,11.555167 C108.889457,13.5847495 110.049493,18.4554583 108.616082,17.8015942 C107.719296,17.4008854 106.983064,15.1933709 106.252618,13.2317786 C105.879439,12.2350699 104.103225,7.52782718 103.638921,7.18353592 C101.392618,5.50403107 95.7934929,3.61042913 92.0067429,3.5916233 C80.5206536,3.54967184 72.9225643,12.023866 72.9225643,27.0641864 C72.9225643,37.8514971 78.0848679,50.7899049 91.2198857,50.7899049 C95.9251179,50.7899049 104.940707,49.3085845 107.392404,42.6108175 C108.501814,39.5787398 109.518654,36.885167 110.250546,37.7039437 C110.797296,38.2999437 110.0871,40.7287883 109.760207,42.0350699 C108.211082,48.2424388 108.130082,50.1259146 107.639743,50.3646039 C101.705046,53.3489437 94.0939393,54.3282932 87.4331357,54.3282932 C66.2516357,54.3282932 58.9399393,41.9699728 58.9399393,29.6145456 C58.9399393,8.17156505 72.108225,-0.861017476 92.520225,0.064807767 C97.683975,0.257205825 102.852064,1.17579806 107.687475,3.00285631" id="Fill-8"></path>
                    <path d="M45.1491107,3.95356311 L41.7557893,2.77024272 C40.6217893,1.74460194 42.0074679,1.45817476 42.0074679,1.45817476 C42.0074679,1.45817476 46.9094143,2.36808738 59.1201643,1.33232039 C59.1201643,1.33232039 60.1803964,1.54352427 59.4485036,2.40425243 L55.4418964,4.11992233 C52.8325393,5.25984466 52.8325393,4.60598058 52.8325393,7.46735922 L52.8093964,34.0240777 C52.8093964,54.7943883 31.6857536,54.3285825 27.5735571,54.3285825 C25.6107536,54.3285825 6.23728929,54.3285825 6.23728929,37.6550485 L6.23728929,9.54178641 C6.23728929,4.64214563 6.76234286,4.7694466 5.13366429,4.19659223 L0.233164286,2.35651456 C0.233164286,2.35651456 -0.599978571,1.18042718 0.882610714,1.25709709 C4.88777143,1.45817476 10.6850571,2.31600971 24.3219857,1.33232039 C24.3219857,1.33232039 25.5080571,1.62164078 24.7269857,2.47947573 L20.65095,3.62663107 C17.5469143,5.01826214 17.9562536,3.95356311 17.8752536,7.14042718 L17.9736107,34.8602136 C17.9736107,41.6563495 21.4696286,50.0726796 32.4682714,50.0726796 C47.4402536,50.0726796 47.5805571,37.1198058 47.5805571,34.241068 L47.6080393,6.7816699 C47.7685929,4.19659223 47.4402536,4.93291262 45.1491107,3.95356311" id="Fill-9"></path>
                    <path d="M24.8991107,89.0063796 C24.549075,88.5318942 24.1498607,88.1167194 23.7043607,87.7608553 C23.2574143,87.4049913 22.7772,87.1055447 22.2637179,86.8625155 C21.7487893,86.6194864 21.2092714,86.435768 20.6451643,86.3113602 C20.0796107,86.1869524 19.5082714,86.1247485 18.9325929,86.1247485 C17.8926107,86.1247485 16.9437536,86.3113602 16.084575,86.6845835 C15.2268429,87.0563602 14.4920571,87.5713505 13.8816643,88.2266612 C13.2712714,88.8819718 12.7968429,89.6501175 12.4569321,90.5325447 C12.1184679,91.4135252 11.9492357,92.3624961 11.9492357,93.3794573 C11.9492357,94.4195641 12.1184679,95.3743214 12.4569321,96.2451757 C12.7968429,97.1145835 13.2770571,97.8639233 13.8990214,98.4917485 C14.5195393,99.1181272 15.2658964,99.6099718 16.1352,99.9658359 C17.00595,100.3217 17.9721643,100.499632 19.0338429,100.499632 C19.587825,100.499632 20.1389143,100.434535 20.6871107,100.305787 C21.2353071,100.175593 21.7603607,99.9889816 22.2637179,99.7459524 C22.7656286,99.5029233 23.2415036,99.2121563 23.6870036,98.8722049 C24.13395,98.5337 24.5375036,98.1489039 24.8991107,97.7192631 L24.8991107,105.873758 C24.3335571,106.043011 23.8027179,106.20503 23.3051464,106.356923 C22.8090214,106.510263 22.3230214,106.639011 21.8485929,106.747506 C21.3727179,106.854554 20.8953964,106.938457 20.4151821,107.000661 C19.9349679,107.062865 19.4301643,107.09469 18.899325,107.09469 C17.0681464,107.09469 15.3136286,106.760525 13.6357714,106.095088 C11.9579143,105.428205 10.434825,104.477787 9.06795,103.246729 C7.62152143,101.936108 6.55839643,100.446108 5.88146786,98.7796223 C5.20309286,97.1131369 4.86318214,95.3019913 4.86318214,93.3461854 C4.86318214,91.5495058 5.19152143,89.8251563 5.84675357,88.1760301 C6.50198571,86.5254573 7.46241429,85.0571563 8.72803929,83.768234 C9.37314643,83.1129233 10.0790036,82.5227097 10.8470571,81.9961466 C11.6151107,81.4710301 12.4265571,81.0240301 13.27995,80.6580398 C14.1333429,80.2906029 15.0171107,80.0099621 15.9327,79.8175641 C16.8482893,79.6266126 17.7624321,79.5296903 18.6780214,79.5296903 C19.7744143,79.5296903 20.8303071,79.6454184 21.8485929,79.8768748 C22.8654321,80.1097777 23.8822714,80.4338165 24.8991107,80.8518845 L24.8991107,89.0063796 Z" id="Fill-11"></path>
                    <path d="M44.51355,85.9550621 C43.4967107,85.9550621 42.5420679,86.144567 41.6496214,86.5235767 C40.7557286,86.9011398 39.9732107,87.4103437 39.3006214,88.0482951 C38.6294786,88.6876932 38.0971929,89.4211204 37.7081036,90.2529165 C37.3175679,91.083266 37.1237464,91.9512272 37.1237464,92.8553534 C37.1237464,93.9851495 37.3175679,95.0267029 37.7081036,95.9829068 C38.0971929,96.9376641 38.6294786,97.7622272 39.3006214,98.4580427 C39.9732107,99.1524117 40.7557286,99.6948874 41.6496214,100.08547 C42.5420679,100.474606 43.4967107,100.669897 44.51355,100.669897 C45.5303893,100.669897 46.487925,100.474606 47.3861571,100.08547 C48.2843893,99.6948874 49.0669071,99.1524117 49.7337107,98.4580427 C50.4005143,97.7622272 50.9299071,96.9376641 51.3189964,95.9829068 C51.7095321,95.0267029 51.9033536,93.9851495 51.9033536,92.8553534 C51.9033536,91.9512272 51.7095321,91.083266 51.3189964,90.2529165 C50.9299071,89.4211204 50.4005143,88.6876932 49.7337107,88.0482951 C49.0669071,87.4103437 48.2843893,86.9011398 47.3861571,86.5235767 C46.487925,86.144567 45.5303893,85.9550621 44.51355,85.9550621 M44.51355,79.3600039 C45.7676036,79.3600039 46.9970679,79.5104505 48.2004964,79.8098971 C49.403925,80.1093437 50.5422643,80.5360913 51.6155143,81.0901398 C52.6887643,81.6441883 53.6781214,82.3183049 54.5821393,83.1153825 C55.4861571,83.9124602 56.2628893,84.8108 56.9123357,85.8104019 C57.5617821,86.8114505 58.070925,87.8992951 58.4383179,89.0739359 C58.8057107,90.2500233 58.9894071,91.4984408 58.9894071,92.820635 C58.9894071,94.9456932 58.6306929,96.8928194 57.9132643,98.660567 C57.1958357,100.429761 56.1920143,101.95014 54.9046929,103.221703 C53.615925,104.491819 52.08705,105.484188 50.3195143,106.195917 C48.5505321,106.907645 46.6152107,107.263509 44.51355,107.263509 C43.1119607,107.263509 41.7812464,107.102936 40.5214071,106.780344 C39.2615679,106.459198 38.0971929,105.997732 37.0297286,105.398839 C35.9622643,104.799946 34.99605,104.073751 34.1310857,103.221703 C33.2675679,102.368208 32.5327821,101.404771 31.928175,100.331392 C31.3235679,99.256567 30.8578179,98.0906058 30.5294786,96.8306155 C30.2011393,95.5691786 30.0376929,94.233965 30.0376929,92.820635 C30.0376929,91.4984408 30.2213893,90.2500233 30.5887821,89.0739359 C30.956175,87.8992951 31.4667643,86.8114505 32.1234429,85.8104019 C32.778675,84.8108 33.5554071,83.9124602 34.4536393,83.1153825 C35.3518714,82.3183049 36.3383357,81.6441883 37.4115857,81.0901398 C38.4848357,80.5360913 39.623175,80.1093437 40.8266036,79.8098971 C42.0300321,79.5104505 43.2594964,79.3600039 44.51355,79.3600039" id="Fill-12"></path>
                    <polygon id="Fill-13" points="71.6284446 100.635757 79.7978732 100.635757 79.7978732 106.399019 64.8316768 106.399019 64.8316768 80.2256505 71.6284446 80.2256505"></polygon>
                    <polygon id="Fill-14" points="92.7047893 100.635757 100.874218 100.635757 100.874218 106.399019 85.9080214 106.399019 85.9080214 80.2256505 92.7047893 80.2256505"></polygon>
                    <polygon id="Fill-15" points="113.781134 85.9889126 113.781134 90.3619903 121.460223 90.3619903 121.460223 96.126699 113.781134 96.126699 113.781134 100.635757 121.884027 100.635757 121.884027 106.399019 106.984366 106.399019 106.984366 80.2256505 121.884027 80.2256505 121.884027 85.9889126"></polygon>
                    <path d="M155.401248,91.7866039 C155.378105,92.7355748 155.339052,93.6570602 155.282641,94.5496136 C155.22623,95.442167 155.10473,96.3159146 154.918141,97.1694097 C154.731552,98.0229049 154.466855,98.8590408 154.121159,99.6778175 C153.776909,100.496594 153.311159,101.313924 152.722463,102.126915 C152.078802,103.020915 151.361373,103.791953 150.570177,104.441478 C149.77898,105.091002 148.925588,105.624798 148.011445,106.042866 C147.095855,106.462381 146.129641,106.76906 145.112802,106.967245 C144.095962,107.165429 143.038623,107.263798 141.94223,107.263798 C139.885409,107.263798 138.002159,106.93108 136.289587,106.264196 C134.578463,105.597313 133.105998,104.655575 131.873641,103.441876 C130.64273,102.22673 129.685195,100.771449 129.001034,99.0760311 C128.316873,97.3806136 127.975516,95.5043709 127.975516,93.4473029 C127.975516,91.3236913 128.319766,89.3939243 129.009713,87.6580019 C129.698213,85.9235262 130.66732,84.4436524 131.917034,83.216934 C133.165302,81.9916621 134.659462,81.0412447 136.399516,80.3685748 C138.13957,79.6973515 140.066213,79.3602932 142.179445,79.3602932 C144.869802,79.3602932 147.226034,79.967866 149.248141,81.1830117 C151.271695,82.3981573 152.846855,84.2310019 153.977963,86.6844388 L147.519659,89.3794583 C147.282445,88.7574194 146.983034,88.1932447 146.621427,87.6840408 C146.25982,87.1748369 145.841802,86.7379631 145.367373,86.3705262 C144.891498,86.0030893 144.360659,85.7210019 143.773409,85.5228175 C143.186159,85.324633 142.546838,85.2262641 141.858338,85.2262641 C140.738802,85.2262641 139.756677,85.4692932 138.90907,85.9553515 C138.061463,86.4414097 137.351266,87.076468 136.781373,87.8619728 C136.210034,88.6474777 135.781891,89.5313515 135.492605,90.5150408 C135.204766,91.4987301 135.060123,92.4867592 135.060123,93.4820214 C135.060123,94.4989825 135.210552,95.4956913 135.509963,96.4735942 C135.809373,97.4514971 136.250534,98.3266913 136.831998,99.1020699 C137.413463,99.8760019 138.136677,100.496594 139.001641,100.96674 C139.866605,101.435439 140.857409,101.669788 141.976945,101.669788 C142.71173,101.669788 143.397338,101.574313 144.036659,101.381915 C144.674534,101.189517 145.234302,100.904536 145.714516,100.525526 C146.19473,100.146517 146.586713,99.6749243 146.891909,99.1093029 C147.197105,98.5451282 147.383695,97.8840311 147.451677,97.1260117 L141.891605,97.1260117 L141.891605,91.7866039 L155.401248,91.7866039 Z" id="Fill-16"></path>
                    <polygon id="Fill-17" points="167.955814 85.9889126 167.955814 90.3619903 175.634904 90.3619903 175.634904 96.126699 167.955814 96.126699 167.955814 100.635757 176.058707 100.635757 176.058707 106.399019 161.159046 106.399019 161.159046 80.2256505 176.058707 80.2256505 176.058707 85.9889126"></polygon>
                    <path d="M204.609471,91.8022272 C203.883364,91.8022272 203.20065,91.9367612 202.564221,92.2072757 C201.927793,92.4792369 201.368025,92.8408874 200.889257,93.296567 C200.409043,93.7536932 200.028632,94.2773631 199.750918,94.8704699 C199.471757,95.4635767 199.334346,96.0841689 199.334346,96.7279068 C199.334346,97.5365573 199.471757,98.2801107 199.750918,98.9614602 C200.028632,99.6442563 200.409043,100.231577 200.889257,100.729208 C201.368025,101.225392 201.927793,101.613082 202.564221,101.890829 C203.20065,102.170023 203.883364,102.308897 204.609471,102.308897 C205.335579,102.308897 206.019739,102.170023 206.660507,101.890829 C207.302721,101.613082 207.861043,101.225392 208.336918,100.729208 C208.812793,100.231577 209.190311,99.6442563 209.468025,98.9614602 C209.747186,98.2801107 209.886043,97.5365573 209.886043,96.7279068 C209.886043,96.0841689 209.747186,95.4635767 209.468025,94.8704699 C209.190311,94.2773631 208.812793,93.7536932 208.336918,93.296567 C207.861043,92.8408874 207.302721,92.4792369 206.660507,92.2072757 C206.019739,91.9367612 205.335579,91.8022272 204.609471,91.8022272 M204.609471,87.0935379 C205.504811,87.0935379 206.382793,87.2005864 207.241971,87.4146835 C208.10115,87.627334 208.914043,87.932567 209.68065,88.3289359 C210.447257,88.7238583 211.153114,89.2055767 211.799668,89.7755379 C212.443329,90.3426058 212.998757,90.9848971 213.463061,91.6995184 C213.925918,92.4141398 214.288971,93.190965 214.552221,94.0299942 C214.814025,94.8690233 214.94565,95.7586835 214.94565,96.7047612 C214.94565,98.2208 214.689632,99.6109845 214.17615,100.873868 C213.664114,102.136751 212.949579,103.22315 212.028204,104.130169 C211.108275,105.037188 210.017668,105.74747 208.754936,106.253781 C207.492204,106.762984 206.110864,107.017586 204.609471,107.017586 C203.609989,107.017586 202.658239,106.901858 201.758561,106.671849 C200.858882,106.441839 200.028632,106.114907 199.266364,105.685266 C198.504096,105.258518 197.81415,104.739188 197.196525,104.130169 C196.5789,103.52115 196.055293,102.834014 195.622811,102.065868 C195.191775,101.299169 194.859096,100.465926 194.626221,99.5675864 C194.3919,98.6663534 194.273293,97.7130427 194.273293,96.7047612 C194.273293,95.7586835 194.404918,94.8690233 194.668168,94.0299942 C194.929971,93.190965 195.295918,92.4141398 195.763114,91.6995184 C196.230311,90.9848971 196.785739,90.3426058 197.426507,89.7755379 C198.068721,89.2055767 198.771686,88.7238583 199.538293,88.3289359 C200.3049,87.932567 201.117793,87.627334 201.978418,87.4146835 C202.83615,87.2005864 203.714132,87.0935379 204.609471,87.0935379" id="Fill-18"></path>
                    <polygon id="Fill-19" points="223.023086 91.8262408 223.023086 94.9480078 228.360407 94.9480078 228.360407 99.0650369 223.023086 99.0650369 223.023086 106.399309 218.170318 106.399309 218.170318 87.7106583 228.904264 87.7106583 228.904264 91.8262408"></polygon>
                    <path d="M257.500157,88.311432 L257.432175,88.311432 L254.618871,96.6525388 L260.280193,96.6525388 L257.500157,88.311432 Z M252.737068,101.855966 L250.940604,106.399743 L243.720032,106.399743 L253.788621,80.2249272 L261.211693,80.2249272 L271.077782,106.399743 L263.822496,106.399743 L262.111371,101.855966 L252.737068,101.855966 Z" id="Fill-20"></path>
                    <path d="M302.302704,91.7866039 C302.279561,92.7355748 302.240507,93.6570602 302.184096,94.5496136 C302.127686,95.442167 302.006186,96.3159146 301.819596,97.1694097 C301.633007,98.0229049 301.368311,98.8590408 301.022614,99.6778175 C300.678364,100.496594 300.212614,101.313924 299.623918,102.126915 C298.980257,103.020915 298.262829,103.791953 297.471632,104.441478 C296.680436,105.091002 295.827043,105.624798 294.9129,106.042866 C293.997311,106.462381 293.031096,106.76906 292.014257,106.967245 C290.997418,107.165429 289.940079,107.263798 288.843686,107.263798 C286.786864,107.263798 284.903614,106.93108 283.191043,106.264196 C281.479918,105.597313 280.007454,104.655575 278.775096,103.441876 C277.544186,102.22673 276.58665,100.771449 275.902489,99.0760311 C275.218329,97.3806136 274.876971,95.5043709 274.876971,93.4473029 C274.876971,91.3236913 275.221221,89.3939243 275.911168,87.6580019 C276.599668,85.9235262 277.568775,84.4436524 278.818489,83.216934 C280.066757,81.9916621 281.560918,81.0412447 283.300971,80.3685748 C285.041025,79.6973515 286.967668,79.3602932 289.0809,79.3602932 C291.771257,79.3602932 294.127489,79.967866 296.149596,81.1830117 C298.17315,82.3981573 299.748311,84.2310019 300.879418,86.6844388 L294.421114,89.3794583 C294.1839,88.7574194 293.884489,88.1932447 293.522882,87.6840408 C293.161275,87.1748369 292.743257,86.7379631 292.268829,86.3705262 C291.792954,86.0030893 291.262114,85.7210019 290.674864,85.5228175 C290.087614,85.324633 289.448293,85.2262641 288.759793,85.2262641 C287.640257,85.2262641 286.658132,85.4692932 285.810525,85.9553515 C284.962918,86.4414097 284.252721,87.076468 283.682829,87.8619728 C283.111489,88.6474777 282.683346,89.5313515 282.394061,90.5150408 C282.106221,91.4987301 281.961579,92.4867592 281.961579,93.4820214 C281.961579,94.4989825 282.112007,95.4956913 282.411418,96.4735942 C282.710829,97.4514971 283.151989,98.3266913 283.733454,99.1020699 C284.314918,99.8760019 285.038132,100.496594 285.903096,100.96674 C286.768061,101.435439 287.758864,101.669788 288.8784,101.669788 C289.613186,101.669788 290.298793,101.574313 290.938114,101.381915 C291.575989,101.189517 292.135757,100.904536 292.615971,100.525526 C293.096186,100.146517 293.488168,99.6749243 293.793364,99.1093029 C294.098561,98.5451282 294.28515,97.8840311 294.353132,97.1260117 L288.793061,97.1260117 L288.793061,91.7866039 L302.302704,91.7866039 Z" id="Fill-21"></path>
                    <path d="M316.245696,91.9561456 L316.906714,91.9561456 C317.460696,91.9561456 318.020464,91.9199806 318.584571,91.8462039 C319.150125,91.7724272 319.657821,91.620534 320.110554,91.3876311 C320.561839,91.1561748 320.929232,90.8292427 321.212732,90.4053883 C321.494786,89.981534 321.636536,89.4130194 321.636536,88.7012913 C321.636536,87.9895631 321.494786,87.4181553 321.212732,86.9885146 C320.929232,86.5603204 320.561839,86.2290485 320.110554,85.9975922 C319.657821,85.7661359 319.150125,85.6127961 318.584571,85.5390194 C318.020464,85.4666893 317.460696,85.4290777 316.906714,85.4290777 L316.245696,85.4290777 L316.245696,91.9561456 Z M331.213339,106.399019 L322.737268,106.399019 L316.331036,96.3292233 L316.245696,96.3292233 L316.245696,106.399019 L309.448929,106.399019 L309.448929,80.2256505 L319.618768,80.2256505 C320.907536,80.2256505 322.108071,80.3833301 323.220375,80.7001359 C324.334125,81.0169417 325.297446,81.5015534 326.110339,82.1583107 C326.924679,82.8136214 327.562554,83.6468641 328.026857,84.6580388 C328.489714,85.6692136 328.721143,86.8756796 328.721143,88.2774369 C328.721143,89.1815631 328.59675,90.0437379 328.347964,90.8625146 C328.099179,91.6827379 327.731786,92.4190583 327.245786,93.0743689 C326.761232,93.7311262 326.160964,94.2837282 325.449321,94.7365146 C324.737679,95.1878544 323.919,95.4988738 322.991839,95.6681262 L331.213339,106.399019 Z" id="Fill-22"></path>
                    <polygon id="Fill-23" points="337.122 106.399019 343.918768 106.399019 343.918768 80.2242039 337.122 80.2242039"></polygon>
                    <path d="M370.457116,89.0063796 C370.10708,88.5318942 369.707866,88.1167194 369.262366,87.7608553 C368.81542,87.4049913 368.335205,87.1055447 367.821723,86.8625155 C367.306795,86.6194864 366.767277,86.435768 366.20317,86.3113602 C365.637616,86.1869524 365.066277,86.1247485 364.490598,86.1247485 C363.450616,86.1247485 362.501759,86.3113602 361.64258,86.6845835 C360.784848,87.0563602 360.050063,87.5713505 359.43967,88.2266612 C358.829277,88.8819718 358.354848,89.6501175 358.014938,90.5325447 C357.676473,91.4135252 357.507241,92.3624961 357.507241,93.3794573 C357.507241,94.4195641 357.676473,95.3743214 358.014938,96.2451757 C358.354848,97.1145835 358.835063,97.8639233 359.457027,98.4917485 C360.077545,99.1181272 360.823902,99.6099718 361.693205,99.9658359 C362.563955,100.3217 363.53017,100.499632 364.591848,100.499632 C365.14583,100.499632 365.69692,100.434535 366.245116,100.305787 C366.793313,100.175593 367.318366,99.9889816 367.821723,99.7459524 C368.323634,99.5029233 368.799509,99.2121563 369.245009,98.8722049 C369.691955,98.5337 370.095509,98.1489039 370.457116,97.7192631 L370.457116,105.873758 C369.891563,106.043011 369.360723,106.20503 368.863152,106.356923 C368.367027,106.510263 367.881027,106.639011 367.406598,106.747506 C366.930723,106.854554 366.453402,106.938457 365.973188,107.000661 C365.492973,107.062865 364.98817,107.09469 364.45733,107.09469 C362.626152,107.09469 360.871634,106.760525 359.193777,106.095088 C357.51592,105.428205 355.99283,104.477787 354.625955,103.246729 C353.179527,101.936108 352.116402,100.446108 351.439473,98.7796223 C350.761098,97.1131369 350.421188,95.3019913 350.421188,93.3461854 C350.421188,91.5495058 350.749527,89.8251563 351.404759,88.1760301 C352.059991,86.5254573 353.02042,85.0571563 354.286045,83.768234 C354.931152,83.1129233 355.637009,82.5227097 356.405063,81.9961466 C357.173116,81.4710301 357.984563,81.0240301 358.837955,80.6580398 C359.691348,80.2906029 360.575116,80.0099621 361.490705,79.8175641 C362.406295,79.6266126 363.320438,79.5296903 364.236027,79.5296903 C365.33242,79.5296903 366.388313,79.6454184 367.406598,79.8768748 C368.423438,80.1097777 369.440277,80.4338165 370.457116,80.8518845 L370.457116,89.0063796 Z" id="Fill-24"></path>
                    <path d="M401.27993,80.2250718 L401.27993,94.9399068 C401.27993,95.7876155 401.25968,96.6237515 401.220627,97.4483146 C401.181573,98.2743243 401.070198,99.078635 400.889395,99.8641398 C400.708591,100.649645 400.435216,101.407664 400.067823,102.135305 C399.70043,102.864392 399.195627,103.545742 398.55052,104.179353 C398.008109,104.721829 397.39193,105.176062 396.70343,105.543499 C396.013484,105.910936 395.29027,106.210383 394.533788,106.441839 C393.777305,106.673295 392.999127,106.839654 392.203591,106.942363 C391.406609,107.043625 390.629877,107.094256 389.871948,107.094256 C389.103895,107.094256 388.321377,107.043625 387.524395,106.942363 C386.727413,106.839654 385.953573,106.673295 385.202877,106.441839 C384.450734,106.210383 383.730413,105.910936 383.041913,105.543499 C382.351966,105.176062 381.735788,104.721829 381.193377,104.179353 C380.538145,103.545742 380.027555,102.864392 379.660163,102.135305 C379.29277,101.407664 379.017948,100.649645 378.837145,99.8641398 C378.656341,99.078635 378.546413,98.2743243 378.507359,97.4483146 C378.468305,96.6237515 378.448055,95.7876155 378.448055,94.9399068 L378.448055,80.2250718 L385.244823,80.2250718 L385.244823,94.0068485 C385.244823,94.5724699 385.259288,95.1438777 385.28677,95.7196252 C385.315698,96.2953728 385.377895,96.8465282 385.473359,97.3730913 C385.57027,97.8982078 385.716359,98.3900524 385.91452,98.8471786 C386.11268,99.3043049 386.383163,99.703567 386.727413,100.042072 C387.073109,100.382023 387.499805,100.646751 388.007502,100.83915 C388.516645,101.031548 389.137163,101.127023 389.871948,101.127023 C390.595163,101.127023 391.214234,101.031548 391.727716,100.83915 C392.242645,100.646751 392.669341,100.382023 393.007805,100.042072 C393.347716,99.703567 393.615305,99.3043049 393.813466,98.8471786 C394.011627,98.3900524 394.160609,97.8982078 394.261859,97.3730913 C394.364555,96.8465282 394.426752,96.2953728 394.448448,95.7196252 C394.471591,95.1438777 394.483163,94.5724699 394.483163,94.0068485 L394.483163,80.2250718 L401.27993,80.2250718 Z" id="Fill-25"></path>
                    <polygon id="Fill-26" points="416.478712 100.635757 424.648141 100.635757 424.648141 106.399019 409.681945 106.399019 409.681945 80.2256505 416.478712 80.2256505"></polygon>
                    <polygon id="Fill-27" points="439.324907 106.399598 432.528139 106.399598 432.528139 85.9894913 426.900086 85.9894913 426.900086 80.2247825 444.952961 80.2247825 444.952961 85.9894913 439.324907 85.9894913"></polygon>
                    <path d="M473.907857,80.2250718 L473.907857,94.9399068 C473.907857,95.7876155 473.887607,96.6237515 473.848554,97.4483146 C473.8095,98.2743243 473.698125,99.078635 473.517321,99.8641398 C473.336518,100.649645 473.063143,101.407664 472.69575,102.135305 C472.328357,102.864392 471.823554,103.545742 471.178446,104.179353 C470.636036,104.721829 470.019857,105.176062 469.331357,105.543499 C468.641411,105.910936 467.918196,106.210383 467.161714,106.441839 C466.405232,106.673295 465.627054,106.839654 464.831518,106.942363 C464.034536,107.043625 463.257804,107.094256 462.499875,107.094256 C461.731821,107.094256 460.949304,107.043625 460.152321,106.942363 C459.355339,106.839654 458.5815,106.673295 457.830804,106.441839 C457.078661,106.210383 456.358339,105.910936 455.669839,105.543499 C454.979893,105.176062 454.363714,104.721829 453.821304,104.179353 C453.166071,103.545742 452.655482,102.864392 452.288089,102.135305 C451.920696,101.407664 451.645875,100.649645 451.465071,99.8641398 C451.284268,99.078635 451.174339,98.2743243 451.135286,97.4483146 C451.096232,96.6237515 451.075982,95.7876155 451.075982,94.9399068 L451.075982,80.2250718 L457.87275,80.2250718 L457.87275,94.0068485 C457.87275,94.5724699 457.887214,95.1438777 457.914696,95.7196252 C457.943625,96.2953728 458.005821,96.8465282 458.101286,97.3730913 C458.198196,97.8982078 458.344286,98.3900524 458.542446,98.8471786 C458.740607,99.3043049 459.011089,99.703567 459.355339,100.042072 C459.701036,100.382023 460.127732,100.646751 460.635429,100.83915 C461.144571,101.031548 461.765089,101.127023 462.499875,101.127023 C463.223089,101.127023 463.842161,101.031548 464.355643,100.83915 C464.870571,100.646751 465.297268,100.382023 465.635732,100.042072 C465.975643,99.703567 466.243232,99.3043049 466.441393,98.8471786 C466.639554,98.3900524 466.788536,97.8982078 466.889786,97.3730913 C466.992482,96.8465282 467.054679,96.2953728 467.076375,95.7196252 C467.099518,95.1438777 467.111089,94.5724699 467.111089,94.0068485 L467.111089,80.2250718 L473.907857,80.2250718 Z" id="Fill-28"></path>
                    <path d="M489.106639,91.9561456 L489.767657,91.9561456 C490.321639,91.9561456 490.881407,91.9199806 491.445514,91.8462039 C492.011068,91.7724272 492.518764,91.620534 492.971496,91.3876311 C493.422782,91.1561748 493.790175,90.8292427 494.073675,90.4053883 C494.355729,89.981534 494.497479,89.4130194 494.497479,88.7012913 C494.497479,87.9895631 494.355729,87.4181553 494.073675,86.9885146 C493.790175,86.5603204 493.422782,86.2290485 492.971496,85.9975922 C492.518764,85.7661359 492.011068,85.6127961 491.445514,85.5390194 C490.881407,85.4666893 490.321639,85.4290777 489.767657,85.4290777 L489.106639,85.4290777 L489.106639,91.9561456 Z M504.074282,106.399019 L495.598211,106.399019 L489.191979,96.3292233 L489.106639,96.3292233 L489.106639,106.399019 L482.309871,106.399019 L482.309871,80.2256505 L492.479711,80.2256505 C493.768479,80.2256505 494.969014,80.3833301 496.081318,80.7001359 C497.195068,81.0169417 498.158389,81.5015534 498.971282,82.1583107 C499.785621,82.8136214 500.423496,83.6468641 500.8878,84.6580388 C501.350657,85.6692136 501.582086,86.8756796 501.582086,88.2774369 C501.582086,89.1815631 501.457693,90.0437379 501.208907,90.8625146 C500.960121,91.6827379 500.592729,92.4190583 500.106729,93.0743689 C499.622175,93.7311262 499.021907,94.2837282 498.310264,94.7365146 C497.598621,95.1878544 496.779943,95.4988738 495.852782,95.6681262 L504.074282,106.399019 Z" id="Fill-29"></path>
                    <path d="M522.587845,88.311432 L522.519862,88.311432 L519.706559,96.6525388 L525.36788,96.6525388 L522.587845,88.311432 Z M517.824755,101.855966 L516.028291,106.399743 L508.80772,106.399743 L518.876309,80.2249272 L526.29938,80.2249272 L536.16547,106.399743 L528.910184,106.399743 L527.199059,101.855966 L517.824755,101.855966 Z" id="Fill-30"></path>
                    <polygon id="Fill-31" points="548.986612 100.635757 557.156041 100.635757 557.156041 106.399019 542.189845 106.399019 542.189845 80.2256505 548.986612 80.2256505"></polygon>
                    <path d="M13.7091054,133.989624 L13.6613732,133.989624 L11.6508375,139.945284 L15.6936054,139.945284 L13.7091054,133.989624 Z M10.3071054,143.661605 L9.02556964,146.904886 L3.86905179,146.904886 L11.0592482,128.216236 L16.3589625,128.216236 L23.4016232,146.904886 L18.2234089,146.904886 L16.9997304,143.661605 L10.3071054,143.661605 Z" id="Fill-32"></path>
                    <polygon id="Fill-33" points="25.7778161 128.215802 30.6305839 128.215802 39.5391375 139.641064 39.5868696 139.641064 39.5868696 128.215802 44.4396375 128.215802 44.4396375 146.904452 39.5868696 146.904452 30.6913339 135.453151 30.6305839 135.453151 30.6305839 146.904452 25.7778161 146.904452"></polygon>
                    <path d="M53.4689679,142.789304 L54.5711464,142.789304 C55.2972536,142.789304 55.9828607,142.689488 56.6337536,142.485517 C57.2832,142.28444 57.8502,141.970527 58.3390929,141.542333 C58.8279857,141.115585 59.2185214,140.57311 59.5078071,139.914906 C59.7970929,139.256702 59.9446286,138.472644 59.9446286,137.561284 C59.9446286,136.722255 59.8115571,135.975809 59.5497536,135.326284 C59.28795,134.678207 58.9220036,134.131391 58.4490214,133.687284 C57.9774857,133.243178 57.4162714,132.906119 56.7653786,132.67611 C56.1159321,132.447547 55.4013964,132.331818 54.6188786,132.331818 L53.4689679,132.331818 L53.4689679,142.789304 Z M48.6162,128.216236 L55.5012,128.216236 C56.3647179,128.216236 57.2007536,128.324731 58.0064143,128.541721 C58.8135214,128.760158 59.57145,129.069731 60.2758607,129.468993 C60.9817179,129.866809 61.6253786,130.349974 62.2068429,130.915595 C62.7868607,131.481217 63.2829857,132.109042 63.6952179,132.803411 C64.1060036,133.49778 64.4271107,134.247119 64.6570929,135.048537 C64.8885214,135.851401 65.0027893,136.687537 65.0027893,137.561284 C65.0027893,138.430692 64.8885214,139.268275 64.6570929,140.072585 C64.4271107,140.87545 64.1060036,141.623343 63.6894321,142.316265 C63.2728607,143.010634 62.7752893,143.641352 62.193825,144.205527 C61.6138071,144.769702 60.9715929,145.25142 60.270075,145.652129 C59.5685571,146.051391 58.8135214,146.359517 58.0064143,146.576508 C57.2007536,146.796391 56.3647179,146.904886 55.5012,146.904886 L48.6162,146.904886 L48.6162,128.216236 Z" id="Fill-34"></path>
                    <polygon id="Fill-35" points="88.5222964 126.493767 88.5222964 130.866845 96.2013857 130.866845 96.2013857 136.631553 88.5222964 136.631553 88.5222964 141.140612 96.6251893 141.140612 96.6251893 146.903874 81.7255286 146.903874 81.7255286 120.730505 96.6251893 120.730505 96.6251893 126.493767"></polygon>
                    <polygon id="Fill-36" points="104.262043 120.729926 111.058811 120.729926 123.534257 136.733683 123.602239 136.733683 123.602239 120.729926 130.399007 120.729926 130.399007 146.904742 123.602239 146.904742 111.14415 130.867713 111.058811 130.867713 111.058811 146.904742 104.262043 146.904742"></polygon>
                    <polygon id="Fill-37" points="149.132427 136.631264 155.48948 120.730216 162.879284 120.730216 151.708516 146.905031 146.420373 146.905031 135.420284 120.730216 142.827445 120.730216"></polygon>
                    <polygon id="Fill-38" points="167.917339 146.903874 174.714107 146.903874 174.714107 120.729058 167.917339 120.729058"></polygon>
                    <path d="M189.37395,132.461 L190.034968,132.461 C190.58895,132.461 191.148718,132.424835 191.712825,132.351058 C192.278379,132.277282 192.786075,132.125388 193.238807,131.892485 C193.690093,131.661029 194.057486,131.334097 194.340986,130.910243 C194.623039,130.486388 194.764789,129.917874 194.764789,129.206146 C194.764789,128.494417 194.623039,127.92301 194.340986,127.493369 C194.057486,127.065175 193.690093,126.733903 193.238807,126.502447 C192.786075,126.27099 192.278379,126.11765 191.712825,126.043874 C191.148718,125.971544 190.58895,125.933932 190.034968,125.933932 L189.37395,125.933932 L189.37395,132.461 Z M204.341593,146.903874 L195.865521,146.903874 L189.459289,136.834078 L189.37395,136.834078 L189.37395,146.903874 L182.577182,146.903874 L182.577182,120.730505 L192.747021,120.730505 C194.035789,120.730505 195.236325,120.888184 196.348629,121.20499 C197.462379,121.52035 198.4257,122.006408 199.238593,122.663165 C200.052932,123.318476 200.690807,124.151718 201.155111,125.162893 C201.617968,126.174068 201.849396,127.380534 201.849396,128.782291 C201.849396,129.686417 201.725004,130.548592 201.476218,131.367369 C201.227432,132.187592 200.860039,132.923913 200.374039,133.579223 C199.889486,134.235981 199.289218,134.788583 198.577575,135.241369 C197.865932,135.692709 197.047254,136.003728 196.120093,136.172981 L204.341593,146.903874 Z" id="Fill-39"></path>
                    <path d="M222.068298,126.459917 C221.051459,126.459917 220.096816,126.649421 219.20437,127.028431 C218.310477,127.405994 217.527959,127.915198 216.85537,128.55315 C216.184227,129.192548 215.651941,129.925975 215.262852,130.757771 C214.872316,131.58812 214.678495,132.456082 214.678495,133.360208 C214.678495,134.490004 214.872316,135.531557 215.262852,136.487761 C215.651941,137.442518 216.184227,138.267082 216.85537,138.962897 C217.527959,139.657266 218.310477,140.199742 219.20437,140.590324 C220.096816,140.97946 221.051459,141.174751 222.068298,141.174751 C223.085138,141.174751 224.042673,140.97946 224.940905,140.590324 C225.839138,140.199742 226.621655,139.657266 227.288459,138.962897 C227.955263,138.267082 228.484655,137.442518 228.873745,136.487761 C229.26428,135.531557 229.458102,134.490004 229.458102,133.360208 C229.458102,132.456082 229.26428,131.58812 228.873745,130.757771 C228.484655,129.925975 227.955263,129.192548 227.288459,128.55315 C226.621655,127.915198 225.839138,127.405994 224.940905,127.028431 C224.042673,126.649421 223.085138,126.459917 222.068298,126.459917 M222.068298,119.864858 C223.322352,119.864858 224.551816,120.015305 225.755245,120.314751 C226.958673,120.614198 228.097013,121.040946 229.170263,121.594994 C230.243513,122.149043 231.23287,122.823159 232.136888,123.620237 C233.040905,124.417315 233.817638,125.315654 234.467084,126.315256 C235.11653,127.316305 235.625673,128.40415 235.993066,129.57879 C236.360459,130.754878 236.544155,132.003295 236.544155,133.325489 C236.544155,135.450548 236.185441,137.397674 235.468013,139.165421 C234.750584,140.934616 233.746763,142.454994 232.459441,143.726557 C231.170673,144.996674 229.641798,145.989043 227.874263,146.700771 C226.10528,147.412499 224.169959,147.768363 222.068298,147.768363 C220.666709,147.768363 219.335995,147.60779 218.076155,147.285198 C216.816316,146.964052 215.651941,146.502586 214.584477,145.903693 C213.517013,145.3048 212.550798,144.578606 211.685834,143.726557 C210.822316,142.873062 210.08753,141.909625 209.482923,140.836247 C208.878316,139.761421 208.412566,138.59546 208.084227,137.33547 C207.755888,136.074033 207.592441,134.738819 207.592441,133.325489 C207.592441,132.003295 207.776138,130.754878 208.14353,129.57879 C208.510923,128.40415 209.021513,127.316305 209.678191,126.315256 C210.333423,125.315654 211.110155,124.417315 212.008388,123.620237 C212.90662,122.823159 213.893084,122.149043 214.966334,121.594994 C216.039584,121.040946 217.177923,120.614198 218.381352,120.314751 C219.58478,120.015305 220.814245,119.864858 222.068298,119.864858" id="Fill-40"></path>
                    <polygon id="Fill-41" points="243.774563 120.729926 250.57133 120.729926 263.046777 136.733683 263.114759 136.733683 263.114759 120.729926 269.911527 120.729926 269.911527 146.904742 263.114759 146.904742 250.65667 130.867713 250.57133 130.867713 250.57133 146.904742 243.774563 146.904742"></polygon>
                    <polygon id="Fill-42" points="280.580818 120.729926 287.276336 120.729926 292.599193 134.715674 298.209889 120.729926 304.9893 120.729926 308.93805 146.904742 302.141282 146.904742 300.226211 131.834043 300.158229 131.834043 293.870604 146.904742 291.174461 146.904742 285.157318 131.834043 285.089336 131.834043 282.902336 146.904742 276.140282 146.904742"></polygon>
                    <polygon id="Fill-43" points="322.05412 126.493767 322.05412 130.866845 329.733209 130.866845 329.733209 136.631553 322.05412 136.631553 322.05412 141.140612 330.157013 141.140612 330.157013 146.903874 315.257352 146.903874 315.257352 120.730505 330.157013 120.730505 330.157013 126.493767"></polygon>
                    <polygon id="Fill-44" points="337.793866 120.729926 344.590634 120.729926 357.06608 136.733683 357.134063 136.733683 357.134063 120.729926 363.93083 120.729926 363.93083 146.904742 357.134063 146.904742 344.675973 130.867713 344.590634 130.867713 344.590634 146.904742 337.793866 146.904742"></polygon>
                    <polygon id="Fill-45" points="381.8421 146.904452 375.045332 146.904452 375.045332 126.494346 369.417279 126.494346 369.417279 120.729637 387.470154 120.729637 387.470154 126.494346 381.8421 126.494346"></polygon>
                    <path d="M402.726359,128.816286 L402.658377,128.816286 L399.845073,137.157393 L405.506395,137.157393 L402.726359,128.816286 Z M397.96327,142.36082 L396.166805,146.904597 L388.946234,146.904597 L399.014823,120.729782 L406.437895,120.729782 L416.303984,146.904597 L409.048698,146.904597 L407.337573,142.36082 L397.96327,142.36082 Z" id="Fill-46"></path>
                    <polygon id="Fill-47" points="429.125127 141.140612 437.294555 141.140612 437.294555 146.903874 422.328359 146.903874 422.328359 120.730505 429.125127 120.730505"></polygon>
                    <path d="M472.731187,127.460097 C472.099098,126.940767 471.39758,126.522699 470.629527,126.205893 C469.861473,125.889087 469.058705,125.731408 468.22267,125.731408 C467.905902,125.731408 467.577562,125.776252 467.239098,125.865942 C466.900634,125.957078 466.586759,126.093058 466.29892,126.273883 C466.01108,126.454709 465.77242,126.683272 465.587277,126.959573 C465.400688,127.23732 465.30667,127.555573 465.30667,127.917223 C465.30667,128.302019 465.409366,128.630398 465.611866,128.900913 C465.815812,129.172874 466.070384,129.40433 466.374134,129.596728 C466.67933,129.78768 467.00767,129.949699 467.357705,130.079893 C467.707741,130.208641 468.030295,130.320029 468.32392,130.409718 L470.052402,130.934835 C470.967991,131.206796 471.818491,131.530835 472.603902,131.909845 C473.389312,132.288854 474.07058,132.760447 474.646259,133.326068 C475.223384,133.890243 475.677562,134.560019 476.011687,135.333951 C476.344366,136.10933 476.510705,137.026476 476.510705,138.089728 C476.510705,138.733466 476.468759,139.380097 476.38342,140.029621 C476.299527,140.680592 476.151991,141.309864 475.943705,141.92033 C475.733973,142.530796 475.454812,143.109437 475.104777,143.657699 C474.753295,144.205961 474.319366,144.700699 473.798652,145.141913 C472.770241,146.01132 471.610205,146.639146 470.315652,147.022495 C469.022545,147.407291 467.707741,147.599689 466.374134,147.599689 C464.725205,147.599689 463.11533,147.336408 461.544509,146.811291 C459.973687,146.286175 458.515688,145.554194 457.170509,144.61535 L460.086509,139.124049 C460.516098,139.495825 460.961598,139.84735 461.425902,140.174282 C461.888759,140.50266 462.374759,140.790534 462.882455,141.03935 C463.391598,141.288165 463.916652,141.48201 464.459063,141.623777 C465.001473,141.765544 465.561241,141.836427 466.13692,141.836427 C466.533241,141.836427 466.928116,141.78435 467.324437,141.683087 C467.719313,141.581825 468.072241,141.422699 468.383223,141.208602 C468.694205,140.993058 468.945884,140.71965 469.138259,140.386932 C469.329188,140.052767 469.426098,139.654951 469.426098,139.190592 C469.426098,138.716107 469.278563,138.315398 468.984938,137.987019 C468.691312,137.660087 468.332598,137.379447 467.908795,137.14799 C467.484991,136.916534 467.035152,136.727029 466.560723,136.580922 C466.086295,136.433369 465.668277,136.308961 465.30667,136.207699 C464.23342,135.902466 463.26142,135.58566 462.392116,135.258728 C461.521366,134.93035 460.777902,134.497816 460.16317,133.961126 C459.546991,133.424437 459.06967,132.748874 458.729759,131.935883 C458.391295,131.121447 458.222062,130.08134 458.222062,128.815563 C458.222062,127.493369 458.444812,126.289796 458.891759,125.204845 C459.337259,124.119893 459.962116,123.196961 460.764884,122.433155 C461.566205,121.670796 462.517955,121.080583 463.620134,120.662515 C464.722313,120.244447 465.928634,120.034689 467.239098,120.034689 C467.89433,120.034689 468.584277,120.08532 469.307491,120.188029 C470.030705,120.289291 470.748134,120.433951 471.459777,120.619117 C472.17142,120.805728 472.867152,121.032845 473.54408,121.297573 C474.222455,121.563748 474.855991,121.860301 475.443241,122.187233 L472.731187,127.460097 Z" id="Fill-48"></path>
                    <path d="M501.658457,129.511379 C501.308421,129.036893 500.909207,128.621718 500.463707,128.265854 C500.016761,127.90999 499.536546,127.610544 499.023064,127.367515 C498.508136,127.124485 497.968618,126.940767 497.404511,126.816359 C496.838957,126.691951 496.267618,126.629748 495.691939,126.629748 C494.651957,126.629748 493.7031,126.816359 492.843921,127.189583 C491.986189,127.561359 491.251404,128.07635 490.641011,128.73166 C490.030618,129.386971 489.556189,130.155117 489.216279,131.037544 C488.877814,131.918524 488.708582,132.867495 488.708582,133.884456 C488.708582,134.924563 488.877814,135.87932 489.216279,136.750175 C489.556189,137.619583 490.036404,138.368922 490.658368,138.996748 C491.278886,139.623126 492.025243,140.114971 492.894546,140.470835 C493.765296,140.826699 494.731511,141.004631 495.793189,141.004631 C496.347171,141.004631 496.898261,140.939534 497.446457,140.810786 C497.994654,140.680592 498.519707,140.493981 499.023064,140.250951 C499.524975,140.007922 500.00085,139.717155 500.44635,139.377204 C500.893296,139.038699 501.29685,138.653903 501.658457,138.224262 L501.658457,146.378757 C501.092904,146.54801 500.562064,146.710029 500.064493,146.861922 C499.568368,147.015262 499.082368,147.14401 498.607939,147.252505 C498.132064,147.359553 497.654743,147.443456 497.174529,147.50566 C496.694314,147.567864 496.189511,147.599689 495.658671,147.599689 C493.827493,147.599689 492.072975,147.265524 490.395118,146.600087 C488.717261,145.933204 487.194171,144.982786 485.827296,143.751728 C484.380868,142.441107 483.317743,140.951107 482.640814,139.284621 C481.962439,137.618136 481.622529,135.80699 481.622529,133.851184 C481.622529,132.054505 481.950868,130.330155 482.6061,128.681029 C483.261332,127.030456 484.221761,125.562155 485.487386,124.273233 C486.132493,123.617922 486.83835,123.027709 487.606404,122.501146 C488.374457,121.976029 489.185904,121.529029 490.039296,121.163039 C490.892689,120.795602 491.776457,120.514961 492.692046,120.322563 C493.607636,120.131612 494.521779,120.034689 495.437368,120.034689 C496.533761,120.034689 497.589654,120.150417 498.607939,120.381874 C499.624779,120.614777 500.641618,120.938816 501.658457,121.356883 L501.658457,129.511379 Z" id="Fill-49"></path>
                    <polygon id="Fill-50" points="509.333786 146.903874 516.130554 146.903874 516.130554 120.729058 509.333786 120.729058"></polygon>
                    <polygon id="Fill-51" points="530.791843 126.493767 530.791843 130.866845 538.470932 130.866845 538.470932 136.631553 530.791843 136.631553 530.791843 141.140612 538.894736 141.140612 538.894736 146.903874 523.995075 146.903874 523.995075 120.730505 538.894736 120.730505 538.894736 126.493767"></polygon>
                    <polygon id="Fill-52" points="547.210977 120.729926 554.007745 120.729926 566.483191 136.733683 566.551173 136.733683 566.551173 120.729926 573.347941 120.729926 573.347941 146.904742 566.551173 146.904742 554.093084 130.867713 554.007745 130.867713 554.007745 146.904742 547.210977 146.904742"></polygon>
                    <path d="M599.210373,129.511379 C598.860338,129.036893 598.461123,128.621718 598.015623,128.265854 C597.568677,127.90999 597.088463,127.610544 596.57498,127.367515 C596.060052,127.124485 595.520534,126.940767 594.956427,126.816359 C594.390873,126.691951 593.819534,126.629748 593.243855,126.629748 C592.203873,126.629748 591.255016,126.816359 590.395838,127.189583 C589.538105,127.561359 588.80332,128.07635 588.192927,128.73166 C587.582534,129.386971 587.108105,130.155117 586.768195,131.037544 C586.42973,131.918524 586.260498,132.867495 586.260498,133.884456 C586.260498,134.924563 586.42973,135.87932 586.768195,136.750175 C587.108105,137.619583 587.58832,138.368922 588.210284,138.996748 C588.830802,139.623126 589.577159,140.114971 590.446463,140.470835 C591.317213,140.826699 592.283427,141.004631 593.345105,141.004631 C593.899088,141.004631 594.450177,140.939534 594.998373,140.810786 C595.54657,140.680592 596.071623,140.493981 596.57498,140.250951 C597.076891,140.007922 597.552766,139.717155 597.998266,139.377204 C598.445213,139.038699 598.848766,138.653903 599.210373,138.224262 L599.210373,146.378757 C598.64482,146.54801 598.11398,146.710029 597.616409,146.861922 C597.120284,147.015262 596.634284,147.14401 596.159855,147.252505 C595.68398,147.359553 595.206659,147.443456 594.726445,147.50566 C594.24623,147.567864 593.741427,147.599689 593.210588,147.599689 C591.379409,147.599689 589.624891,147.265524 587.947034,146.600087 C586.269177,145.933204 584.746088,144.982786 583.379213,143.751728 C581.932784,142.441107 580.869659,140.951107 580.19273,139.284621 C579.514355,137.618136 579.174445,135.80699 579.174445,133.851184 C579.174445,132.054505 579.502784,130.330155 580.158016,128.681029 C580.813248,127.030456 581.773677,125.562155 583.039302,124.273233 C583.684409,123.617922 584.390266,123.027709 585.15832,122.501146 C585.926373,121.976029 586.73782,121.529029 587.591213,121.163039 C588.444605,120.795602 589.328373,120.514961 590.243963,120.322563 C591.159552,120.131612 592.073695,120.034689 592.989284,120.034689 C594.085677,120.034689 595.14157,120.150417 596.159855,120.381874 C597.176695,120.614777 598.193534,120.938816 599.210373,121.356883 L599.210373,129.511379 Z" id="Fill-53"></path>
                    <polygon id="Fill-54" points="613.659182 126.493767 613.659182 130.866845 621.338271 130.866845 621.338271 136.631553 613.659182 136.631553 613.659182 141.140612 621.762075 141.140612 621.762075 146.903874 606.862414 146.903874 606.862414 120.730505 621.762075 120.730505 621.762075 126.493767"></polygon>
                    <path d="M643.383,127.460097 C642.750911,126.940767 642.049393,126.522699 641.281339,126.205893 C640.513286,125.889087 639.710518,125.731408 638.874482,125.731408 C638.557714,125.731408 638.229375,125.776252 637.890911,125.865942 C637.552446,125.957078 637.238571,126.093058 636.950732,126.273883 C636.662893,126.454709 636.424232,126.683272 636.239089,126.959573 C636.0525,127.23732 635.958482,127.555573 635.958482,127.917223 C635.958482,128.302019 636.061179,128.630398 636.263679,128.900913 C636.467625,129.172874 636.722196,129.40433 637.025946,129.596728 C637.331143,129.78768 637.659482,129.949699 638.009518,130.079893 C638.359554,130.208641 638.682107,130.320029 638.975732,130.409718 L640.704214,130.934835 C641.619804,131.206796 642.470304,131.530835 643.255714,131.909845 C644.041125,132.288854 644.722393,132.760447 645.298071,133.326068 C645.875196,133.890243 646.329375,134.560019 646.6635,135.333951 C646.996179,136.10933 647.162518,137.026476 647.162518,138.089728 C647.162518,138.733466 647.120571,139.380097 647.035232,140.029621 C646.951339,140.680592 646.803804,141.309864 646.595518,141.92033 C646.385786,142.530796 646.106625,143.109437 645.756589,143.657699 C645.405107,144.205961 644.971179,144.700699 644.450464,145.141913 C643.422054,146.01132 642.262018,146.639146 640.967464,147.022495 C639.674357,147.407291 638.359554,147.599689 637.025946,147.599689 C635.377018,147.599689 633.767143,147.336408 632.196321,146.811291 C630.6255,146.286175 629.1675,145.554194 627.822321,144.61535 L630.738321,139.124049 C631.167911,139.495825 631.613411,139.84735 632.077714,140.174282 C632.540571,140.50266 633.026571,140.790534 633.534268,141.03935 C634.043411,141.288165 634.568464,141.48201 635.110875,141.623777 C635.653286,141.765544 636.213054,141.836427 636.788732,141.836427 C637.185054,141.836427 637.579929,141.78435 637.97625,141.683087 C638.371125,141.581825 638.724054,141.422699 639.035036,141.208602 C639.346018,140.993058 639.597696,140.71965 639.790071,140.386932 C639.981,140.052767 640.077911,139.654951 640.077911,139.190592 C640.077911,138.716107 639.930375,138.315398 639.63675,137.987019 C639.343125,137.660087 638.984411,137.379447 638.560607,137.14799 C638.136804,136.916534 637.686964,136.727029 637.212536,136.580922 C636.738107,136.433369 636.320089,136.308961 635.958482,136.207699 C634.885232,135.902466 633.913232,135.58566 633.043929,135.258728 C632.173179,134.93035 631.429714,134.497816 630.814982,133.961126 C630.198804,133.424437 629.721482,132.748874 629.381571,131.935883 C629.043107,131.121447 628.873875,130.08134 628.873875,128.815563 C628.873875,127.493369 629.096625,126.289796 629.543571,125.204845 C629.989071,124.119893 630.613929,123.196961 631.416696,122.433155 C632.218018,121.670796 633.169768,121.080583 634.271946,120.662515 C635.374125,120.244447 636.580446,120.034689 637.890911,120.034689 C638.546143,120.034689 639.236089,120.08532 639.959304,120.188029 C640.682518,120.289291 641.399946,120.433951 642.111589,120.619117 C642.823232,120.805728 643.518964,121.032845 644.195893,121.297573 C644.874268,121.563748 645.507804,121.860301 646.095054,122.187233 L643.383,127.460097 Z" id="Fill-55"></path>
                </g>
            </g>
        </g>
    </g>
</svg>