<?xml version="1.0" encoding="UTF-8"?>
<svg width="31px" height="31px" viewBox="0 0 31 31" version="1.1" xmlns="http://www.w3.org/2000/svg" xmlns:xlink="http://www.w3.org/1999/xlink">
    <!-- Generator: Sketch 43.2 (39069) - http://www.bohemiancoding.com/sketch -->
    <title>twitter</title>
    <desc>Created with Sketch.</desc>
    <defs></defs>
    <g id="Page-2" stroke="none" stroke-width="1" fill="none" fill-rule="evenodd">
        <g id="Artboard-3" transform="translate(-946.000000, -1184.000000)">
            <g id="twitter" transform="translate(946.000000, 1184.000000)">
                <rect id="Rectangle-16-Copy" fill="#00ACED" x="0" y="0" width="31" height="31"></rect>
                <path d="M25,10.3957853 C24.3333333,10.6874519 23.625,10.8957853 22.875,10.9791186 C23.6458333,10.5207853 24.2291667,9.79161859 24.5,8.93745192 C23.7916667,9.35411859 23,9.66661859 22.1666667,9.83328525 C21.4791667,9.12495192 20.5208333,8.66661859 19.4583333,8.66661859 C17.4166667,8.66661859 15.7708333,10.3124519 15.7708333,12.3541186 C15.7708333,12.6457853 15.7916667,12.9374519 15.8541667,13.2082853 C12.7916667,13.0416186 10.0833333,11.6457853 8.25,9.41661859 C7.9375,9.95828525 7.75,10.5207853 7.75,11.2082853 C7.75,12.4791186 8.39583333,13.6041186 9.39583333,14.2707853 C8.79166667,14.2499519 8.22916667,14.0832853 7.72916667,13.8124519 L7.72916667,13.8541186 C7.72916667,15.6457853 9,17.1457853 10.6875,17.4791186 C10.375,17.5624519 10.0416667,17.6041186 9.70833333,17.6041186 C9.47916667,17.6041186 9.25,17.5832853 9.02083333,17.5416186 C9.47916667,18.9999519 10.8541667,20.0832853 12.4583333,20.1041186 C11.2083333,21.1041186 9.60416667,21.8541186 7.875,21.8541186 C7.58333333,21.8541186 7.29166667,21.8332853 7,21.7916186 C8.625,22.8332853 10.5833333,23.2916186 12.6666667,23.2916186 C19.4583333,23.2916186 23.1666667,17.6666186 23.1666667,12.7916186 L23.1666667,12.3124519 C23.875,11.7916186 24.5,11.1457853 25,10.3957853 Z" fill="#FFFFFF"></path>
            </g>
        </g>
    </g>
</svg>