<?xml version="1.0" encoding="UTF-8" standalone="no"?>
<svg width="39px" height="36px" viewBox="0 0 39 36" version="1.1" xmlns="http://www.w3.org/2000/svg" xmlns:xlink="http://www.w3.org/1999/xlink">
    <!-- Generator: Sketch 39.1 (31720) - http://www.bohemiancoding.com/sketch -->
    <title>XMLID_2061_</title>
    <desc>Created with Sketch.</desc>
    <defs></defs>
    <g id="Page-1" stroke="none" stroke-width="1" fill="none" fill-rule="evenodd">
        <path d="M22.6943076,10.3714286 L22.6943076,6.55714286 C22.6943076,5.74285714 23.3725685,5.05714286 24.1780033,5.05714286 C24.983438,5.05714286 25.6616989,5.74285714 25.6616989,6.55714286 L25.6616989,10.3714286 C25.6616989,11.1857143 24.983438,11.8714286 24.1780033,11.8714286 C23.3725685,11.8714286 22.6943076,11.1857143 22.6943076,10.3714286 L22.6943076,10.3714286 Z M24.0932207,16.2 C24.559525,16.2 24.983438,16.0285714 25.2801772,15.6857143 C25.5769163,15.3428571 25.7888728,14.9142857 25.7888728,14.4857143 C25.7888728,14.0142857 25.6193076,13.5857143 25.2801772,13.2857143 C24.983438,12.9428571 24.5171337,12.7714286 24.0932207,12.7714286 C23.6269163,12.7714286 23.2030033,12.9428571 22.9062641,13.2857143 C22.609525,13.5857143 22.3975685,14.0571429 22.3975685,14.4857143 C22.3975685,14.9142857 22.5671337,15.3857143 22.9062641,15.6857143 C23.2030033,16.0285714 23.6693076,16.2 24.0932207,16.2 L24.0932207,16.2 Z M35.3269163,14.5714286 C34.0551772,15.9 32.4866989,16.7142857 30.6214815,17.0142857 C29.6888728,22.7571429 25.6616989,25.6714286 20.9986554,26.2714286 L20.9986554,32.5714286 L24.6443076,32.5714286 C25.5769163,32.5714286 26.3399598,33.3428571 26.3399598,34.2857143 C26.3399598,35.2285714 25.5769163,36 24.6443076,36 L14.0040902,36 C13.0714815,36 12.308438,35.2285714 12.308438,34.2857143 C12.308438,33.3428571 13.0714815,32.5714286 14.0040902,32.5714286 L17.6073511,32.5714286 L17.6073511,26.2714286 C12.9443076,25.6714286 8.959525,22.7571429 8.02691631,17.0142857 C6.16169892,16.7142857 4.59322065,15.9428571 3.27909022,14.5714286 C-0.196996737,10.9285714 -0.0274315195,4.71428571 0.0149597848,4.45714286 C0.0573510892,3.64285714 0.693220654,3 1.49865544,3 L7.85735109,3 L7.85735109,1.71428571 C7.85735109,0.771428571 8.57800326,0 9.51061196,0 L29.0953946,0 C30.0280033,0 30.7486554,0.771428571 30.7486554,1.71428571 L30.7486554,3 L37.1073511,3 C37.9127859,3 38.5486554,3.64285714 38.5910467,4.45714286 C38.5910467,4.71428571 38.760612,10.9714286 35.3269163,14.5714286 L35.3269163,14.5714286 Z M5.44104674,12.5142857 C6.11930761,13.2 7.009525,13.7142857 7.85735109,13.9285714 L7.85735109,6 L3.02474239,6 C3.19430761,7.71428571 3.70300326,10.6714286 5.44104674,12.5142857 L5.44104674,12.5142857 Z M27.3573511,3.42857143 L11.2486554,3.42857143 L11.2486554,14.5285714 C11.2486554,20.7428571 15.4030033,22.9285714 19.3030033,22.9285714 C23.2030033,22.9285714 27.3573511,20.7 27.3573511,14.5285714 L27.3573511,3.42857143 L27.3573511,3.42857143 Z M33.1649598,12.5142857 C34.8182207,10.8 35.4116989,8.14285714 35.5812641,6 L30.7486554,6 L30.7486554,13.9285714 C31.5964815,13.6714286 32.4866989,13.2 33.1649598,12.5142857 L33.1649598,12.5142857 Z" id="XMLID_2061_" fill="#002855"></path>
    </g>
</svg>