<?xml version="1.0" encoding="UTF-8" standalone="no"?>
<svg width="289px" height="40px" viewBox="0 0 289 40" version="1.1" xmlns="http://www.w3.org/2000/svg" xmlns:xlink="http://www.w3.org/1999/xlink">
    <!-- Generator: Sketch 39.1 (31720) - http://www.bohemiancoding.com/sketch -->
    <title>bg-awards</title>
    <desc>Created with Sketch.</desc>
    <defs></defs>
    <g id="Page-1" stroke="none" stroke-width="1" fill="none" fill-rule="evenodd">
        <g id="bg-awards">
            <rect id="Rectangle-8" fill="#002855" x="0" y="0" width="289" height="40"></rect>
            <path d="M90.416,25.904 L91.2,28 L94.544,28 L90,15.936 L86.576,15.936 L81.936,28 L85.264,28 L86.096,25.904 L90.416,25.904 Z M89.568,23.504 L86.96,23.504 L88.256,19.664 L88.288,19.664 L89.568,23.504 Z M96.6382222,19.792 L93.4062222,19.792 L97.6942222,28 L99.5822222,28 L101.614222,23.504 L103.646222,28 L105.534222,28 L109.822222,19.792 L106.606222,19.792 L104.542222,24.24 L102.478222,19.792 L100.750222,19.792 L98.6862222,24.24 L96.6382222,19.792 Z M114.572444,22.048 C115.756444,22.048 116.444444,22.896 116.444444,23.904 C116.444444,24.944 115.756444,25.744 114.572444,25.744 C113.388444,25.744 112.700444,24.944 112.700444,23.904 C112.700444,22.896 113.388444,22.048 114.572444,22.048 L114.572444,22.048 Z M119.260444,19.792 L116.348444,19.792 L116.348444,20.592 C115.740444,19.872 114.748444,19.52 113.804444,19.52 C111.372444,19.52 109.692444,21.536 109.692444,23.888 C109.692444,26.24 111.404444,28.272 113.836444,28.272 C114.796444,28.272 115.804444,27.904 116.316444,27.088 L116.348444,27.088 L116.348444,28 L119.260444,28 L119.260444,19.792 Z M123.850667,19.792 L120.938667,19.792 L120.938667,28 L123.850667,28 L123.850667,24.688 C123.850667,23.28 124.250667,22.208 125.866667,22.208 C126.314667,22.208 126.698667,22.256 127.098667,22.48 L127.098667,19.68 L126.538667,19.68 C125.402667,19.68 124.442667,20.128 123.882667,21.136 L123.850667,21.136 L123.850667,19.792 Z M134.104889,28 L137.016889,28 L137.016889,14.72 L134.104889,14.72 L134.104889,20.592 C133.496889,19.872 132.504889,19.52 131.560889,19.52 C129.128889,19.52 127.448889,21.536 127.448889,23.888 C127.448889,26.24 129.160889,28.272 131.592889,28.272 C132.552889,28.272 133.560889,27.904 134.072889,27.088 L134.104889,27.088 L134.104889,28 Z M132.328889,22.048 C133.512889,22.048 134.200889,22.896 134.200889,23.904 C134.200889,24.944 133.512889,25.744 132.328889,25.744 C131.144889,25.744 130.456889,24.944 130.456889,23.904 C130.456889,22.896 131.144889,22.048 132.328889,22.048 L132.328889,22.048 Z M144.983111,20.048 C144.135111,19.664 143.207111,19.52 142.279111,19.52 C140.487111,19.52 138.663111,20.416 138.663111,22.432 C138.663111,23.904 139.575111,24.352 140.487111,24.592 C141.399111,24.832 142.311111,24.864 142.311111,25.504 C142.311111,25.952 141.767111,26.128 141.399111,26.128 C140.679111,26.128 139.687111,25.712 139.095111,25.296 L138.039111,27.328 C139.031111,27.936 140.183111,28.272 141.351111,28.272 C143.255111,28.272 145.223111,27.376 145.223111,25.216 C145.223111,23.696 144.199111,23.056 142.839111,22.784 C142.439111,22.704 141.527111,22.624 141.527111,22.064 C141.527111,21.648 142.103111,21.504 142.439111,21.504 C142.935111,21.504 143.559111,21.664 144.007111,21.904 L144.983111,20.048 Z M156.051556,22.048 C157.235556,22.048 157.923556,22.896 157.923556,23.904 C157.923556,24.944 157.235556,25.744 156.051556,25.744 C154.867556,25.744 154.179556,24.944 154.179556,23.904 C154.179556,22.896 154.867556,22.048 156.051556,22.048 L156.051556,22.048 Z M160.739556,19.792 L157.827556,19.792 L157.827556,20.592 C157.219556,19.872 156.227556,19.52 155.283556,19.52 C152.851556,19.52 151.171556,21.536 151.171556,23.888 C151.171556,26.24 152.883556,28.272 155.315556,28.272 C156.275556,28.272 157.283556,27.904 157.795556,27.088 L157.827556,27.088 L157.827556,28 L160.739556,28 L160.739556,19.792 Z M165.329778,19.792 L162.417778,19.792 L162.417778,28 L165.329778,28 L165.329778,23.744 C165.329778,22.72 165.665778,21.84 166.849778,21.84 C168.289778,21.84 168.161778,23.216 168.161778,24 L168.161778,28 L171.073778,28 L171.073778,22.928 C171.073778,20.912 170.193778,19.52 167.985778,19.52 C166.849778,19.52 166.033778,19.856 165.361778,20.848 L165.329778,20.848 L165.329778,19.792 Z M178.912,28 L181.824,28 L181.824,14.72 L178.912,14.72 L178.912,20.592 C178.304,19.872 177.312,19.52 176.368,19.52 C173.936,19.52 172.256,21.536 172.256,23.888 C172.256,26.24 173.968,28.272 176.4,28.272 C177.36,28.272 178.368,27.904 178.88,27.088 L178.912,27.088 L178.912,28 Z M177.136,22.048 C178.32,22.048 179.008,22.896 179.008,23.904 C179.008,24.944 178.32,25.744 177.136,25.744 C175.952,25.744 175.264,24.944 175.264,23.904 C175.264,22.896 175.952,22.048 177.136,22.048 L177.136,22.048 Z M191.820444,20.592 L191.820444,15.936 L188.684444,15.936 L188.684444,28 L191.820444,28 L191.820444,23.056 L196.348444,23.056 L196.348444,28 L199.484444,28 L199.484444,15.936 L196.348444,15.936 L196.348444,20.592 L191.820444,20.592 Z M205.546667,19.52 C202.906667,19.52 200.602667,21.104 200.602667,23.904 C200.602667,26.704 202.922667,28.272 205.546667,28.272 C208.186667,28.272 210.490667,26.688 210.490667,23.904 C210.490667,21.104 208.186667,19.52 205.546667,19.52 L205.546667,19.52 Z M205.546667,22.048 C206.730667,22.048 207.418667,22.896 207.418667,23.904 C207.418667,24.944 206.730667,25.744 205.546667,25.744 C204.362667,25.744 203.674667,24.944 203.674667,23.904 C203.674667,22.896 204.362667,22.048 205.546667,22.048 L205.546667,22.048 Z M214.456889,19.792 L211.544889,19.792 L211.544889,28 L214.456889,28 L214.456889,23.744 C214.456889,22.72 214.792889,21.84 215.976889,21.84 C217.416889,21.84 217.288889,23.216 217.288889,24 L217.288889,28 L220.200889,28 L220.200889,22.928 C220.200889,20.912 219.320889,19.52 217.112889,19.52 C215.976889,19.52 215.160889,19.856 214.488889,20.848 L214.456889,20.848 L214.456889,19.792 Z M226.199111,19.52 C223.559111,19.52 221.255111,21.104 221.255111,23.904 C221.255111,26.704 223.575111,28.272 226.199111,28.272 C228.839111,28.272 231.143111,26.688 231.143111,23.904 C231.143111,21.104 228.839111,19.52 226.199111,19.52 L226.199111,19.52 Z M226.199111,22.048 C227.383111,22.048 228.071111,22.896 228.071111,23.904 C228.071111,24.944 227.383111,25.744 226.199111,25.744 C225.015111,25.744 224.327111,24.944 224.327111,23.904 C224.327111,22.896 225.015111,22.048 226.199111,22.048 L226.199111,22.048 Z M235.109333,19.792 L232.197333,19.792 L232.197333,28 L235.109333,28 L235.109333,24.688 C235.109333,23.28 235.509333,22.208 237.125333,22.208 C237.573333,22.208 237.957333,22.256 238.357333,22.48 L238.357333,19.68 L237.797333,19.68 C236.661333,19.68 235.701333,20.128 235.141333,21.136 L235.109333,21.136 L235.109333,19.792 Z M245.587556,20.048 C244.739556,19.664 243.811556,19.52 242.883556,19.52 C241.091556,19.52 239.267556,20.416 239.267556,22.432 C239.267556,23.904 240.179556,24.352 241.091556,24.592 C242.003556,24.832 242.915556,24.864 242.915556,25.504 C242.915556,25.952 242.371556,26.128 242.003556,26.128 C241.283556,26.128 240.291556,25.712 239.699556,25.296 L238.643556,27.328 C239.635556,27.936 240.787556,28.272 241.955556,28.272 C243.859556,28.272 245.827556,27.376 245.827556,25.216 C245.827556,23.696 244.803556,23.056 243.443556,22.784 C243.043556,22.704 242.131556,22.624 242.131556,22.064 C242.131556,21.648 242.707556,21.504 243.043556,21.504 C243.539556,21.504 244.163556,21.664 244.611556,21.904 L245.587556,20.048 Z" id="Awards-and-Honors" fill="#FFFFFF"></path>
            <path d="M60.1729682,18.1061105 L60.1729682,16.2282434 C60.1729682,15.8273504 60.5068928,15.4897563 60.9034282,15.4897563 C61.2999636,15.4897563 61.6338882,15.8273504 61.6338882,16.2282434 L61.6338882,18.1061105 C61.6338882,18.5070034 61.2999636,18.8445975 60.9034282,18.8445975 C60.5068928,18.8445975 60.1729682,18.5070034 60.1729682,18.1061105 L60.1729682,18.1061105 Z M60.8616876,20.9756601 C61.0912608,20.9756601 61.2999636,20.8912616 61.4460556,20.7224646 C61.5921476,20.5536675 61.6964991,20.3426712 61.6964991,20.1316749 C61.6964991,19.899579 61.6130179,19.6885827 61.4460556,19.5408853 C61.2999636,19.3720883 61.0703905,19.2876897 60.8616876,19.2876897 C60.6321145,19.2876897 60.4234116,19.3720883 60.2773196,19.5408853 C60.1312276,19.6885827 60.0268762,19.9206786 60.0268762,20.1316749 C60.0268762,20.3426712 60.1103573,20.5747672 60.2773196,20.7224646 C60.4234116,20.8912616 60.6529848,20.9756601 60.8616876,20.9756601 L60.8616876,20.9756601 Z M66.3923135,20.1738742 C65.7662049,20.8279627 64.9940043,21.2288557 64.0757117,21.3765531 C63.6165654,24.2039035 61.6338882,25.6386784 59.3381567,25.9340732 L59.3381567,29.0357188 L61.1330013,29.0357188 C61.5921476,29.0357188 61.9678128,29.4155121 61.9678128,29.879704 C61.9678128,30.3438958 61.5921476,30.7236892 61.1330013,30.7236892 L55.8945595,30.7236892 C55.4354132,30.7236892 55.0597481,30.3438958 55.0597481,29.879704 C55.0597481,29.4155121 55.4354132,29.0357188 55.8945595,29.0357188 L57.6685338,29.0357188 L57.6685338,25.9340732 C55.3728024,25.6386784 53.4109955,24.2039035 52.9518492,21.3765531 C52.0335566,21.2288557 51.261356,20.8490624 50.6143771,20.1738742 C48.9030136,18.3804056 48.9864948,15.3209593 49.0073651,15.1943615 C49.0282354,14.7934685 49.3412897,14.4769741 49.7378251,14.4769741 L52.868368,14.4769741 L52.868368,13.8439852 C52.868368,13.3797933 53.2231629,13 53.6823092,13 L63.3243814,13 C63.7835277,13 64.1383225,13.3797933 64.1383225,13.8439852 L64.1383225,14.4769741 L67.2688655,14.4769741 C67.6654009,14.4769741 67.9784552,14.7934685 67.9993255,15.1943615 C67.9993255,15.3209593 68.0828066,18.4015053 66.3923135,20.1738742 L66.3923135,20.1738742 Z M51.6787617,19.161092 C52.0126863,19.498686 52.4509623,19.7518816 52.868368,19.8573797 L52.868368,15.9539482 L50.4891554,15.9539482 C50.5726365,16.7979334 50.82308,18.2538079 51.6787617,19.161092 L51.6787617,19.161092 Z M62.4686997,14.6879704 L54.5379909,14.6879704 L54.5379909,20.1527746 C54.5379909,23.2122209 56.583279,24.288302 58.5033453,24.288302 C60.4234116,24.288302 62.4686997,23.1911213 62.4686997,20.1527746 L62.4686997,14.6879704 L62.4686997,14.6879704 Z M65.3279289,19.161092 C66.14187,18.3171068 66.434054,17.0089297 66.5175352,15.9539482 L64.1383225,15.9539482 L64.1383225,19.8573797 C64.5557283,19.730782 64.9940043,19.498686 65.3279289,19.161092 L65.3279289,19.161092 Z" id="XMLID_2061_" fill="#FFFFFF"></path>
        </g>
    </g>
</svg>