<?xml version="1.0" encoding="UTF-8" standalone="no"?>
<svg width="306px" height="40px" viewBox="0 0 306 40" version="1.1" xmlns="http://www.w3.org/2000/svg" xmlns:xlink="http://www.w3.org/1999/xlink">
    <!-- Generator: Sketch 39.1 (31720) - http://www.bohemiancoding.com/sketch -->
    <title>bg-awards</title>
    <desc>Created with Sketch.</desc>
    <defs></defs>
    <g id="Page-1" stroke="none" stroke-width="1" fill="none" fill-rule="evenodd">
        <g id="bg-awards">
            <rect id="Rectangle-8" fill="#002855" x="0" y="0" width="306" height="40"></rect>
            <path d="M99.416,25.904 L100.2,28 L103.544,28 L99,15.936 L95.576,15.936 L90.936,28 L94.264,28 L95.096,25.904 L99.416,25.904 Z M98.568,23.504 L95.96,23.504 L97.256,19.664 L97.288,19.664 L98.568,23.504 Z M105.638222,19.792 L102.406222,19.792 L106.694222,28 L108.582222,28 L110.614222,23.504 L112.646222,28 L114.534222,28 L118.822222,19.792 L115.606222,19.792 L113.542222,24.24 L111.478222,19.792 L109.750222,19.792 L107.686222,24.24 L105.638222,19.792 Z M123.572444,22.048 C124.756444,22.048 125.444444,22.896 125.444444,23.904 C125.444444,24.944 124.756444,25.744 123.572444,25.744 C122.388444,25.744 121.700444,24.944 121.700444,23.904 C121.700444,22.896 122.388444,22.048 123.572444,22.048 L123.572444,22.048 Z M128.260444,19.792 L125.348444,19.792 L125.348444,20.592 C124.740444,19.872 123.748444,19.52 122.804444,19.52 C120.372444,19.52 118.692444,21.536 118.692444,23.888 C118.692444,26.24 120.404444,28.272 122.836444,28.272 C123.796444,28.272 124.804444,27.904 125.316444,27.088 L125.348444,27.088 L125.348444,28 L128.260444,28 L128.260444,19.792 Z M132.850667,19.792 L129.938667,19.792 L129.938667,28 L132.850667,28 L132.850667,24.688 C132.850667,23.28 133.250667,22.208 134.866667,22.208 C135.314667,22.208 135.698667,22.256 136.098667,22.48 L136.098667,19.68 L135.538667,19.68 C134.402667,19.68 133.442667,20.128 132.882667,21.136 L132.850667,21.136 L132.850667,19.792 Z M143.104889,28 L146.016889,28 L146.016889,14.72 L143.104889,14.72 L143.104889,20.592 C142.496889,19.872 141.504889,19.52 140.560889,19.52 C138.128889,19.52 136.448889,21.536 136.448889,23.888 C136.448889,26.24 138.160889,28.272 140.592889,28.272 C141.552889,28.272 142.560889,27.904 143.072889,27.088 L143.104889,27.088 L143.104889,28 Z M141.328889,22.048 C142.512889,22.048 143.200889,22.896 143.200889,23.904 C143.200889,24.944 142.512889,25.744 141.328889,25.744 C140.144889,25.744 139.456889,24.944 139.456889,23.904 C139.456889,22.896 140.144889,22.048 141.328889,22.048 L141.328889,22.048 Z M153.983111,20.048 C153.135111,19.664 152.207111,19.52 151.279111,19.52 C149.487111,19.52 147.663111,20.416 147.663111,22.432 C147.663111,23.904 148.575111,24.352 149.487111,24.592 C150.399111,24.832 151.311111,24.864 151.311111,25.504 C151.311111,25.952 150.767111,26.128 150.399111,26.128 C149.679111,26.128 148.687111,25.712 148.095111,25.296 L147.039111,27.328 C148.031111,27.936 149.183111,28.272 150.351111,28.272 C152.255111,28.272 154.223111,27.376 154.223111,25.216 C154.223111,23.696 153.199111,23.056 151.839111,22.784 C151.439111,22.704 150.527111,22.624 150.527111,22.064 C150.527111,21.648 151.103111,21.504 151.439111,21.504 C151.935111,21.504 152.559111,21.664 153.007111,21.904 L153.983111,20.048 Z M165.051556,22.048 C166.235556,22.048 166.923556,22.896 166.923556,23.904 C166.923556,24.944 166.235556,25.744 165.051556,25.744 C163.867556,25.744 163.179556,24.944 163.179556,23.904 C163.179556,22.896 163.867556,22.048 165.051556,22.048 L165.051556,22.048 Z M169.739556,19.792 L166.827556,19.792 L166.827556,20.592 C166.219556,19.872 165.227556,19.52 164.283556,19.52 C161.851556,19.52 160.171556,21.536 160.171556,23.888 C160.171556,26.24 161.883556,28.272 164.315556,28.272 C165.275556,28.272 166.283556,27.904 166.795556,27.088 L166.827556,27.088 L166.827556,28 L169.739556,28 L169.739556,19.792 Z M174.329778,19.792 L171.417778,19.792 L171.417778,28 L174.329778,28 L174.329778,23.744 C174.329778,22.72 174.665778,21.84 175.849778,21.84 C177.289778,21.84 177.161778,23.216 177.161778,24 L177.161778,28 L180.073778,28 L180.073778,22.928 C180.073778,20.912 179.193778,19.52 176.985778,19.52 C175.849778,19.52 175.033778,19.856 174.361778,20.848 L174.329778,20.848 L174.329778,19.792 Z M187.912,28 L190.824,28 L190.824,14.72 L187.912,14.72 L187.912,20.592 C187.304,19.872 186.312,19.52 185.368,19.52 C182.936,19.52 181.256,21.536 181.256,23.888 C181.256,26.24 182.968,28.272 185.4,28.272 C186.36,28.272 187.368,27.904 187.88,27.088 L187.912,27.088 L187.912,28 Z M186.136,22.048 C187.32,22.048 188.008,22.896 188.008,23.904 C188.008,24.944 187.32,25.744 186.136,25.744 C184.952,25.744 184.264,24.944 184.264,23.904 C184.264,22.896 184.952,22.048 186.136,22.048 L186.136,22.048 Z M200.820444,20.592 L200.820444,15.936 L197.684444,15.936 L197.684444,28 L200.820444,28 L200.820444,23.056 L205.348444,23.056 L205.348444,28 L208.484444,28 L208.484444,15.936 L205.348444,15.936 L205.348444,20.592 L200.820444,20.592 Z M214.546667,19.52 C211.906667,19.52 209.602667,21.104 209.602667,23.904 C209.602667,26.704 211.922667,28.272 214.546667,28.272 C217.186667,28.272 219.490667,26.688 219.490667,23.904 C219.490667,21.104 217.186667,19.52 214.546667,19.52 L214.546667,19.52 Z M214.546667,22.048 C215.730667,22.048 216.418667,22.896 216.418667,23.904 C216.418667,24.944 215.730667,25.744 214.546667,25.744 C213.362667,25.744 212.674667,24.944 212.674667,23.904 C212.674667,22.896 213.362667,22.048 214.546667,22.048 L214.546667,22.048 Z M223.456889,19.792 L220.544889,19.792 L220.544889,28 L223.456889,28 L223.456889,23.744 C223.456889,22.72 223.792889,21.84 224.976889,21.84 C226.416889,21.84 226.288889,23.216 226.288889,24 L226.288889,28 L229.200889,28 L229.200889,22.928 C229.200889,20.912 228.320889,19.52 226.112889,19.52 C224.976889,19.52 224.160889,19.856 223.488889,20.848 L223.456889,20.848 L223.456889,19.792 Z M235.199111,19.52 C232.559111,19.52 230.255111,21.104 230.255111,23.904 C230.255111,26.704 232.575111,28.272 235.199111,28.272 C237.839111,28.272 240.143111,26.688 240.143111,23.904 C240.143111,21.104 237.839111,19.52 235.199111,19.52 L235.199111,19.52 Z M235.199111,22.048 C236.383111,22.048 237.071111,22.896 237.071111,23.904 C237.071111,24.944 236.383111,25.744 235.199111,25.744 C234.015111,25.744 233.327111,24.944 233.327111,23.904 C233.327111,22.896 234.015111,22.048 235.199111,22.048 L235.199111,22.048 Z M244.109333,19.792 L241.197333,19.792 L241.197333,28 L244.109333,28 L244.109333,24.688 C244.109333,23.28 244.509333,22.208 246.125333,22.208 C246.573333,22.208 246.957333,22.256 247.357333,22.48 L247.357333,19.68 L246.797333,19.68 C245.661333,19.68 244.701333,20.128 244.141333,21.136 L244.109333,21.136 L244.109333,19.792 Z M254.587556,20.048 C253.739556,19.664 252.811556,19.52 251.883556,19.52 C250.091556,19.52 248.267556,20.416 248.267556,22.432 C248.267556,23.904 249.179556,24.352 250.091556,24.592 C251.003556,24.832 251.915556,24.864 251.915556,25.504 C251.915556,25.952 251.371556,26.128 251.003556,26.128 C250.283556,26.128 249.291556,25.712 248.699556,25.296 L247.643556,27.328 C248.635556,27.936 249.787556,28.272 250.955556,28.272 C252.859556,28.272 254.827556,27.376 254.827556,25.216 C254.827556,23.696 253.803556,23.056 252.443556,22.784 C252.043556,22.704 251.131556,22.624 251.131556,22.064 C251.131556,21.648 251.707556,21.504 252.043556,21.504 C252.539556,21.504 253.163556,21.664 253.611556,21.904 L254.587556,20.048 Z" id="Awards-and-Honors" fill="#FFFFFF"></path>
            <path d="M69.1729682,18.1061105 L69.1729682,16.2282434 C69.1729682,15.8273504 69.5068928,15.4897563 69.9034282,15.4897563 C70.2999636,15.4897563 70.6338882,15.8273504 70.6338882,16.2282434 L70.6338882,18.1061105 C70.6338882,18.5070034 70.2999636,18.8445975 69.9034282,18.8445975 C69.5068928,18.8445975 69.1729682,18.5070034 69.1729682,18.1061105 L69.1729682,18.1061105 Z M69.8616876,20.9756601 C70.0912608,20.9756601 70.2999636,20.8912616 70.4460556,20.7224646 C70.5921476,20.5536675 70.6964991,20.3426712 70.6964991,20.1316749 C70.6964991,19.899579 70.6130179,19.6885827 70.4460556,19.5408853 C70.2999636,19.3720883 70.0703905,19.2876897 69.8616876,19.2876897 C69.6321145,19.2876897 69.4234116,19.3720883 69.2773196,19.5408853 C69.1312276,19.6885827 69.0268762,19.9206786 69.0268762,20.1316749 C69.0268762,20.3426712 69.1103573,20.5747672 69.2773196,20.7224646 C69.4234116,20.8912616 69.6529848,20.9756601 69.8616876,20.9756601 L69.8616876,20.9756601 Z M75.3923135,20.1738742 C74.7662049,20.8279627 73.9940043,21.2288557 73.0757117,21.3765531 C72.6165654,24.2039035 70.6338882,25.6386784 68.3381567,25.9340732 L68.3381567,29.0357188 L70.1330013,29.0357188 C70.5921476,29.0357188 70.9678128,29.4155121 70.9678128,29.879704 C70.9678128,30.3438958 70.5921476,30.7236892 70.1330013,30.7236892 L64.8945595,30.7236892 C64.4354132,30.7236892 64.0597481,30.3438958 64.0597481,29.879704 C64.0597481,29.4155121 64.4354132,29.0357188 64.8945595,29.0357188 L66.6685338,29.0357188 L66.6685338,25.9340732 C64.3728024,25.6386784 62.4109955,24.2039035 61.9518492,21.3765531 C61.0335566,21.2288557 60.261356,20.8490624 59.6143771,20.1738742 C57.9030136,18.3804056 57.9864948,15.3209593 58.0073651,15.1943615 C58.0282354,14.7934685 58.3412897,14.4769741 58.7378251,14.4769741 L61.868368,14.4769741 L61.868368,13.8439852 C61.868368,13.3797933 62.2231629,13 62.6823092,13 L72.3243814,13 C72.7835277,13 73.1383225,13.3797933 73.1383225,13.8439852 L73.1383225,14.4769741 L76.2688655,14.4769741 C76.6654009,14.4769741 76.9784552,14.7934685 76.9993255,15.1943615 C76.9993255,15.3209593 77.0828066,18.4015053 75.3923135,20.1738742 L75.3923135,20.1738742 Z M60.6787617,19.161092 C61.0126863,19.498686 61.4509623,19.7518816 61.868368,19.8573797 L61.868368,15.9539482 L59.4891554,15.9539482 C59.5726365,16.7979334 59.82308,18.2538079 60.6787617,19.161092 L60.6787617,19.161092 Z M71.4686997,14.6879704 L63.5379909,14.6879704 L63.5379909,20.1527746 C63.5379909,23.2122209 65.583279,24.288302 67.5033453,24.288302 C69.4234116,24.288302 71.4686997,23.1911213 71.4686997,20.1527746 L71.4686997,14.6879704 L71.4686997,14.6879704 Z M74.3279289,19.161092 C75.14187,18.3171068 75.434054,17.0089297 75.5175352,15.9539482 L73.1383225,15.9539482 L73.1383225,19.8573797 C73.5557283,19.730782 73.9940043,19.498686 74.3279289,19.161092 L74.3279289,19.161092 Z" id="XMLID_2061_" fill="#FFFFFF"></path>
        </g>
    </g>
</svg>